<svg width="202" height="63" viewBox="0 0 202 63" fill="none" xmlns="http://www.w3.org/2000/svg">
<rect width="202" height="62.5915" rx="11.3803" fill="#33303E"/>
<path d="M68.8289 24.5785C68.7451 24.5785 68.6738 24.5533 68.6151 24.503C68.5648 24.4443 68.5396 24.373 68.5396 24.2892V16.0755C68.5396 15.9833 68.5648 15.912 68.6151 15.8617C68.6738 15.803 68.7451 15.7737 68.8289 15.7737H71.6842C72.9504 15.7737 73.8644 16.0588 74.4263 16.629C74.9881 17.1908 75.2816 18.042 75.3068 19.1824C75.3151 19.4256 75.3193 19.7526 75.3193 20.1635C75.3193 20.5744 75.3151 20.9056 75.3068 21.1572C75.2816 21.9538 75.1474 22.6037 74.9043 23.1068C74.6695 23.6016 74.2963 23.9705 73.7848 24.2137C73.2733 24.4569 72.594 24.5785 71.7471 24.5785H68.8289ZM71.6842 23.5093C72.2628 23.5093 72.7198 23.4297 73.0552 23.2703C73.399 23.111 73.6464 22.8595 73.7974 22.5156C73.9567 22.1635 74.0447 21.6939 74.0615 21.1069C74.0783 20.6037 74.0867 20.2893 74.0867 20.1635C74.0867 20.0293 74.0783 19.7191 74.0615 19.2327C74.0447 18.4025 73.8477 17.7988 73.4703 17.4214C73.093 17.0357 72.4766 16.8428 71.6213 16.8428H69.7723V23.5093H71.6842ZM79.7274 24.7043C78.805 24.7043 78.0881 24.4443 77.5766 23.9244C77.0734 23.4045 76.8051 22.7127 76.7715 21.849L76.759 21.3081L76.7715 20.7673C76.8051 19.9119 77.0776 19.2243 77.5891 18.7044C78.1007 18.1761 78.8134 17.912 79.7274 17.912C80.6415 17.912 81.3542 18.1761 81.8658 18.7044C82.3773 19.2243 82.6498 19.9119 82.6834 20.7673C82.6917 20.8595 82.6959 21.0398 82.6959 21.3081C82.6959 21.5765 82.6917 21.7568 82.6834 21.849C82.6498 22.7127 82.3773 23.4045 81.8658 23.9244C81.3626 24.4443 80.6499 24.7043 79.7274 24.7043ZM79.7274 23.7357C80.2557 23.7357 80.6708 23.568 80.9727 23.2326C81.283 22.8972 81.4507 22.415 81.4758 21.7861C81.4842 21.7022 81.4884 21.5429 81.4884 21.3081C81.4884 21.0733 81.4842 20.914 81.4758 20.8302C81.4507 20.2012 81.283 19.7191 80.9727 19.3836C80.6708 19.0482 80.2557 18.8805 79.7274 18.8805C79.1992 18.8805 78.7799 19.0482 78.4696 19.3836C78.1594 19.7191 77.9958 20.2012 77.9791 20.8302L77.9665 21.3081L77.9791 21.7861C77.9958 22.415 78.1594 22.8972 78.4696 23.2326C78.7799 23.568 79.1992 23.7357 79.7274 23.7357ZM85.8348 24.5785C85.7258 24.5785 85.6419 24.5533 85.5832 24.503C85.5245 24.4527 85.4742 24.373 85.4323 24.264L83.6462 18.4277L83.621 18.3019C83.621 18.2264 83.6462 18.1636 83.6965 18.1132C83.7552 18.0629 83.8181 18.0378 83.8852 18.0378H84.4386C84.5225 18.0378 84.5896 18.0629 84.6399 18.1132C84.6986 18.1552 84.7363 18.2013 84.7531 18.2516L86.1493 22.9936L87.6461 18.3019C87.6629 18.2348 87.7006 18.1761 87.7593 18.1258C87.818 18.0671 87.8977 18.0378 87.9983 18.0378H88.4259C88.5266 18.0378 88.6062 18.0671 88.6649 18.1258C88.7236 18.1761 88.7614 18.2348 88.7781 18.3019L90.275 22.9936L91.6711 18.2516C91.6795 18.2097 91.7089 18.1636 91.7592 18.1132C91.8179 18.0629 91.8892 18.0378 91.973 18.0378H92.5391C92.6061 18.0378 92.6648 18.0629 92.7151 18.1132C92.7655 18.1636 92.7906 18.2264 92.7906 18.3019L92.7655 18.4277L90.9919 24.264C90.95 24.373 90.8997 24.4527 90.841 24.503C90.7823 24.5533 90.6942 24.5785 90.5768 24.5785H90.0863C89.8599 24.5785 89.7215 24.4737 89.6712 24.264L88.2121 19.761L86.753 24.264C86.6859 24.4737 86.5434 24.5785 86.3254 24.5785H85.8348ZM94.4731 24.5785C94.3892 24.5785 94.3179 24.5533 94.2592 24.503C94.2089 24.4443 94.1838 24.373 94.1838 24.2892V18.3271C94.1838 18.2432 94.2089 18.1761 94.2592 18.1258C94.3179 18.0671 94.3892 18.0378 94.4731 18.0378H95.0642C95.1481 18.0378 95.2152 18.0671 95.2655 18.1258C95.3242 18.1761 95.3535 18.2432 95.3535 18.3271V18.8805C95.5967 18.5702 95.8818 18.3313 96.2089 18.1635C96.5443 17.9958 96.9594 17.912 97.4541 17.912C98.2591 17.912 98.8839 18.1719 99.3283 18.6918C99.7811 19.2034 100.008 19.8868 100.008 20.7421V24.2892C100.008 24.373 99.9782 24.4443 99.9195 24.503C99.8692 24.5533 99.8021 24.5785 99.7182 24.5785H99.0893C99.0055 24.5785 98.9342 24.5533 98.8755 24.503C98.8252 24.4443 98.8 24.373 98.8 24.2892V20.805C98.8 20.2096 98.6533 19.7484 98.3598 19.4214C98.0747 19.0943 97.6596 18.9308 97.1145 18.9308C96.5862 18.9308 96.1669 19.0985 95.8567 19.434C95.5464 19.761 95.3913 20.218 95.3913 20.805V24.2892C95.3913 24.373 95.3619 24.4443 95.3032 24.503C95.2529 24.5533 95.1858 24.5785 95.102 24.5785H94.4731ZM102.114 24.5785C102.03 24.5785 101.959 24.5533 101.9 24.503C101.85 24.4443 101.824 24.373 101.824 24.2892V15.9372C101.824 15.8533 101.85 15.7862 101.9 15.7359C101.959 15.6772 102.03 15.6479 102.114 15.6479H102.705C102.789 15.6479 102.856 15.6772 102.906 15.7359C102.965 15.7862 102.994 15.8533 102.994 15.9372V24.2892C102.994 24.373 102.965 24.4443 102.906 24.503C102.856 24.5533 102.789 24.5785 102.705 24.5785H102.114ZM107.55 24.7043C106.627 24.7043 105.91 24.4443 105.399 23.9244C104.896 23.4045 104.627 22.7127 104.594 21.849L104.581 21.3081L104.594 20.7673C104.627 19.9119 104.9 19.2243 105.411 18.7044C105.923 18.1761 106.636 17.912 107.55 17.912C108.464 17.912 109.176 18.1761 109.688 18.7044C110.199 19.2243 110.472 19.9119 110.506 20.7673C110.514 20.8595 110.518 21.0398 110.518 21.3081C110.518 21.5765 110.514 21.7568 110.506 21.849C110.472 22.7127 110.199 23.4045 109.688 23.9244C109.185 24.4443 108.472 24.7043 107.55 24.7043ZM107.55 23.7357C108.078 23.7357 108.493 23.568 108.795 23.2326C109.105 22.8972 109.273 22.415 109.298 21.7861C109.306 21.7022 109.311 21.5429 109.311 21.3081C109.311 21.0733 109.306 20.914 109.298 20.8302C109.273 20.2012 109.105 19.7191 108.795 19.3836C108.493 19.0482 108.078 18.8805 107.55 18.8805C107.021 18.8805 106.602 19.0482 106.292 19.3836C105.982 19.7191 105.818 20.2012 105.801 20.8302L105.789 21.3081L105.801 21.7861C105.818 22.415 105.982 22.8972 106.292 23.2326C106.602 23.568 107.021 23.7357 107.55 23.7357ZM113.917 24.7043C113.506 24.7043 113.125 24.6204 112.772 24.4527C112.42 24.285 112.139 24.0586 111.93 23.7735C111.728 23.48 111.628 23.1571 111.628 22.8049C111.628 22.2515 111.854 21.7987 112.307 21.4465C112.768 21.0859 113.389 20.8511 114.169 20.7421L116.043 20.478V20.1132C116.043 19.2579 115.552 18.8302 114.571 18.8302C114.202 18.8302 113.9 18.9099 113.665 19.0692C113.431 19.2201 113.255 19.4004 113.137 19.6101C113.112 19.6855 113.078 19.74 113.036 19.7736C113.003 19.8071 112.953 19.8239 112.886 19.8239H112.345C112.269 19.8239 112.202 19.7987 112.143 19.7484C112.093 19.6897 112.068 19.6226 112.068 19.5472C112.076 19.3459 112.169 19.1195 112.345 18.8679C112.529 18.608 112.81 18.3858 113.187 18.2013C113.565 18.0084 114.03 17.912 114.584 17.912C115.523 17.912 116.198 18.1342 116.609 18.5786C117.02 19.0147 117.225 19.5597 117.225 20.2138V24.2892C117.225 24.373 117.196 24.4443 117.137 24.503C117.087 24.5533 117.02 24.5785 116.936 24.5785H116.357C116.273 24.5785 116.202 24.5533 116.143 24.503C116.093 24.4443 116.068 24.373 116.068 24.2892V23.7483C115.883 24.0167 115.615 24.2431 115.263 24.4276C114.911 24.612 114.462 24.7043 113.917 24.7043ZM114.181 23.7609C114.726 23.7609 115.171 23.5848 115.514 23.2326C115.867 22.872 116.043 22.3563 116.043 21.6855V21.3333L114.584 21.5471C113.988 21.631 113.54 21.7735 113.238 21.9748C112.936 22.1676 112.785 22.415 112.785 22.7169C112.785 23.0523 112.923 23.3123 113.2 23.4968C113.477 23.6729 113.804 23.7609 114.181 23.7609ZM121.423 24.7043C120.551 24.7043 119.893 24.4192 119.448 23.8489C119.004 23.2787 118.769 22.5576 118.744 21.6855L118.731 21.3081L118.744 20.9308C118.769 20.0671 119.004 19.3501 119.448 18.7799C119.893 18.2013 120.551 17.912 121.423 17.912C122.287 17.912 122.966 18.2181 123.461 18.8302V15.9372C123.461 15.8533 123.486 15.7862 123.536 15.7359C123.595 15.6772 123.666 15.6479 123.75 15.6479H124.354C124.438 15.6479 124.505 15.6772 124.555 15.7359C124.614 15.7862 124.643 15.8533 124.643 15.9372V24.2892C124.643 24.373 124.614 24.4443 124.555 24.503C124.505 24.5533 124.438 24.5785 124.354 24.5785H123.788C123.704 24.5785 123.633 24.5533 123.574 24.503C123.524 24.4443 123.499 24.373 123.499 24.2892V23.7609C123.012 24.3898 122.32 24.7043 121.423 24.7043ZM121.687 23.6854C122.266 23.6854 122.698 23.4968 122.983 23.1194C123.276 22.7337 123.436 22.2767 123.461 21.7484C123.469 21.6561 123.473 21.4968 123.473 21.2704C123.473 21.0356 123.469 20.8721 123.461 20.7798C123.444 20.2851 123.285 19.8532 122.983 19.4843C122.681 19.1153 122.249 18.9308 121.687 18.9308C121.092 18.9308 120.656 19.1153 120.379 19.4843C120.111 19.8532 119.964 20.3396 119.939 20.9434L119.926 21.3081C119.926 22.893 120.513 23.6854 121.687 23.6854ZM131.542 24.5785C131.324 24.5785 131.169 24.4737 131.077 24.264L128.75 18.4277L128.725 18.3019C128.725 18.2264 128.75 18.1636 128.8 18.1132C128.85 18.0629 128.913 18.0378 128.989 18.0378H129.593C129.735 18.0378 129.84 18.109 129.907 18.2516L131.819 23.2075L133.731 18.2516C133.806 18.109 133.907 18.0378 134.033 18.0378H134.649C134.716 18.0378 134.775 18.0629 134.825 18.1132C134.884 18.1636 134.913 18.2264 134.913 18.3019L134.888 18.4277L132.548 24.264C132.456 24.4737 132.301 24.5785 132.083 24.5785H131.542ZM136.419 16.8177C136.335 16.8177 136.264 16.7925 136.205 16.7422C136.155 16.6835 136.13 16.6122 136.13 16.5284V15.8491C136.13 15.7653 136.155 15.694 136.205 15.6353C136.264 15.5766 136.335 15.5473 136.419 15.5473H137.211C137.295 15.5473 137.366 15.5766 137.425 15.6353C137.484 15.694 137.513 15.7653 137.513 15.8491V16.5284C137.513 16.6122 137.484 16.6835 137.425 16.7422C137.366 16.7925 137.295 16.8177 137.211 16.8177H136.419ZM136.52 24.5785C136.436 24.5785 136.364 24.5533 136.306 24.503C136.255 24.4443 136.23 24.373 136.23 24.2892V18.3271C136.23 18.2432 136.255 18.1761 136.306 18.1258C136.364 18.0671 136.436 18.0378 136.52 18.0378H137.123C137.207 18.0378 137.274 18.0671 137.325 18.1258C137.383 18.1761 137.413 18.2432 137.413 18.3271V24.2892C137.413 24.373 137.383 24.4443 137.325 24.503C137.274 24.5533 137.207 24.5785 137.123 24.5785H136.52ZM141.1 24.7043C140.69 24.7043 140.308 24.6204 139.956 24.4527C139.604 24.285 139.323 24.0586 139.113 23.7735C138.912 23.48 138.811 23.1571 138.811 22.8049C138.811 22.2515 139.038 21.7987 139.49 21.4465C139.952 21.0859 140.572 20.8511 141.352 20.7421L143.226 20.478V20.1132C143.226 19.2579 142.736 18.8302 141.754 18.8302C141.386 18.8302 141.084 18.9099 140.849 19.0692C140.614 19.2201 140.438 19.4004 140.321 19.6101C140.295 19.6855 140.262 19.74 140.22 19.7736C140.186 19.8071 140.136 19.8239 140.069 19.8239H139.528C139.453 19.8239 139.386 19.7987 139.327 19.7484C139.277 19.6897 139.251 19.6226 139.251 19.5472C139.26 19.3459 139.352 19.1195 139.528 18.8679C139.713 18.608 139.994 18.3858 140.371 18.2013C140.748 18.0084 141.214 17.912 141.767 17.912C142.706 17.912 143.381 18.1342 143.792 18.5786C144.203 19.0147 144.408 19.5597 144.408 20.2138V24.2892C144.408 24.373 144.379 24.4443 144.32 24.503C144.27 24.5533 144.203 24.5785 144.119 24.5785H143.541C143.457 24.5785 143.385 24.5533 143.327 24.503C143.276 24.4443 143.251 24.373 143.251 24.2892V23.7483C143.067 24.0167 142.798 24.2431 142.446 24.4276C142.094 24.612 141.645 24.7043 141.1 24.7043ZM141.365 23.7609C141.91 23.7609 142.354 23.5848 142.698 23.2326C143.05 22.872 143.226 22.3563 143.226 21.6855V21.3333L141.767 21.5471C141.172 21.631 140.723 21.7735 140.421 21.9748C140.119 22.1676 139.968 22.415 139.968 22.7169C139.968 23.0523 140.107 23.3123 140.383 23.4968C140.66 23.6729 140.987 23.7609 141.365 23.7609Z" fill="white"/>
<path d="M67.9484 45.3495C67.859 45.3495 67.7751 45.3159 67.6969 45.2489C67.6298 45.1706 67.5963 45.0867 67.5963 44.9973C67.5963 44.9302 67.6018 44.8799 67.613 44.8464L71.5542 34.0793C71.5878 33.9451 71.6604 33.8333 71.7723 33.7439C71.8841 33.6544 72.0294 33.6097 72.2083 33.6097H74.6904C74.8693 33.6097 75.0147 33.6544 75.1265 33.7439C75.2383 33.8333 75.311 33.9451 75.3445 34.0793L79.2689 44.8464L79.3025 44.9973C79.3025 45.0867 79.2633 45.1706 79.1851 45.2489C79.118 45.3159 79.0341 45.3495 78.9335 45.3495H76.8707C76.6023 45.3495 76.4234 45.2321 76.334 44.9973L75.6799 43.2866H71.202L70.5647 44.9973C70.4753 45.2321 70.2908 45.3495 70.0113 45.3495H67.9484ZM75.0091 40.8716L73.4494 36.444L71.8897 40.8716H75.0091ZM80.8592 48.536C80.7474 48.536 80.6467 48.4969 80.5573 48.4186C80.479 48.3403 80.4399 48.2397 80.4399 48.1167V37.0478C80.4399 36.9248 80.479 36.8242 80.5573 36.7459C80.6467 36.6677 80.7474 36.6285 80.8592 36.6285H82.7543C82.8773 36.6285 82.9779 36.6677 83.0562 36.7459C83.1344 36.8242 83.1736 36.9248 83.1736 37.0478V37.6516C83.7773 36.8577 84.6438 36.4608 85.7731 36.4608C86.8688 36.4608 87.7241 36.8018 88.3391 37.4838C88.954 38.1659 89.2894 39.1274 89.3453 40.3685C89.3565 40.5138 89.3621 40.7207 89.3621 40.989C89.3621 41.2573 89.3565 41.4642 89.3453 41.6095C89.3006 42.8171 88.9652 43.773 88.3391 44.4774C87.713 45.1706 86.8576 45.5172 85.7731 45.5172C84.6774 45.5172 83.8612 45.1426 83.3245 44.3935V48.1167C83.3245 48.2397 83.2854 48.3403 83.2071 48.4186C83.1289 48.4969 83.0282 48.536 82.9052 48.536H80.8592ZM84.8675 43.2699C85.393 43.2699 85.7675 43.1133 85.9911 42.8003C86.2259 42.4872 86.3601 42.0568 86.3936 41.5089C86.416 41.2853 86.4272 41.112 86.4272 40.989C86.4272 40.866 86.416 40.6927 86.3936 40.4691C86.3601 39.9212 86.2259 39.4908 85.9911 39.1777C85.7675 38.8647 85.393 38.7081 84.8675 38.7081C84.3531 38.7081 83.973 38.8703 83.727 39.1945C83.4922 39.5076 83.3581 39.9157 83.3245 40.4188L83.3078 41.0393L83.3245 41.6766C83.3469 42.135 83.4866 42.5152 83.7438 42.8171C84.001 43.1189 84.3755 43.2699 84.8675 43.2699ZM91.4394 48.536C91.3276 48.536 91.2269 48.4969 91.1375 48.4186C91.0592 48.3403 91.0201 48.2397 91.0201 48.1167V37.0478C91.0201 36.9248 91.0592 36.8242 91.1375 36.7459C91.2269 36.6677 91.3276 36.6285 91.4394 36.6285H93.3345C93.4575 36.6285 93.5581 36.6677 93.6364 36.7459C93.7146 36.8242 93.7538 36.9248 93.7538 37.0478V37.6516C94.3575 36.8577 95.224 36.4608 96.3533 36.4608C97.449 36.4608 98.3043 36.8018 98.9193 37.4838C99.5342 38.1659 99.8696 39.1274 99.9255 40.3685C99.9367 40.5138 99.9423 40.7207 99.9423 40.989C99.9423 41.2573 99.9367 41.4642 99.9255 41.6095C99.8808 42.8171 99.5454 43.773 98.9193 44.4774C98.2932 45.1706 97.4378 45.5172 96.3533 45.5172C95.2576 45.5172 94.4414 45.1426 93.9047 44.3935V48.1167C93.9047 48.2397 93.8656 48.3403 93.7873 48.4186C93.7091 48.4969 93.6084 48.536 93.4854 48.536H91.4394ZM95.4477 43.2699C95.9732 43.2699 96.3477 43.1133 96.5713 42.8003C96.8061 42.4872 96.9403 42.0568 96.9738 41.5089C96.9962 41.2853 97.0074 41.112 97.0074 40.989C97.0074 40.866 96.9962 40.6927 96.9738 40.4691C96.9403 39.9212 96.8061 39.4908 96.5713 39.1777C96.3477 38.8647 95.9732 38.7081 95.4477 38.7081C94.9333 38.7081 94.5532 38.8703 94.3072 39.1945C94.0724 39.5076 93.9383 39.9157 93.9047 40.4188L93.8879 41.0393L93.9047 41.6766C93.9271 42.135 94.0668 42.5152 94.324 42.8171C94.5812 43.1189 94.9557 43.2699 95.4477 43.2699ZM102.02 45.3495C101.908 45.3495 101.807 45.3104 101.718 45.2321C101.639 45.1426 101.6 45.042 101.6 44.9302V33.8613C101.6 33.7383 101.639 33.6377 101.718 33.5594C101.807 33.4811 101.908 33.442 102.02 33.442H103.999C104.122 33.442 104.222 33.4811 104.3 33.5594C104.379 33.6377 104.418 33.7383 104.418 33.8613V44.9302C104.418 45.0532 104.379 45.1538 104.3 45.2321C104.222 45.3104 104.122 45.3495 103.999 45.3495H102.02ZM110.424 45.5172C109.082 45.5172 108.026 45.1538 107.254 44.4271C106.483 43.7003 106.08 42.6438 106.047 41.2573V40.6704C106.092 39.351 106.5 38.3224 107.271 37.5845C108.054 36.8354 109.099 36.4608 110.407 36.4608C111.358 36.4608 112.157 36.6565 112.806 37.0478C113.465 37.4279 113.957 37.9534 114.281 38.6243C114.617 39.2951 114.785 40.0666 114.785 40.9387V41.3412C114.785 41.453 114.745 41.5536 114.667 41.6431C114.589 41.7213 114.488 41.7605 114.365 41.7605H108.999V41.8779C109.021 42.4034 109.15 42.8282 109.384 43.1525C109.619 43.4767 109.96 43.6388 110.407 43.6388C110.687 43.6388 110.916 43.5829 111.095 43.4711C111.274 43.3481 111.436 43.2028 111.581 43.0351C111.682 42.9121 111.76 42.8394 111.816 42.8171C111.883 42.7835 111.984 42.7667 112.118 42.7667H114.198C114.298 42.7667 114.382 42.8003 114.449 42.8674C114.527 42.9233 114.567 43.0015 114.567 43.1022C114.567 43.3929 114.399 43.7283 114.063 44.1084C113.739 44.4886 113.264 44.8184 112.638 45.0979C112.012 45.3774 111.274 45.5172 110.424 45.5172ZM111.833 40.1001V40.0666C111.833 39.5187 111.704 39.0883 111.447 38.7752C111.201 38.451 110.855 38.2889 110.407 38.2889C109.971 38.2889 109.625 38.451 109.368 38.7752C109.122 39.0883 108.999 39.5187 108.999 40.0666V40.1001H111.833ZM124.489 45.5172C123.427 45.5172 122.516 45.3607 121.755 45.0476C120.995 44.7345 120.419 44.3265 120.028 43.8233C119.648 43.309 119.447 42.75 119.424 42.1462C119.424 42.0568 119.458 41.9785 119.525 41.9114C119.603 41.8331 119.692 41.794 119.793 41.794H121.906C122.04 41.794 122.147 41.822 122.225 41.8779C122.314 41.9226 122.404 41.9953 122.493 42.0959C122.639 42.3866 122.873 42.627 123.198 42.8171C123.522 43.0071 123.952 43.1022 124.489 43.1022C125.126 43.1022 125.613 43.0015 125.948 42.8003C126.284 42.599 126.451 42.3251 126.451 41.9785C126.451 41.7325 126.362 41.5313 126.183 41.3747C126.015 41.2182 125.747 41.0784 125.378 40.9555C125.009 40.8325 124.461 40.6927 123.734 40.5362C122.393 40.2567 121.386 39.8486 120.716 39.3119C120.056 38.764 119.726 37.987 119.726 36.9807C119.726 36.2987 119.916 35.6893 120.296 35.1527C120.676 34.616 121.219 34.1967 121.923 33.8948C122.627 33.593 123.449 33.442 124.388 33.442C125.361 33.442 126.205 33.6097 126.921 33.9451C127.636 34.2806 128.179 34.7054 128.548 35.2197C128.928 35.7229 129.129 36.2204 129.151 36.7124C129.151 36.813 129.118 36.8969 129.051 36.9639C128.984 37.031 128.9 37.0646 128.799 37.0646H126.585C126.451 37.0646 126.339 37.0422 126.25 36.9975C126.172 36.9528 126.099 36.8801 126.032 36.7795C125.965 36.5223 125.78 36.3043 125.479 36.1254C125.188 35.9465 124.824 35.857 124.388 35.857C123.885 35.857 123.5 35.9465 123.231 36.1254C122.963 36.3043 122.829 36.567 122.829 36.9136C122.829 37.1484 122.901 37.3441 123.047 37.5006C123.203 37.6571 123.449 37.8025 123.785 37.9367C124.131 38.0597 124.623 38.1882 125.26 38.3224C126.3 38.5125 127.128 38.7529 127.743 39.0436C128.369 39.3231 128.827 39.692 129.118 40.1504C129.409 40.5977 129.554 41.1623 129.554 41.8443C129.554 42.5934 129.336 43.2475 128.9 43.8065C128.475 44.3544 127.877 44.7793 127.105 45.0811C126.345 45.3718 125.473 45.5172 124.489 45.5172ZM135.509 45.3495C133.195 45.3495 132.037 44.2482 132.037 42.0456V38.8255H130.729C130.606 38.8255 130.5 38.7864 130.411 38.7081C130.332 38.6299 130.293 38.5292 130.293 38.4063V37.0478C130.293 36.9248 130.332 36.8242 130.411 36.7459C130.5 36.6677 130.606 36.6285 130.729 36.6285H132.037V33.8613C132.037 33.7383 132.077 33.6377 132.155 33.5594C132.244 33.4811 132.345 33.442 132.457 33.442H134.402C134.525 33.442 134.626 33.4811 134.704 33.5594C134.782 33.6377 134.821 33.7383 134.821 33.8613V36.6285H136.918C137.041 36.6285 137.141 36.6677 137.22 36.7459C137.309 36.8242 137.354 36.9248 137.354 37.0478V38.4063C137.354 38.5292 137.309 38.6299 137.22 38.7081C137.141 38.7864 137.041 38.8255 136.918 38.8255H134.821V41.8108C134.821 42.6382 135.14 43.0518 135.777 43.0518H137.069C137.192 43.0518 137.292 43.091 137.371 43.1692C137.449 43.2475 137.488 43.3481 137.488 43.4711V44.9302C137.488 45.042 137.449 45.1426 137.371 45.2321C137.292 45.3104 137.192 45.3495 137.069 45.3495H135.509ZM143.002 45.5172C141.616 45.5172 140.548 45.1874 139.799 44.5277C139.05 43.868 138.642 42.94 138.575 41.7437C138.564 41.5984 138.558 41.3468 138.558 40.989C138.558 40.6312 138.564 40.3797 138.575 40.2343C138.642 39.0491 139.061 38.1267 139.833 37.4671C140.604 36.7962 141.661 36.4608 143.002 36.4608C144.355 36.4608 145.417 36.7962 146.189 37.4671C146.96 38.1267 147.38 39.0491 147.447 40.2343C147.458 40.3797 147.463 40.6312 147.463 40.989C147.463 41.3468 147.458 41.5984 147.447 41.7437C147.38 42.94 146.972 43.868 146.222 44.5277C145.473 45.1874 144.4 45.5172 143.002 45.5172ZM143.002 43.4711C143.494 43.4711 143.858 43.3258 144.092 43.0351C144.327 42.7332 144.461 42.2748 144.495 41.6598C144.506 41.548 144.512 41.3244 144.512 40.989C144.512 40.6536 144.506 40.43 144.495 40.3182C144.461 39.7144 144.322 39.2616 144.076 38.9597C143.841 38.6578 143.483 38.5069 143.002 38.5069C142.074 38.5069 141.582 39.1106 141.526 40.3182L141.51 40.989L141.526 41.6598C141.549 42.2748 141.677 42.7332 141.912 43.0351C142.158 43.3258 142.522 43.4711 143.002 43.4711ZM149.549 45.3495C149.426 45.3495 149.325 45.3104 149.247 45.2321C149.168 45.1538 149.129 45.0532 149.129 44.9302V37.0478C149.129 36.9248 149.168 36.8242 149.247 36.7459C149.325 36.6677 149.426 36.6285 149.549 36.6285H151.477C151.6 36.6285 151.701 36.6732 151.779 36.7627C151.869 36.841 151.913 36.936 151.913 37.0478V37.7186C152.528 36.9919 153.356 36.6285 154.395 36.6285H155.133C155.256 36.6285 155.357 36.6677 155.435 36.7459C155.513 36.8242 155.553 36.9248 155.553 37.0478V38.7752C155.553 38.887 155.513 38.9877 155.435 39.0771C155.357 39.1554 155.256 39.1945 155.133 39.1945H153.507C153.048 39.1945 152.69 39.3231 152.433 39.5802C152.187 39.8262 152.064 40.1784 152.064 40.6368V44.9302C152.064 45.0532 152.02 45.1538 151.93 45.2321C151.852 45.3104 151.751 45.3495 151.628 45.3495H149.549ZM160.688 45.5172C159.347 45.5172 158.29 45.1538 157.519 44.4271C156.747 43.7003 156.345 42.6438 156.311 41.2573V40.6704C156.356 39.351 156.764 38.3224 157.535 37.5845C158.318 36.8354 159.363 36.4608 160.671 36.4608C161.622 36.4608 162.421 36.6565 163.07 37.0478C163.729 37.4279 164.221 37.9534 164.546 38.6243C164.881 39.2951 165.049 40.0666 165.049 40.9387V41.3412C165.049 41.453 165.01 41.5536 164.931 41.6431C164.853 41.7213 164.752 41.7605 164.629 41.7605H159.263V41.8779C159.285 42.4034 159.414 42.8282 159.648 43.1525C159.883 43.4767 160.224 43.6388 160.671 43.6388C160.951 43.6388 161.18 43.5829 161.359 43.4711C161.538 43.3481 161.7 43.2028 161.845 43.0351C161.946 42.9121 162.024 42.8394 162.08 42.8171C162.147 42.7835 162.248 42.7667 162.382 42.7667H164.462C164.562 42.7667 164.646 42.8003 164.713 42.8674C164.792 42.9233 164.831 43.0015 164.831 43.1022C164.831 43.3929 164.663 43.7283 164.328 44.1084C164.003 44.4886 163.528 44.8184 162.902 45.0979C162.276 45.3774 161.538 45.5172 160.688 45.5172ZM162.097 40.1001V40.0666C162.097 39.5187 161.968 39.0883 161.711 38.7752C161.465 38.451 161.119 38.2889 160.671 38.2889C160.235 38.2889 159.889 38.451 159.632 38.7752C159.386 39.0883 159.263 39.5187 159.263 40.0666V40.1001H162.097Z" fill="white"/>
<path d="M36.7344 42.414C36.1491 42.0292 35.6305 41.5538 35.1983 41.0059C34.7228 40.4404 34.2824 39.8471 33.8792 39.2293C32.9331 37.8595 32.1912 36.3624 31.6761 34.784C31.0574 32.9505 30.7578 31.1931 30.7578 29.4743C30.7578 27.5546 31.178 25.8788 31.9999 24.4707C32.6091 23.3701 33.5048 22.4504 34.5944 21.8067C35.6503 21.1585 36.8635 20.8038 38.1063 20.7799C38.5413 20.7799 39.0098 20.8422 39.507 20.9614C39.8641 21.0613 40.2992 21.219 40.8307 21.4152C41.5069 21.6728 41.8789 21.8305 42.005 21.869C42.4011 22.012 42.7341 22.0743 42.9957 22.0743C43.1942 22.0743 43.4743 22.012 43.7925 21.9167C43.9715 21.8543 44.3092 21.7443 44.7925 21.5399C45.2711 21.3675 45.6477 21.2199 45.9473 21.1099C46.4065 20.9761 46.8508 20.8523 47.2469 20.79C47.7165 20.7168 48.193 20.6974 48.6671 20.7322C49.4886 20.7853 50.2977 20.9573 51.0686 21.2429C52.3293 21.7443 53.3487 22.5272 54.1075 23.6401C53.7868 23.8355 53.4858 24.0608 53.2086 24.313C52.6053 24.8416 52.0914 25.4621 51.6864 26.1511C51.157 27.0926 50.8826 28.1533 50.8896 29.2304C50.9091 30.5533 51.2523 31.7184 51.9285 32.7259C52.4257 33.4726 53.0718 34.1112 53.8273 34.6025C54.2141 34.8601 54.5472 35.037 54.8663 35.1562C54.7169 35.6146 54.5574 36.0583 54.3691 36.4983C53.942 37.4851 53.4244 38.4311 52.8227 39.3246C52.2866 40.0938 51.8664 40.6667 51.5473 41.0481C51.0501 41.6302 50.5714 42.0748 50.0882 42.3847C49.5566 42.7331 48.9287 42.9192 48.2905 42.9192C47.8582 42.9356 47.4261 42.8839 47.0104 42.7661C46.6532 42.6469 46.2998 42.5176 45.952 42.37C45.5903 42.2059 45.2174 42.0671 44.8361 41.9547C43.8933 41.7154 42.9049 41.7139 41.9614 41.9502C41.5746 42.0602 41.2026 42.1885 40.8353 42.3462C40.3186 42.5607 39.9754 42.7046 39.7769 42.7661C39.3808 42.8807 38.9699 42.9522 38.5543 42.976C37.9115 42.976 37.3123 42.7945 36.7186 42.4269L36.7344 42.414ZM45.2127 19.8485C44.3723 20.2638 43.5699 20.4407 42.7731 20.383C42.6478 19.59 42.7731 18.7787 43.1061 17.8903C43.3896 17.1378 43.8085 16.4421 44.3426 15.8368C44.9066 15.1997 45.5909 14.6775 46.3573 14.2995C47.1736 13.8842 47.9519 13.6596 48.6958 13.6266C48.7923 14.4572 48.6958 15.274 48.3869 16.1568C48.1011 16.9372 47.6829 17.6638 47.1504 18.3056C46.6069 18.9436 45.9399 19.4679 45.1886 19.8476L45.2127 19.8485Z" fill="white"/>
</svg>
