<svg width="800" height="410" viewBox="0 0 800 410" fill="none" xmlns="http://www.w3.org/2000/svg">
<mask id="mask0" mask-type="alpha" maskUnits="userSpaceOnUse" x="0" y="0" width="800" height="410">
<rect width="800" height="410" rx="12" fill="url(#paint0_linear)"/>
</mask>
<g mask="url(#mask0)">
<rect opacity="0.6" width="800" height="410" rx="12" fill="url(#paint1_linear)"/>
<rect width="800" height="410" rx="12" fill="url(#paint2_linear)"/>
<path opacity="0.45" d="M556.515 201.579C531.335 201.474 507.14 211.36 489.235 229.068C471.331 246.776 461.177 270.863 461 296.047C460.982 308.47 463.444 320.771 468.243 332.229C473.042 343.687 480.08 354.072 488.945 362.773C492.7 366.462 497.753 368.53 503.017 368.53C508.28 368.53 513.333 366.462 517.088 362.773C518.935 360.954 520.402 358.786 521.404 356.395C522.405 354.004 522.921 351.438 522.921 348.845C522.921 346.253 522.405 343.687 521.404 341.295C520.402 338.904 518.935 336.737 517.088 334.918C511.922 329.836 507.819 323.777 505.019 317.093C502.218 310.409 500.776 303.235 500.776 295.988C500.776 288.741 502.218 281.566 505.019 274.883C507.819 268.199 511.922 262.139 517.088 257.057C527.588 246.725 541.729 240.934 556.459 240.934C571.189 240.934 585.33 246.725 595.83 257.057C600.996 262.139 605.099 268.199 607.899 274.883C610.7 281.566 612.142 288.741 612.142 295.988C612.142 303.235 610.7 310.409 607.899 317.093C605.099 323.777 600.996 329.836 595.83 334.918C593.983 336.736 592.515 338.903 591.514 341.294C590.513 343.685 589.997 346.251 589.997 348.843C589.997 351.435 590.513 354.001 591.514 356.391C592.515 358.782 593.983 360.949 595.83 362.767C599.585 366.457 604.638 368.524 609.901 368.524C615.165 368.524 620.218 366.457 623.973 362.767C632.859 354.077 639.921 343.698 644.741 332.241C649.561 320.783 652.043 308.478 652.042 296.047C651.864 270.861 641.709 246.773 623.802 229.064C605.895 211.355 581.698 201.471 556.515 201.579Z" fill="url(#paint3_linear)"/>
<path opacity="0.45" d="M804.41 39.0009C782.912 38.9025 762.252 47.3262 746.963 62.4238C731.675 77.5214 723.005 98.0601 722.857 119.534C722.857 141.139 731.449 161.86 746.744 177.137C762.038 192.414 782.781 200.996 804.41 200.996C826.04 200.996 846.783 192.414 862.077 177.137C877.371 161.86 885.963 141.139 885.963 119.534C885.815 98.0601 877.146 77.5214 861.857 62.4238C846.569 47.3262 825.909 38.9025 804.41 39.0009ZM804.41 162.068C796.009 161.973 787.823 159.397 780.883 154.665C773.943 149.933 768.56 143.256 765.411 135.475C762.262 127.693 761.488 119.155 763.186 110.936C764.884 102.716 768.978 95.1811 774.953 89.2803C780.929 83.3795 788.518 79.3762 796.766 77.7742C805.013 76.1722 813.552 77.0431 821.305 80.2774C829.059 83.5117 835.681 88.9647 840.339 95.9501C844.997 102.936 847.482 111.141 847.481 119.534C847.449 125.152 846.31 130.709 844.128 135.886C841.946 141.064 838.764 145.762 834.765 149.712C830.765 153.662 826.026 156.786 820.818 158.906C815.61 161.026 810.034 162.101 804.41 162.068Z" fill="url(#paint4_linear)"/>
</g>
<defs>
<linearGradient id="paint0_linear" x1="8.05552" y1="125" x2="763.747" y2="398.91" gradientUnits="userSpaceOnUse">
<stop stop-color="#00A5F0"/>
<stop offset="1" stop-color="#00D7D7"/>
</linearGradient>
<linearGradient id="paint1_linear" x1="266.875" y1="552.076" x2="511.049" y2="77.0498" gradientUnits="userSpaceOnUse">
<stop stop-color="#0B6EB6"/>
<stop offset="1" stop-color="#00D7D7" stop-opacity="0"/>
</linearGradient>
<linearGradient id="paint2_linear" x1="8.05552" y1="125" x2="763.747" y2="398.91" gradientUnits="userSpaceOnUse">
<stop stop-color="#00A5F0"/>
<stop offset="1" stop-color="#03E7E7"/>
</linearGradient>
<linearGradient id="paint3_linear" x1="626.28" y1="378.71" x2="505.561" y2="253.973" gradientUnits="userSpaceOnUse">
<stop stop-color="white"/>
<stop offset="1" stop-color="white" stop-opacity="0"/>
</linearGradient>
<linearGradient id="paint4_linear" x1="761.542" y1="-23.8197" x2="848.782" y2="187.68" gradientUnits="userSpaceOnUse">
<stop stop-color="white"/>
<stop offset="1" stop-color="white" stop-opacity="0"/>
</linearGradient>
</defs>
</svg>
