<svg width="343" height="219" viewBox="0 0 343 219" fill="none" xmlns="http://www.w3.org/2000/svg">
<g clip-path="url(#clip0)">
<rect x="0.865234" y="0.0958252" width="341.746" height="218.493" rx="6.72287" fill="url(#paint0_linear)"/>
<path opacity="0.4" d="M69.489 102.62C44.3086 102.516 20.1137 112.401 2.20891 130.109C-15.6958 147.817 -25.8492 171.904 -26.0263 197.088C-26.0444 209.511 -23.582 221.812 -18.7832 233.27C-13.9844 244.728 -6.94611 255.113 1.91897 263.814C5.67346 267.503 10.7266 269.571 15.9902 269.571C21.2538 269.571 26.3069 267.503 30.0614 263.814C31.9089 261.995 33.3761 259.827 34.3776 257.436C35.3791 255.045 35.8946 252.479 35.8946 249.886C35.8946 247.294 35.3791 244.728 34.3776 242.336C33.3761 239.945 31.9089 237.778 30.0614 235.959C24.8956 230.877 20.7928 224.818 17.9923 218.134C15.1918 211.45 13.7496 204.276 13.7496 197.029C13.7496 189.782 15.1918 182.607 17.9923 175.924C20.7928 169.24 24.8956 163.18 30.0614 158.099C40.5619 147.766 54.7022 141.975 69.4326 141.975C84.1631 141.975 98.3033 147.766 108.804 158.099C113.97 163.18 118.072 169.24 120.873 175.924C123.673 182.607 125.116 189.782 125.116 197.029C125.116 204.276 123.673 211.45 120.873 218.134C118.072 224.818 113.97 230.877 108.804 235.959C106.957 237.777 105.489 239.944 104.488 242.335C103.486 244.726 102.971 247.292 102.971 249.884C102.971 252.476 103.486 255.042 104.488 257.432C105.489 259.823 106.957 261.99 108.804 263.808C112.558 267.498 117.611 269.565 122.875 269.565C128.139 269.565 133.192 267.498 136.946 263.808C145.833 255.118 152.894 244.739 157.714 233.282C162.535 221.824 165.016 209.519 165.015 197.088C164.838 171.902 154.683 147.814 136.776 130.105C118.869 112.396 94.6712 102.513 69.489 102.62Z" fill="url(#paint1_linear)"/>
<path d="M317.384 -59.9581C295.886 -60.0564 275.226 -51.6328 259.937 -36.5352C244.648 -21.4376 235.979 -0.89888 235.831 20.5753C235.831 42.1804 244.423 62.9006 259.717 78.1777C275.011 93.4548 295.755 102.037 317.384 102.037C339.013 102.037 359.756 93.4548 375.051 78.1777C390.345 62.9006 398.937 42.1804 398.937 20.5753C398.789 -0.89888 390.12 -21.4376 374.831 -36.5352C359.542 -51.6328 338.882 -60.0564 317.384 -59.9581ZM317.384 63.1094C308.982 63.0141 300.796 60.4382 293.857 55.7061C286.917 50.9739 281.534 44.297 278.385 36.5157C275.236 28.7344 274.461 20.1964 276.159 11.9765C277.857 3.75661 281.952 -3.77791 287.927 -9.6787C293.902 -15.5795 301.491 -19.5828 309.739 -21.1848C317.987 -22.7868 326.525 -21.9158 334.279 -18.6816C342.032 -15.4473 348.655 -9.99429 353.312 -3.00884C357.97 3.9766 360.455 12.1823 360.455 20.5753C360.423 26.1931 359.283 31.7496 357.101 36.9274C354.919 42.1053 351.738 46.8032 347.738 50.7529C343.739 54.7026 339 57.8267 333.792 59.9468C328.583 62.0669 323.008 63.1416 317.384 63.1094Z" fill="url(#paint2_linear)"/>
<g opacity="0.6">
<path d="M93.8753 111.805C95.0205 110.66 95.6639 109.107 95.6639 107.487C95.6639 105.868 95.0205 104.315 93.8753 103.169" stroke="white" stroke-width="2.8012" stroke-linecap="round" stroke-linejoin="round"/>
<path d="M98.5739 114.671C100.201 112.63 101.086 110.096 101.086 107.486C101.085 104.876 100.199 102.343 98.5721 100.301" stroke="white" stroke-width="2.8012" stroke-linecap="round" stroke-linejoin="round"/>
<path d="M102.716 117.497C104.895 114.632 106.08 111.135 106.091 107.535C106.101 103.936 104.937 100.432 102.774 97.5546" stroke="white" stroke-width="2.8012" stroke-linecap="round" stroke-linejoin="round"/>
<path d="M107.342 94.6132C110.138 98.4766 111.601 103.146 111.508 107.914C111.416 112.683 109.773 117.291 106.828 121.043" stroke="white" stroke-width="2.8012" stroke-linecap="round" stroke-linejoin="round"/>
</g>
<rect x="37.5607" y="89.482" width="47.4803" height="34.4469" rx="7.00299" fill="url(#paint3_linear)" stroke="url(#paint4_linear)" stroke-width="0.560239"/>
<mask id="mask0" mask-type="alpha" maskUnits="userSpaceOnUse" x="37" y="89" width="48" height="35">
<rect x="38.1209" y="90.0423" width="46.3598" height="33.3264" rx="6.44275" fill="#DCD59E" stroke="black" stroke-width="0.560239"/>
</mask>
<g mask="url(#mask0)">
<path opacity="0.5" fill-rule="evenodd" clip-rule="evenodd" d="M62.4059 90.8722C61.9957 90.0367 60.8046 90.0367 60.3943 90.8722L56.1782 99.459C56.1782 99.459 58.267 105.767 56.1782 112.962L60.375 122.473C60.7681 123.363 62.0321 123.363 62.4252 122.473L66.622 112.962C66.622 112.962 64.5333 109.052 66.622 99.459L62.4059 90.8722Z" stroke="#BFB985" stroke-width="0.728311" stroke-linejoin="bevel"/>
<path opacity="0.5" d="M37.3794 99.4131H56.0458" stroke="#BFB985" stroke-width="0.728311" stroke-linejoin="bevel"/>
<path opacity="0.5" d="M66.1787 99.4131H85.3784" stroke="#BFB985" stroke-width="0.728311" stroke-linejoin="bevel"/>
<path opacity="0.5" d="M37.3794 112.858H56.0458" stroke="#BFB985" stroke-width="0.728311" stroke-linejoin="bevel"/>
<path opacity="0.5" d="M66.1787 112.858H85.3784" stroke="#BFB985" stroke-width="0.728311" stroke-linejoin="bevel"/>
</g>
<path fill-rule="evenodd" clip-rule="evenodd" d="M69.6128 26.4429C69.8712 26.1773 70.0742 25.8629 70.21 25.518C70.3457 25.1732 70.4114 24.8047 70.4033 24.4342C70.3952 24.0637 70.3135 23.6985 70.1628 23.3599C70.0122 23.0213 69.7957 22.7161 69.5259 22.462C67.8193 20.8443 65.6782 19.759 63.3646 19.3387C61.051 18.9185 58.665 19.1816 56.4986 20.0959C54.3321 21.0101 52.479 22.5359 51.1659 24.4866C49.8528 26.4373 49.1366 28.7284 49.1049 31.0797C49.1366 33.4309 49.8528 35.722 51.1659 37.6727C52.479 39.6234 54.3321 41.1492 56.4986 42.0635C58.665 42.9777 61.051 43.2408 63.3646 42.8206C65.6782 42.4004 67.8193 41.315 69.5259 39.6973C69.7957 39.4432 70.0122 39.138 70.1628 38.7994C70.3135 38.4608 70.3952 38.0956 70.4033 37.7251C70.4114 37.3546 70.3457 36.9862 70.21 36.6413C70.0742 36.2965 69.8712 35.9821 69.6128 35.7165C69.0872 35.1774 68.3708 34.8664 67.6181 34.8504C66.8653 34.8345 66.1365 35.1149 65.5885 35.6312C64.3729 36.7783 62.7582 37.4069 61.087 37.3836C59.4157 37.3603 57.8192 36.687 56.636 35.5064C56.0538 34.9256 55.5919 34.2356 55.2767 33.476C54.9616 32.7164 54.7993 31.9021 54.7993 31.0797C54.7993 30.2573 54.9616 29.443 55.2767 28.6834C55.5919 27.9237 56.0538 27.2338 56.636 26.6529C57.8192 25.4724 59.4157 24.7991 61.087 24.7758C62.7582 24.7525 64.3729 25.3811 65.5885 26.5282C66.1365 27.0446 66.8655 27.325 67.6183 27.3088C68.3711 27.2927 69.0874 26.9814 69.6128 26.4421V26.4429ZM22.8309 23.0757C25.3914 20.5439 28.8514 19.1306 32.4523 19.1458C36.0532 19.1306 39.5131 20.5439 42.0736 23.0757C44.6342 25.6076 46.0863 29.0514 46.1116 32.6522C46.1117 34.4293 45.7566 36.1885 45.0673 37.8265C44.3781 39.4645 43.3684 40.9483 42.0977 42.1906C41.5609 42.7182 40.8383 43.0137 40.0856 43.0137C39.3329 43.0137 38.6103 42.7182 38.0734 42.1906C37.8092 41.9306 37.5994 41.6207 37.4562 41.2788C37.313 40.937 37.2393 40.57 37.2393 40.1994C37.2393 39.8287 37.313 39.4618 37.4562 39.1199C37.5994 38.7781 37.8092 38.4681 38.0734 38.2082C38.8123 37.4816 39.399 36.6152 39.7996 35.6595C40.2001 34.7038 40.4064 33.678 40.4064 32.6418C40.4064 31.6055 40.2001 30.5797 39.7996 29.624C39.399 28.6683 38.8123 27.8019 38.0734 27.0753C36.5717 25.598 34.5496 24.7701 32.443 24.7701C30.3365 24.7701 28.3143 25.598 26.8126 27.0753C26.0738 27.8019 25.487 28.6683 25.0865 29.624C24.6859 30.5797 24.4796 31.6055 24.4796 32.6418C24.4796 33.678 24.6859 34.7038 25.0865 35.6595C25.487 36.6152 26.0738 37.4816 26.8126 38.2082C27.0768 38.4681 27.2866 38.7781 27.4298 39.1199C27.573 39.4618 27.6468 39.8287 27.6468 40.1994C27.6468 40.57 27.573 40.937 27.4298 41.2788C27.2866 41.6207 27.0768 41.9306 26.8126 42.1906C26.2757 42.7182 25.5532 43.0137 24.8005 43.0137C24.0478 43.0137 23.3252 42.7182 22.7883 42.1906C21.521 40.9467 20.5147 39.4623 19.8287 37.8244C19.1426 36.1864 18.7905 34.428 18.793 32.6522C18.8183 29.0514 20.2704 25.6076 22.8309 23.0757ZM84.8009 19.146C81.6183 19.1315 78.5599 20.3799 76.2966 22.6174C74.0333 24.8549 72.7499 27.8988 72.728 31.0813C72.728 34.2832 73.9999 37.354 76.2641 39.6181C78.5282 41.8823 81.599 43.1542 84.8009 43.1542C88.0029 43.1542 91.0736 41.8823 93.3377 39.6181C95.6018 37.354 96.8738 34.2832 96.8738 31.0813C96.8519 27.8988 95.5685 24.8549 93.3052 22.6174C91.0419 20.3799 87.9835 19.1315 84.8009 19.146ZM84.8009 37.385C83.5571 37.3708 82.3453 36.9891 81.318 36.2878C80.2907 35.5865 79.4938 34.5969 79.0276 33.4437C78.5614 32.2905 78.4467 31.0252 78.6981 29.8069C78.9494 28.5887 79.5556 27.4721 80.4402 26.5976C81.3247 25.7231 82.4482 25.1298 83.6692 24.8923C84.8902 24.6549 86.1542 24.784 87.302 25.2633C88.4498 25.7426 89.4301 26.5508 90.1197 27.5861C90.8092 28.6213 91.1771 29.8374 91.177 31.0813C91.1723 31.9139 91.0036 32.7374 90.6806 33.5047C90.3576 34.2721 89.8866 34.9684 89.2945 35.5537C88.7024 36.1391 88.0009 36.6021 87.2299 36.9163C86.4588 37.2305 85.6335 37.3897 84.8009 37.385ZM113.405 19.146C109.804 19.131 106.344 20.5443 103.784 23.0762C101.223 25.608 99.7715 29.0517 99.7462 32.6524C99.7436 34.4285 100.096 36.1873 100.782 37.8255C101.468 39.4637 102.475 40.9484 103.742 42.1924C104.279 42.7199 105.002 43.0155 105.754 43.0155C106.507 43.0155 107.23 42.7199 107.767 42.1924C108.031 41.9324 108.241 41.6225 108.384 41.2806C108.527 40.9388 108.601 40.5718 108.601 40.2012C108.601 39.8305 108.527 39.4636 108.384 39.1217C108.241 38.7799 108.031 38.4699 107.767 38.21C107.028 37.4834 106.441 36.6171 106.041 35.6614C105.64 34.7058 105.434 33.6801 105.434 32.6439C105.434 31.6078 105.64 30.582 106.041 29.6264C106.441 28.6708 107.028 27.8045 107.767 27.0779C109.268 25.6006 111.29 24.7727 113.397 24.7727C115.503 24.7727 117.525 25.6006 119.027 27.0779C119.765 27.8045 120.352 28.6708 120.752 29.6264C121.153 30.582 121.359 31.6078 121.359 32.6439C121.359 33.6801 121.153 34.7058 120.752 35.6614C120.352 36.6171 119.765 37.4834 119.027 38.21C118.762 38.4699 118.553 38.7797 118.409 39.1215C118.266 39.4633 118.192 39.8302 118.192 40.2008C118.192 40.5714 118.266 40.9382 118.409 41.28C118.553 41.6218 118.762 41.9317 119.027 42.1916C119.564 42.7191 120.286 43.0147 121.039 43.0147C121.791 43.0147 122.514 42.7191 123.051 42.1916C124.322 40.9492 125.331 39.4653 126.021 37.8271C126.71 36.189 127.065 34.4296 127.065 32.6524C127.039 29.0514 125.587 25.6075 123.027 23.0756C120.466 20.5437 117.006 19.1306 113.405 19.146ZM64.0227 31.065C64.0313 32.619 62.7641 33.8858 61.1923 33.8945C59.6206 33.9032 58.3394 32.6505 58.3308 31.0965C58.3222 29.5425 59.5894 28.2757 61.1612 28.267C62.733 28.2583 64.0141 29.511 64.0227 31.065Z" fill="white"/>
<path d="M142.926 28.9264H137.344V42.6234H139.785V37.7132H142.926C145.967 37.7132 147.267 35.5463 147.267 33.3198C147.267 31.133 145.967 28.9264 142.926 28.9264ZM142.806 35.5264H139.785V31.0933H142.866C144.266 31.0933 144.827 32.2463 144.827 33.3198C144.827 34.433 144.246 35.5264 142.806 35.5264Z" fill="white"/>
<path d="M157.946 37.8921C157.946 34.9897 155.845 33.1409 153.164 33.1409C150.503 33.1409 148.263 35.0095 148.263 37.9716C148.263 40.874 150.383 42.8222 153.184 42.8222C154.885 42.8222 156.525 42.1066 157.386 40.7548L155.845 39.5819C155.285 40.3373 154.325 40.7349 153.304 40.7349C151.924 40.7349 150.924 40.0788 150.664 38.7867H157.886C157.926 38.4487 157.946 38.1505 157.946 37.8921ZM150.664 37.1764C150.944 35.765 151.944 35.1686 153.204 35.1686C154.505 35.1686 155.485 35.9041 155.625 37.1764H150.664Z" fill="white"/>
<path d="M161.378 31.471C162.218 31.471 162.898 30.8547 162.898 30.0595C162.898 29.2445 162.218 28.6481 161.378 28.6481C160.558 28.6481 159.877 29.2445 159.877 30.0595C159.877 30.8547 160.558 31.471 161.378 31.471ZM157.537 47.156H158.757C161.378 47.156 162.538 45.5457 162.538 42.9614V33.3397L160.218 33.3397V42.9614C160.238 44.015 159.897 45.009 158.677 45.009H157.537V47.156Z" fill="white"/>
<path d="M169.675 42.8222C172.336 42.8222 174.657 40.8939 174.657 37.9517C174.657 35.0095 172.336 33.1409 169.675 33.1409C167.014 33.1409 164.713 35.0095 164.713 37.9517C164.713 40.8939 167.014 42.8222 169.675 42.8222ZM169.675 40.6752C168.235 40.6752 167.054 39.5819 167.054 37.9517C167.054 36.3614 168.235 35.2879 169.675 35.2879C171.115 35.2879 172.316 36.3614 172.316 37.9517C172.316 39.5819 171.115 40.6752 169.675 40.6752Z" fill="white"/>
<path d="M181.806 33.3397H179.825V29.9204H177.505V33.3397H175.824V35.1885H177.505V42.6234H179.825V35.1885H181.806V33.3397Z" fill="white"/>
<path d="M190.547 33.3397V34.5722C189.907 33.5981 188.607 33.1409 187.426 33.1409C184.965 33.1409 182.845 34.9897 182.845 37.9716C182.845 40.9337 184.985 42.8222 187.446 42.8222C188.587 42.8222 189.907 42.365 190.547 41.371V42.6234H192.868V33.3397H190.547ZM187.806 40.6554C186.366 40.6554 185.185 39.5023 185.185 37.9517C185.185 36.4011 186.366 35.2879 187.806 35.2879C189.147 35.2879 190.507 36.3216 190.507 37.9517C190.507 39.5819 189.227 40.6554 187.806 40.6554Z" fill="white"/>
<path d="M306.886 182.439C305.324 181.882 303.673 181.602 302.01 181.614C296.632 181.614 292.834 184.265 292.807 188.072C292.774 190.869 295.506 192.445 297.573 193.379C299.694 194.34 300.403 194.945 300.396 195.804C300.383 197.11 298.703 197.702 297.14 197.702C294.992 197.702 293.819 197.409 292.014 196.676L291.345 196.37L290.583 200.752C291.89 201.285 294.246 201.742 296.679 201.782C302.396 201.782 306.134 199.146 306.177 195.096C306.224 192.862 304.746 191.175 301.633 189.78C299.741 188.875 298.568 188.269 298.568 187.351C298.568 186.539 299.573 185.67 301.674 185.67C303.072 185.637 304.461 185.894 305.75 186.424L306.255 186.644L307.018 182.41L306.886 182.439ZM320.841 181.969H316.64C315.332 181.969 314.348 182.321 313.776 183.591L305.697 201.509H311.414L312.556 198.571L319.534 198.577C319.698 199.265 320.202 201.509 320.202 201.509H325.244L320.841 181.969ZM285.074 181.804H290.522L287.114 201.354H281.673L285.074 181.798V181.804ZM271.244 192.579L271.808 195.294L277.132 181.969H282.903L274.329 201.482H268.572L263.867 184.96C263.79 184.687 263.611 184.453 263.366 184.305C261.67 183.447 259.873 182.796 258.015 182.367L258.089 181.956H266.858C268.048 182.002 269.005 182.367 269.325 183.611L271.24 192.589V192.579H271.244ZM314.119 194.573L316.29 189.105C316.263 189.164 316.737 187.977 317.013 187.243L317.386 188.931L318.646 194.57H314.116V194.573H314.119Z" fill="white"/>
<path d="M19.2905 196.403C19.2905 195.488 19.5011 194.668 19.9224 193.942C20.3527 193.216 20.9308 192.651 21.6569 192.248C22.3919 191.836 23.1942 191.629 24.0637 191.629C25.0587 191.629 25.9416 191.876 26.7125 192.369C27.4924 192.853 28.0571 193.543 28.4067 194.44H26.5646C26.3226 193.947 25.9864 193.579 25.5562 193.337C25.1259 193.095 24.6284 192.974 24.0637 192.974C23.4452 192.974 22.8939 193.113 22.4099 193.391C21.9258 193.669 21.5449 194.068 21.267 194.587C20.9981 195.107 20.8636 195.712 20.8636 196.403C20.8636 197.093 20.9981 197.698 21.267 198.218C21.5449 198.738 21.9258 199.141 22.4099 199.428C22.8939 199.706 23.4452 199.845 24.0637 199.845C24.6284 199.845 25.1259 199.724 25.5562 199.482C25.9864 199.24 26.3226 198.872 26.5646 198.379H28.4067C28.0571 199.276 27.4924 199.966 26.7125 200.45C25.9416 200.934 25.0587 201.176 24.0637 201.176C23.1852 201.176 22.383 200.974 21.6569 200.571C20.9308 200.158 20.3527 199.589 19.9224 198.863C19.5011 198.137 19.2905 197.317 19.2905 196.403ZM35.8346 199.186H31.9219L31.2496 201.095H29.6496L32.9976 191.737H34.7724L38.1204 201.095H36.5069L35.8346 199.186ZM35.4043 197.935L33.885 193.592L32.3522 197.935H35.4043ZM44.43 201.095L42.2787 197.357H41.1089V201.095H39.5761V191.75H42.8031C43.5202 191.75 44.1252 191.876 44.6182 192.127C45.1202 192.378 45.4922 192.714 45.7342 193.135C45.9852 193.557 46.1107 194.027 46.1107 194.547C46.1107 195.157 45.9314 195.712 45.5729 196.214C45.2233 196.707 44.681 197.044 43.946 197.223L46.2586 201.095H44.43ZM41.1089 196.134H42.8031C43.3768 196.134 43.807 195.99 44.0939 195.703C44.3897 195.417 44.5376 195.031 44.5376 194.547C44.5376 194.063 44.3941 193.687 44.1073 193.418C43.8205 193.14 43.3857 193.001 42.8031 193.001H41.1089V196.134ZM52.3339 201.189C51.4644 201.189 50.6621 200.988 49.9271 200.584C49.201 200.172 48.6229 199.603 48.1926 198.877C47.7713 198.142 47.5607 197.317 47.5607 196.403C47.5607 195.488 47.7713 194.668 48.1926 193.942C48.6229 193.216 49.201 192.651 49.9271 192.248C50.6621 191.836 51.4644 191.629 52.3339 191.629C53.2123 191.629 54.0146 191.836 54.7407 192.248C55.4757 192.651 56.0539 193.216 56.4752 193.942C56.8965 194.668 57.1071 195.488 57.1071 196.403C57.1071 197.317 56.8965 198.142 56.4752 198.877C56.0539 199.603 55.4757 200.172 54.7407 200.584C54.0146 200.988 53.2123 201.189 52.3339 201.189ZM52.3339 199.858C52.9524 199.858 53.5037 199.719 53.9877 199.441C54.4718 199.155 54.8482 198.751 55.1172 198.231C55.395 197.702 55.534 197.093 55.534 196.403C55.534 195.712 55.395 195.107 55.1172 194.587C54.8482 194.068 54.4718 193.669 53.9877 193.391C53.5037 193.113 52.9524 192.974 52.3339 192.974C51.7154 192.974 51.1641 193.113 50.6801 193.391C50.196 193.669 49.8151 194.068 49.5372 194.587C49.2683 195.107 49.1338 195.712 49.1338 196.403C49.1338 197.093 49.2683 197.702 49.5372 198.231C49.8151 198.751 50.196 199.155 50.6801 199.441C51.1641 199.719 51.7154 199.858 52.3339 199.858ZM60.1483 199.858H63.308V201.095H58.6155V191.75H60.1483V199.858ZM66.1227 191.75V201.095H64.5899V191.75H66.1227ZM75.8127 201.095H74.2799L69.668 194.117V201.095H68.1352V191.737H69.668L74.2799 198.702V191.737H75.8127V201.095ZM79.3584 192.987V195.73H82.5853V196.981H79.3584V199.845H82.9887V201.095H77.8255V191.737H82.9887V192.987H79.3584ZM94.0032 199.186H90.0905L89.4182 201.095H87.8181L91.1661 191.737H92.941L96.289 201.095H94.6755L94.0032 199.186ZM93.5729 197.935L92.0535 193.592L90.5207 197.935H93.5729ZM102.599 201.095L100.447 197.357H99.2775V201.095H97.7447V191.75H100.972C101.689 191.75 102.294 191.876 102.787 192.127C103.289 192.378 103.661 192.714 103.903 193.135C104.154 193.557 104.279 194.027 104.279 194.547C104.279 195.157 104.1 195.712 103.741 196.214C103.392 196.707 102.85 197.044 102.115 197.223L104.427 201.095H102.599ZM99.2775 196.134H100.972C101.545 196.134 101.976 195.99 102.262 195.703C102.558 195.417 102.706 195.031 102.706 194.547C102.706 194.063 102.563 193.687 102.276 193.418C101.989 193.14 101.554 193.001 100.972 193.001H99.2775V196.134ZM111.874 199.186H107.961L107.289 201.095H105.689L109.037 191.737L110.812 191.737L114.16 201.095L112.546 201.095L111.874 199.186ZM111.444 197.935L109.924 193.592L108.391 197.935H111.444ZM117.135 191.75V197.707C117.135 198.415 117.319 198.948 117.686 199.307C118.063 199.665 118.582 199.845 119.246 199.845C119.918 199.845 120.438 199.665 120.805 199.307C121.182 198.948 121.37 198.415 121.37 197.707V191.75H122.903V197.68C122.903 198.442 122.737 199.087 122.406 199.616C122.074 200.145 121.63 200.539 121.074 200.799C120.519 201.059 119.905 201.189 119.232 201.189C118.56 201.189 117.946 201.059 117.39 200.799C116.843 200.539 116.409 200.145 116.086 199.616C115.763 199.087 115.602 198.442 115.602 197.68V191.75H117.135ZM120.631 189.747L117.659 191.213V190.083L120.631 188.443V189.747ZM129.995 191.75V198.487C129.995 199.32 129.739 199.979 129.228 200.463C128.726 200.947 128.063 201.189 127.238 201.189C126.414 201.189 125.746 200.947 125.235 200.463C124.733 199.979 124.482 199.32 124.482 198.487H126.028C126.037 198.899 126.14 199.226 126.337 199.468C126.544 199.71 126.844 199.831 127.238 199.831C127.633 199.831 127.933 199.71 128.139 199.468C128.345 199.217 128.448 198.89 128.448 198.487V191.75H129.995ZM136.751 201.189C135.881 201.189 135.079 200.988 134.344 200.584C133.618 200.172 133.04 199.603 132.609 198.877C132.188 198.142 131.977 197.317 131.977 196.403C131.977 195.488 132.188 194.668 132.609 193.942C133.04 193.216 133.618 192.651 134.344 192.248C135.079 191.836 135.881 191.629 136.751 191.629C137.629 191.629 138.431 191.836 139.157 192.248C139.892 192.651 140.471 193.216 140.892 193.942C141.313 194.668 141.524 195.488 141.524 196.403C141.524 197.317 141.313 198.142 140.892 198.877C140.471 199.603 139.892 200.172 139.157 200.584C138.431 200.988 137.629 201.189 136.751 201.189ZM136.751 199.858C137.369 199.858 137.92 199.719 138.404 199.441C138.888 199.155 139.265 198.751 139.534 198.231C139.812 197.702 139.951 197.093 139.951 196.403C139.951 195.712 139.812 195.107 139.534 194.587C139.265 194.068 138.888 193.669 138.404 193.391C137.92 193.113 137.369 192.974 136.751 192.974C136.132 192.974 135.581 193.113 135.097 193.391C134.613 193.669 134.232 194.068 133.954 194.587C133.685 195.107 133.55 195.712 133.55 196.403C133.55 197.093 133.685 197.702 133.954 198.231C134.232 198.751 134.613 199.155 135.097 199.441C135.581 199.719 136.132 199.858 136.751 199.858Z" fill="white"/>
</g>
<defs>
<linearGradient id="paint0_linear" x1="-143.5" y1="43.0298" x2="372.351" y2="315.401" gradientUnits="userSpaceOnUse">
<stop stop-color="#00A5F0"/>
<stop offset="1" stop-color="#00D7D7"/>
</linearGradient>
<linearGradient id="paint1_linear" x1="139.254" y1="279.751" x2="18.5344" y2="155.014" gradientUnits="userSpaceOnUse">
<stop stop-color="white"/>
<stop offset="1" stop-color="white" stop-opacity="0"/>
</linearGradient>
<linearGradient id="paint2_linear" x1="274.516" y1="-122.779" x2="361.756" y2="88.721" gradientUnits="userSpaceOnUse">
<stop stop-color="white"/>
<stop offset="1" stop-color="white" stop-opacity="0"/>
</linearGradient>
<linearGradient id="paint3_linear" x1="61.3008" y1="89.7621" x2="77.4622" y2="136.526" gradientUnits="userSpaceOnUse">
<stop stop-color="#DCD59E"/>
<stop offset="1" stop-color="#CBBB82"/>
</linearGradient>
<linearGradient id="paint4_linear" x1="40.9688" y1="91.6911" x2="61.3008" y2="123.649" gradientUnits="userSpaceOnUse">
<stop stop-color="#FBF3C0"/>
<stop offset="1" stop-color="#CCBC84"/>
</linearGradient>
<clipPath id="clip0">
<rect x="0.865234" y="0.0958252" width="341.746" height="218.493" rx="6.72287" fill="white"/>
</clipPath>
</defs>
</svg>
