<svg width="511" height="509" viewBox="0 0 511 509" fill="none" xmlns="http://www.w3.org/2000/svg">
<path d="M255.468 0.00266829C188.123 -0.305618 123.405 26.1111 75.5124 73.4576C27.6199 120.804 0.463838 185.214 0 252.558C0 320.312 26.9148 385.291 74.8243 433.201C122.734 481.11 187.713 508.025 255.468 508.025C323.222 508.025 388.2 481.11 436.11 433.201C484.019 385.291 510.935 320.312 510.935 252.558C510.471 185.214 483.314 120.804 435.422 73.4576C387.529 26.1111 322.812 -0.305618 255.468 0.00266829ZM255.468 385.946C229.148 385.647 203.505 377.569 181.767 362.729C160.029 347.889 143.166 326.95 133.301 302.547C123.437 278.145 121.011 251.37 126.329 225.592C131.648 199.814 144.474 176.185 163.192 157.68C181.91 139.175 205.683 126.621 231.52 121.597C257.357 116.573 284.102 119.304 308.391 129.447C332.679 139.59 353.423 156.691 368.014 178.597C382.605 200.504 390.39 226.237 390.388 252.558C390.288 270.175 386.718 287.601 379.883 303.839C373.048 320.077 363.082 334.809 350.554 347.196C338.025 359.582 323.18 369.379 306.865 376.028C290.55 382.677 273.085 386.047 255.468 385.946Z" fill="url(#paint0_linear)"/>
<path fill-rule="evenodd" clip-rule="evenodd" d="M324.224 241.137C324.434 241.342 324.683 241.503 324.956 241.61C325.229 241.717 325.52 241.769 325.814 241.763C326.107 241.757 326.396 241.692 326.664 241.573C326.932 241.453 327.173 241.282 327.374 241.069C328.654 239.718 329.513 238.024 329.846 236.193C330.178 234.362 329.97 232.474 329.247 230.76C328.523 229.045 327.316 227.579 325.772 226.54C324.229 225.501 322.416 224.934 320.555 224.909C318.694 224.934 316.881 225.501 315.338 226.54C313.794 227.579 312.586 229.045 311.863 230.76C311.14 232.474 310.931 234.362 311.264 236.193C311.596 238.024 312.455 239.718 313.735 241.069C313.936 241.282 314.178 241.453 314.446 241.573C314.714 241.692 315.003 241.757 315.296 241.763C315.589 241.769 315.881 241.717 316.154 241.61C316.427 241.503 316.675 241.342 316.886 241.137C317.312 240.721 317.558 240.155 317.571 239.559C317.584 238.963 317.362 238.386 316.953 237.953C316.045 236.991 315.548 235.713 315.566 234.391C315.585 233.068 316.118 231.805 317.052 230.868C317.511 230.408 318.057 230.042 318.659 229.793C319.26 229.543 319.904 229.415 320.555 229.415C321.206 229.415 321.85 229.543 322.451 229.793C323.052 230.042 323.598 230.408 324.058 230.868C324.992 231.805 325.525 233.068 325.543 234.391C325.562 235.713 325.064 236.991 324.157 237.953C323.748 238.386 323.526 238.963 323.539 239.559C323.552 240.155 323.798 240.722 324.225 241.137L324.224 241.137ZM329.998 275.792C330.01 272.942 328.892 270.205 326.888 268.178C324.885 266.152 322.16 265.003 319.31 264.983C317.905 264.981 316.513 265.26 315.217 265.803C313.92 266.346 312.746 267.143 311.761 268.146C311.344 268.571 311.11 269.142 311.11 269.738C311.11 270.334 311.344 270.905 311.761 271.33C311.967 271.539 312.212 271.705 312.483 271.819C312.753 271.932 313.043 271.99 313.337 271.99C313.63 271.99 313.92 271.932 314.191 271.819C314.462 271.705 314.707 271.539 314.913 271.33C315.487 270.746 316.173 270.281 316.929 269.965C317.685 269.648 318.497 269.484 319.317 269.484C320.137 269.484 320.949 269.648 321.705 269.965C322.461 270.281 323.147 270.746 323.722 271.33C324.891 272.518 325.546 274.119 325.546 275.785C325.546 277.452 324.891 279.052 323.722 280.241C323.147 280.825 322.461 281.29 321.705 281.606C320.949 281.923 320.137 282.087 319.317 282.087C318.497 282.087 317.685 281.923 316.929 281.606C316.173 281.29 315.487 280.825 314.913 280.241C314.707 280.032 314.462 279.866 314.191 279.752C313.921 279.639 313.63 279.581 313.337 279.581C313.044 279.581 312.754 279.639 312.483 279.752C312.213 279.866 311.967 280.032 311.762 280.241C311.344 280.666 311.11 281.237 311.11 281.833C311.11 282.429 311.344 283 311.762 283.425C312.745 284.431 313.919 285.23 315.215 285.775C316.512 286.321 317.904 286.602 319.31 286.602C322.16 286.581 324.885 285.432 326.889 283.406C328.892 281.38 330.011 278.641 329.998 275.792ZM329.998 253.156C330.01 250.637 329.022 248.217 327.251 246.426C325.481 244.635 323.072 243.619 320.554 243.602C318.02 243.602 315.59 244.609 313.798 246.4C312.006 248.192 311 250.622 311 253.156C311 255.69 312.006 258.12 313.798 259.911C315.59 261.703 318.02 262.71 320.554 262.71C323.072 262.692 325.481 261.677 327.251 259.886C329.022 258.095 330.01 255.674 329.998 253.156ZM315.565 253.156C315.577 252.172 315.879 251.213 316.434 250.4C316.989 249.587 317.772 248.956 318.684 248.587C319.597 248.218 320.598 248.128 321.562 248.326C322.526 248.525 323.41 249.005 324.102 249.705C324.794 250.405 325.263 251.294 325.451 252.26C325.639 253.226 325.537 254.227 325.158 255.135C324.778 256.043 324.139 256.819 323.32 257.365C322.5 257.91 321.538 258.202 320.554 258.201C319.895 258.198 319.243 258.064 318.636 257.809C318.029 257.553 317.478 257.18 317.014 256.712C316.551 256.243 316.185 255.688 315.936 255.078C315.688 254.468 315.562 253.815 315.565 253.156ZM326.888 204.117C328.891 206.143 330.01 208.881 329.998 211.731C330.01 214.58 328.891 217.318 326.888 219.345C324.884 221.371 322.159 222.52 319.31 222.54C317.903 222.54 316.511 222.259 315.215 221.714C313.919 221.168 312.745 220.369 311.761 219.364C311.344 218.939 311.11 218.367 311.11 217.771C311.11 217.176 311.344 216.604 311.761 216.179C311.967 215.97 312.212 215.804 312.483 215.691C312.753 215.577 313.044 215.519 313.337 215.519C313.63 215.519 313.921 215.577 314.191 215.691C314.462 215.804 314.707 215.97 314.913 216.179C315.488 216.764 316.173 217.228 316.93 217.545C317.686 217.862 318.498 218.025 319.318 218.025C320.138 218.025 320.95 217.862 321.706 217.545C322.462 217.228 323.148 216.764 323.723 216.179C324.892 214.991 325.547 213.391 325.547 211.724C325.547 210.057 324.892 208.456 323.723 207.268C323.148 206.683 322.462 206.219 321.706 205.902C320.95 205.585 320.138 205.422 319.318 205.422C318.498 205.422 317.686 205.585 316.93 205.902C316.173 206.219 315.488 206.683 314.913 207.268C314.707 207.477 314.462 207.643 314.191 207.757C313.921 207.87 313.63 207.928 313.337 207.928C313.044 207.928 312.753 207.87 312.483 207.757C312.212 207.643 311.967 207.477 311.761 207.268C311.344 206.843 311.11 206.271 311.11 205.676C311.11 205.08 311.344 204.508 311.761 204.084C312.746 203.081 313.92 202.284 315.217 201.741C316.513 201.199 317.904 200.92 319.31 200.922C322.159 200.942 324.884 202.091 326.888 204.117ZM320.566 236.713C319.337 236.72 318.334 235.717 318.327 234.474C318.321 233.23 319.312 232.216 320.542 232.209C321.771 232.202 322.774 233.205 322.781 234.449C322.788 235.693 321.796 236.707 320.566 236.713Z" fill="#C4F3F7"/>
<defs>
<linearGradient id="paint0_linear" x1="585.5" y1="508" x2="53.5155" y2="262.824" gradientUnits="userSpaceOnUse">
<stop stop-color="#00A5F0"/>
<stop offset="1" stop-color="#00D7D7" stop-opacity="0"/>
</linearGradient>
</defs>
</svg>
