<svg width="377" height="423" viewBox="0 0 377 423" fill="none" xmlns="http://www.w3.org/2000/svg">
<path fill-rule="evenodd" clip-rule="evenodd" d="M373.566 112.818C371.163 118.922 367.57 124.486 362.996 129.188V129.173C353.696 138.72 341.017 144.23 327.692 144.515C314.367 144.8 301.464 139.838 291.764 130.698C270.247 110.394 241.668 99.2686 212.086 99.6808C182.504 100.093 154.245 112.01 133.303 132.906C122.997 143.186 114.821 155.399 109.243 168.843C103.664 182.288 100.793 196.701 100.793 211.257C100.793 225.813 103.664 240.227 109.243 253.671C114.821 267.116 122.997 279.328 133.303 289.609C154.245 310.505 182.504 322.422 212.086 322.834C241.668 323.246 270.247 312.121 291.764 291.817C301.464 282.679 314.365 277.716 327.689 277.998C341.012 278.281 353.692 283.786 362.996 293.327C367.57 298.028 371.163 303.593 373.566 309.697C375.968 315.801 377.131 322.321 376.988 328.879C376.845 335.437 375.398 341.901 372.731 347.894C370.065 353.887 366.233 359.29 361.457 363.787C331.25 392.42 293.353 411.63 252.401 419.068C211.449 426.505 169.217 421.849 130.87 405.667C92.5223 389.485 59.7218 362.479 36.4796 327.952C13.2374 293.425 0.560704 252.874 0 211.257C0.560704 169.641 13.2374 129.089 36.4796 94.5627C59.7218 60.0359 92.5223 33.0302 130.87 16.8482C169.217 0.666261 211.449 -3.99057 252.401 3.44725C293.353 10.8851 331.25 30.0952 361.457 58.7282C366.233 63.2253 370.065 68.6277 372.731 74.6208C375.398 80.6139 376.845 87.0777 376.988 93.6356C377.131 100.193 375.968 106.714 373.566 112.818ZM264.009 211.077C264.161 238.593 241.723 261.023 213.893 261.177C186.063 261.331 163.379 239.15 163.227 211.635C163.075 184.12 185.512 161.689 213.342 161.535C241.172 161.381 263.856 183.562 264.009 211.077Z" fill="url(#paint0_linear)"/>
<defs>
<linearGradient id="paint0_linear" x1="-24" y1="48.9999" x2="378.395" y2="272.096" gradientUnits="userSpaceOnUse">
<stop stop-color="#00A5F0"/>
<stop offset="1" stop-color="#00D7D7" stop-opacity="0"/>
</linearGradient>
</defs>
</svg>
