<svg width="553" height="481" viewBox="0 0 553 481" fill="none" xmlns="http://www.w3.org/2000/svg">
<path d="M276.5 0.00245106C203.609 -0.304211 133.57 28.176 81.7387 79.199C29.9072 130.222 0.512875 199.624 0.000265581 272.189C-0.0501494 307.976 7.07759 343.413 20.9655 376.421C34.8533 409.429 55.2218 439.344 80.8762 464.412C91.7441 475.043 106.371 481 121.607 481C136.844 481 151.471 475.043 162.339 464.412C167.686 459.173 171.934 452.927 174.833 446.037C177.732 439.148 179.225 431.753 179.225 424.284C179.225 416.814 177.732 409.42 174.833 402.53C171.934 395.641 167.686 389.395 162.339 384.156C147.383 369.513 135.505 352.053 127.397 332.794C119.289 313.535 115.113 292.861 115.113 271.979C115.113 251.096 119.289 230.422 127.397 211.163C135.505 191.904 147.383 174.444 162.339 159.801C192.737 130.029 233.671 113.344 276.313 113.344C318.955 113.344 359.889 130.029 390.287 159.801C405.243 174.444 417.121 191.904 425.229 211.163C433.337 230.422 437.512 251.096 437.512 271.979C437.512 292.861 433.337 313.535 425.229 332.794C417.121 352.053 405.243 369.513 390.287 384.156C384.939 389.395 380.692 395.641 377.793 402.53C374.894 409.42 373.401 416.814 373.401 424.284C373.401 431.753 374.894 439.148 377.793 446.037C380.692 452.927 384.939 459.173 390.287 464.412C401.155 475.043 415.782 481 431.018 481C446.255 481 460.881 475.043 471.749 464.412C497.472 439.375 517.909 409.474 531.862 376.465C545.815 343.455 553.002 308.003 553 272.189C552.487 199.624 523.093 130.222 471.262 79.199C419.43 28.176 349.391 -0.304211 276.5 0.00245106Z" fill="url(#paint0_linear)"/>
<defs>
<linearGradient id="paint0_linear" x1="332.5" y1="205" x2="285.452" y2="450.587" gradientUnits="userSpaceOnUse">
<stop stop-color="white"/>
<stop offset="1" stop-color="white" stop-opacity="0"/>
</linearGradient>
</defs>
</svg>
