<svg width="202" height="63" viewBox="0 0 202 63" fill="none" xmlns="http://www.w3.org/2000/svg">
<rect width="202" height="62.5915" rx="11.3803" fill="#33303E"/>
<path d="M68.8289 24.3462C68.7451 24.3462 68.6738 24.321 68.6151 24.2707C68.5648 24.212 68.5396 24.1407 68.5396 24.0569V15.8432C68.5396 15.751 68.5648 15.6797 68.6151 15.6294C68.6738 15.5707 68.7451 15.5414 68.8289 15.5414H71.6842C72.9504 15.5414 73.8644 15.8265 74.4263 16.3967C74.9881 16.9585 75.2816 17.8097 75.3068 18.9501C75.3151 19.1933 75.3193 19.5203 75.3193 19.9312C75.3193 20.3421 75.3151 20.6733 75.3068 20.9249C75.2816 21.7215 75.1474 22.3714 74.9043 22.8745C74.6695 23.3693 74.2963 23.7382 73.7848 23.9814C73.2733 24.2246 72.594 24.3462 71.7471 24.3462H68.8289ZM71.6842 23.277C72.2628 23.277 72.7198 23.1974 73.0552 23.038C73.399 22.8787 73.6464 22.6272 73.7974 22.2833C73.9567 21.9312 74.0447 21.4616 74.0615 20.8746C74.0783 20.3714 74.0867 20.057 74.0867 19.9312C74.0867 19.797 74.0783 19.4868 74.0615 19.0004C74.0447 18.1702 73.8477 17.5665 73.4703 17.1891C73.093 16.8034 72.4766 16.6105 71.6213 16.6105H69.7723V23.277H71.6842ZM79.7274 24.472C78.805 24.472 78.0881 24.212 77.5766 23.6921C77.0734 23.1722 76.8051 22.4804 76.7715 21.6167L76.759 21.0758L76.7715 20.535C76.8051 19.6796 77.0776 18.992 77.5891 18.4721C78.1007 17.9438 78.8134 17.6797 79.7274 17.6797C80.6415 17.6797 81.3542 17.9438 81.8658 18.4721C82.3773 18.992 82.6498 19.6796 82.6834 20.535C82.6917 20.6272 82.6959 20.8075 82.6959 21.0758C82.6959 21.3442 82.6917 21.5245 82.6834 21.6167C82.6498 22.4804 82.3773 23.1722 81.8658 23.6921C81.3626 24.212 80.6499 24.472 79.7274 24.472ZM79.7274 23.5034C80.2557 23.5034 80.6708 23.3357 80.9727 23.0003C81.283 22.6649 81.4507 22.1827 81.4758 21.5538C81.4842 21.4699 81.4884 21.3106 81.4884 21.0758C81.4884 20.841 81.4842 20.6817 81.4758 20.5979C81.4507 19.9689 81.283 19.4868 80.9727 19.1513C80.6708 18.8159 80.2557 18.6482 79.7274 18.6482C79.1992 18.6482 78.7799 18.8159 78.4696 19.1513C78.1594 19.4868 77.9958 19.9689 77.9791 20.5979L77.9665 21.0758L77.9791 21.5538C77.9958 22.1827 78.1594 22.6649 78.4696 23.0003C78.7799 23.3357 79.1992 23.5034 79.7274 23.5034ZM85.8348 24.3462C85.7258 24.3462 85.6419 24.321 85.5832 24.2707C85.5245 24.2204 85.4742 24.1407 85.4323 24.0317L83.6462 18.1954L83.621 18.0696C83.621 17.9941 83.6462 17.9313 83.6965 17.8809C83.7552 17.8306 83.8181 17.8055 83.8852 17.8055H84.4386C84.5225 17.8055 84.5896 17.8306 84.6399 17.8809C84.6986 17.9229 84.7363 17.969 84.7531 18.0193L86.1493 22.7613L87.6461 18.0696C87.6629 18.0025 87.7006 17.9438 87.7593 17.8935C87.818 17.8348 87.8977 17.8055 87.9983 17.8055H88.4259C88.5266 17.8055 88.6062 17.8348 88.6649 17.8935C88.7236 17.9438 88.7614 18.0025 88.7781 18.0696L90.275 22.7613L91.6711 18.0193C91.6795 17.9774 91.7089 17.9313 91.7592 17.8809C91.8179 17.8306 91.8892 17.8055 91.973 17.8055H92.5391C92.6061 17.8055 92.6648 17.8306 92.7151 17.8809C92.7655 17.9313 92.7906 17.9941 92.7906 18.0696L92.7655 18.1954L90.9919 24.0317C90.95 24.1407 90.8997 24.2204 90.841 24.2707C90.7823 24.321 90.6942 24.3462 90.5768 24.3462H90.0863C89.8599 24.3462 89.7215 24.2414 89.6712 24.0317L88.2121 19.5287L86.753 24.0317C86.6859 24.2414 86.5434 24.3462 86.3254 24.3462H85.8348ZM94.4731 24.3462C94.3892 24.3462 94.3179 24.321 94.2592 24.2707C94.2089 24.212 94.1838 24.1407 94.1838 24.0569V18.0948C94.1838 18.0109 94.2089 17.9438 94.2592 17.8935C94.3179 17.8348 94.3892 17.8055 94.4731 17.8055H95.0642C95.1481 17.8055 95.2152 17.8348 95.2655 17.8935C95.3242 17.9438 95.3535 18.0109 95.3535 18.0948V18.6482C95.5967 18.3379 95.8818 18.099 96.2089 17.9312C96.5443 17.7635 96.9594 17.6797 97.4541 17.6797C98.2591 17.6797 98.8839 17.9396 99.3283 18.4595C99.7811 18.9711 100.008 19.6545 100.008 20.5098V24.0569C100.008 24.1407 99.9782 24.212 99.9195 24.2707C99.8692 24.321 99.8021 24.3462 99.7182 24.3462H99.0893C99.0055 24.3462 98.9342 24.321 98.8755 24.2707C98.8252 24.212 98.8 24.1407 98.8 24.0569V20.5727C98.8 19.9773 98.6533 19.5161 98.3598 19.1891C98.0747 18.862 97.6596 18.6985 97.1145 18.6985C96.5862 18.6985 96.1669 18.8662 95.8567 19.2017C95.5464 19.5287 95.3913 19.9857 95.3913 20.5727V24.0569C95.3913 24.1407 95.3619 24.212 95.3032 24.2707C95.2529 24.321 95.1858 24.3462 95.102 24.3462H94.4731ZM102.114 24.3462C102.03 24.3462 101.959 24.321 101.9 24.2707C101.85 24.212 101.824 24.1407 101.824 24.0569V15.7049C101.824 15.621 101.85 15.5539 101.9 15.5036C101.959 15.4449 102.03 15.4156 102.114 15.4156H102.705C102.789 15.4156 102.856 15.4449 102.906 15.5036C102.965 15.5539 102.994 15.621 102.994 15.7049V24.0569C102.994 24.1407 102.965 24.212 102.906 24.2707C102.856 24.321 102.789 24.3462 102.705 24.3462H102.114ZM107.55 24.472C106.627 24.472 105.91 24.212 105.399 23.6921C104.896 23.1722 104.627 22.4804 104.594 21.6167L104.581 21.0758L104.594 20.535C104.627 19.6796 104.9 18.992 105.411 18.4721C105.923 17.9438 106.636 17.6797 107.55 17.6797C108.464 17.6797 109.176 17.9438 109.688 18.4721C110.199 18.992 110.472 19.6796 110.506 20.535C110.514 20.6272 110.518 20.8075 110.518 21.0758C110.518 21.3442 110.514 21.5245 110.506 21.6167C110.472 22.4804 110.199 23.1722 109.688 23.6921C109.185 24.212 108.472 24.472 107.55 24.472ZM107.55 23.5034C108.078 23.5034 108.493 23.3357 108.795 23.0003C109.105 22.6649 109.273 22.1827 109.298 21.5538C109.306 21.4699 109.311 21.3106 109.311 21.0758C109.311 20.841 109.306 20.6817 109.298 20.5979C109.273 19.9689 109.105 19.4868 108.795 19.1513C108.493 18.8159 108.078 18.6482 107.55 18.6482C107.021 18.6482 106.602 18.8159 106.292 19.1513C105.982 19.4868 105.818 19.9689 105.801 20.5979L105.789 21.0758L105.801 21.5538C105.818 22.1827 105.982 22.6649 106.292 23.0003C106.602 23.3357 107.021 23.5034 107.55 23.5034ZM113.917 24.472C113.506 24.472 113.125 24.3881 112.772 24.2204C112.42 24.0527 112.139 23.8263 111.93 23.5412C111.728 23.2477 111.628 22.9248 111.628 22.5726C111.628 22.0192 111.854 21.5664 112.307 21.2142C112.768 20.8536 113.389 20.6188 114.169 20.5098L116.043 20.2457V19.8809C116.043 19.0256 115.552 18.5979 114.571 18.5979C114.202 18.5979 113.9 18.6776 113.665 18.8369C113.431 18.9878 113.255 19.1681 113.137 19.3778C113.112 19.4532 113.078 19.5077 113.036 19.5413C113.003 19.5748 112.953 19.5916 112.886 19.5916H112.345C112.269 19.5916 112.202 19.5664 112.143 19.5161C112.093 19.4574 112.068 19.3903 112.068 19.3149C112.076 19.1136 112.169 18.8872 112.345 18.6356C112.529 18.3757 112.81 18.1535 113.187 17.969C113.565 17.7761 114.03 17.6797 114.584 17.6797C115.523 17.6797 116.198 17.9019 116.609 18.3463C117.02 18.7824 117.225 19.3274 117.225 19.9815V24.0569C117.225 24.1407 117.196 24.212 117.137 24.2707C117.087 24.321 117.02 24.3462 116.936 24.3462H116.357C116.273 24.3462 116.202 24.321 116.143 24.2707C116.093 24.212 116.068 24.1407 116.068 24.0569V23.516C115.883 23.7844 115.615 24.0108 115.263 24.1953C114.911 24.3797 114.462 24.472 113.917 24.472ZM114.181 23.5286C114.726 23.5286 115.171 23.3525 115.514 23.0003C115.867 22.6397 116.043 22.124 116.043 21.4532V21.101L114.584 21.3148C113.988 21.3987 113.54 21.5412 113.238 21.7425C112.936 21.9353 112.785 22.1827 112.785 22.4846C112.785 22.82 112.923 23.08 113.2 23.2645C113.477 23.4406 113.804 23.5286 114.181 23.5286ZM121.423 24.472C120.551 24.472 119.893 24.1869 119.448 23.6166C119.004 23.0464 118.769 22.3253 118.744 21.4532L118.731 21.0758L118.744 20.6985C118.769 19.8348 119.004 19.1178 119.448 18.5476C119.893 17.969 120.551 17.6797 121.423 17.6797C122.287 17.6797 122.966 17.9858 123.461 18.5979V15.7049C123.461 15.621 123.486 15.5539 123.536 15.5036C123.595 15.4449 123.666 15.4156 123.75 15.4156H124.354C124.438 15.4156 124.505 15.4449 124.555 15.5036C124.614 15.5539 124.643 15.621 124.643 15.7049V24.0569C124.643 24.1407 124.614 24.212 124.555 24.2707C124.505 24.321 124.438 24.3462 124.354 24.3462H123.788C123.704 24.3462 123.633 24.321 123.574 24.2707C123.524 24.212 123.499 24.1407 123.499 24.0569V23.5286C123.012 24.1575 122.32 24.472 121.423 24.472ZM121.687 23.4531C122.266 23.4531 122.698 23.2645 122.983 22.8871C123.276 22.5014 123.436 22.0444 123.461 21.5161C123.469 21.4238 123.473 21.2645 123.473 21.0381C123.473 20.8033 123.469 20.6398 123.461 20.5475C123.444 20.0528 123.285 19.6209 122.983 19.252C122.681 18.883 122.249 18.6985 121.687 18.6985C121.092 18.6985 120.656 18.883 120.379 19.252C120.111 19.6209 119.964 20.1073 119.939 20.7111L119.926 21.0758C119.926 22.6607 120.513 23.4531 121.687 23.4531ZM131.542 24.3462C131.324 24.3462 131.169 24.2414 131.077 24.0317L128.75 18.1954L128.725 18.0696C128.725 17.9941 128.75 17.9313 128.8 17.8809C128.85 17.8306 128.913 17.8055 128.989 17.8055H129.593C129.735 17.8055 129.84 17.8767 129.907 18.0193L131.819 22.9752L133.731 18.0193C133.806 17.8767 133.907 17.8055 134.033 17.8055H134.649C134.716 17.8055 134.775 17.8306 134.825 17.8809C134.884 17.9313 134.913 17.9941 134.913 18.0696L134.888 18.1954L132.548 24.0317C132.456 24.2414 132.301 24.3462 132.083 24.3462H131.542ZM136.419 16.5854C136.335 16.5854 136.264 16.5602 136.205 16.5099C136.155 16.4512 136.13 16.3799 136.13 16.2961V15.6168C136.13 15.533 136.155 15.4617 136.205 15.403C136.264 15.3443 136.335 15.315 136.419 15.315H137.211C137.295 15.315 137.366 15.3443 137.425 15.403C137.484 15.4617 137.513 15.533 137.513 15.6168V16.2961C137.513 16.3799 137.484 16.4512 137.425 16.5099C137.366 16.5602 137.295 16.5854 137.211 16.5854H136.419ZM136.52 24.3462C136.436 24.3462 136.364 24.321 136.306 24.2707C136.255 24.212 136.23 24.1407 136.23 24.0569V18.0948C136.23 18.0109 136.255 17.9438 136.306 17.8935C136.364 17.8348 136.436 17.8055 136.52 17.8055H137.123C137.207 17.8055 137.274 17.8348 137.325 17.8935C137.383 17.9438 137.413 18.0109 137.413 18.0948V24.0569C137.413 24.1407 137.383 24.212 137.325 24.2707C137.274 24.321 137.207 24.3462 137.123 24.3462H136.52ZM141.1 24.472C140.69 24.472 140.308 24.3881 139.956 24.2204C139.604 24.0527 139.323 23.8263 139.113 23.5412C138.912 23.2477 138.811 22.9248 138.811 22.5726C138.811 22.0192 139.038 21.5664 139.49 21.2142C139.952 20.8536 140.572 20.6188 141.352 20.5098L143.226 20.2457V19.8809C143.226 19.0256 142.736 18.5979 141.754 18.5979C141.386 18.5979 141.084 18.6776 140.849 18.8369C140.614 18.9878 140.438 19.1681 140.321 19.3778C140.295 19.4532 140.262 19.5077 140.22 19.5413C140.186 19.5748 140.136 19.5916 140.069 19.5916H139.528C139.453 19.5916 139.386 19.5664 139.327 19.5161C139.277 19.4574 139.251 19.3903 139.251 19.3149C139.26 19.1136 139.352 18.8872 139.528 18.6356C139.713 18.3757 139.994 18.1535 140.371 17.969C140.748 17.7761 141.214 17.6797 141.767 17.6797C142.706 17.6797 143.381 17.9019 143.792 18.3463C144.203 18.7824 144.408 19.3274 144.408 19.9815V24.0569C144.408 24.1407 144.379 24.212 144.32 24.2707C144.27 24.321 144.203 24.3462 144.119 24.3462H143.541C143.457 24.3462 143.385 24.321 143.327 24.2707C143.276 24.212 143.251 24.1407 143.251 24.0569V23.516C143.067 23.7844 142.798 24.0108 142.446 24.1953C142.094 24.3797 141.645 24.472 141.1 24.472ZM141.365 23.5286C141.91 23.5286 142.354 23.3525 142.698 23.0003C143.05 22.6397 143.226 22.124 143.226 21.4532V21.101L141.767 21.3148C141.172 21.3987 140.723 21.5412 140.421 21.7425C140.119 21.9353 139.968 22.1827 139.968 22.4846C139.968 22.82 140.107 23.08 140.383 23.2645C140.66 23.4406 140.987 23.5286 141.365 23.5286Z" fill="white"/>
<path d="M73.4661 45.2851C71.8561 45.2851 70.5983 44.8938 69.6926 44.1112C68.787 43.3173 68.3062 42.1937 68.2503 40.7402C68.2391 40.4159 68.2336 39.9016 68.2336 39.1972C68.2336 38.4929 68.2391 37.9785 68.2503 37.6543C68.3062 36.2343 68.7926 35.1386 69.7094 34.3672C70.6374 33.5957 71.8897 33.21 73.4661 33.21C74.5283 33.21 75.4507 33.3833 76.2334 33.7299C77.0272 34.0765 77.631 34.5181 78.0446 35.0548C78.4695 35.5915 78.6931 36.1449 78.7155 36.7151C78.7155 36.8157 78.6764 36.8996 78.5981 36.9667C78.531 37.0338 78.4471 37.0673 78.3465 37.0673H75.8979C75.7861 37.0673 75.6967 37.0505 75.6296 37.017C75.5625 36.9835 75.5066 36.922 75.4619 36.8325C75.3165 36.5083 75.0873 36.2288 74.7743 35.994C74.4612 35.748 74.0252 35.625 73.4661 35.625C72.1356 35.625 71.4368 36.3294 71.3697 37.7382C71.3586 38.0512 71.353 38.5376 71.353 39.1972C71.353 39.8457 71.3586 40.3321 71.3697 40.6563C71.4368 42.1322 72.1524 42.8701 73.5164 42.8701C74.1761 42.8701 74.7016 42.7024 75.0929 42.367C75.4954 42.0204 75.6967 41.4949 75.6967 40.7905V40.4718H74.1202C73.9972 40.4718 73.8966 40.4327 73.8183 40.3544C73.7401 40.265 73.7009 40.1588 73.7009 40.0358V38.7947C73.7009 38.6717 73.7401 38.5711 73.8183 38.4929C73.8966 38.4034 73.9972 38.3587 74.1202 38.3587H78.3465C78.4695 38.3587 78.5701 38.4034 78.6484 38.4929C78.7267 38.5711 78.7658 38.6717 78.7658 38.7947V40.7066C78.7658 41.657 78.5478 42.4788 78.1117 43.172C77.6757 43.854 77.0551 44.3795 76.2501 44.7485C75.4563 45.1063 74.5283 45.2851 73.4661 45.2851ZM84.6311 45.2851C83.2447 45.2851 82.1769 44.9553 81.4278 44.2956C80.6787 43.636 80.2706 42.708 80.2035 41.5116C80.1923 41.3663 80.1868 41.1147 80.1868 40.7569C80.1868 40.3992 80.1923 40.1476 80.2035 40.0022C80.2706 38.8171 80.6899 37.8947 81.4614 37.235C82.2328 36.5642 83.2894 36.2288 84.6311 36.2288C85.984 36.2288 87.0461 36.5642 87.8176 37.235C88.5891 37.8947 89.0083 38.8171 89.0754 40.0022C89.0866 40.1476 89.0922 40.3992 89.0922 40.7569C89.0922 41.1147 89.0866 41.3663 89.0754 41.5116C89.0083 42.708 88.6003 43.636 87.8511 44.2956C87.102 44.9553 86.0287 45.2851 84.6311 45.2851ZM84.6311 43.2391C85.123 43.2391 85.4864 43.0937 85.7212 42.803C85.956 42.5011 86.0902 42.0427 86.1237 41.4278C86.1349 41.316 86.1405 41.0924 86.1405 40.7569C86.1405 40.4215 86.1349 40.1979 86.1237 40.0861C86.0902 39.4823 85.9504 39.0295 85.7044 38.7276C85.4696 38.4258 85.1119 38.2748 84.6311 38.2748C83.7031 38.2748 83.2111 38.8786 83.1552 40.0861L83.1385 40.7569L83.1552 41.4278C83.1776 42.0427 83.3062 42.5011 83.541 42.803C83.7869 43.0937 84.1503 43.2391 84.6311 43.2391ZM94.8837 45.2851C93.4973 45.2851 92.4296 44.9553 91.6805 44.2956C90.9313 43.636 90.5232 42.708 90.4562 41.5116C90.445 41.3663 90.4394 41.1147 90.4394 40.7569C90.4394 40.3992 90.445 40.1476 90.4562 40.0022C90.5232 38.8171 90.9425 37.8947 91.714 37.235C92.4855 36.5642 93.542 36.2288 94.8837 36.2288C96.2366 36.2288 97.2988 36.5642 98.0702 37.235C98.8417 37.8947 99.261 38.8171 99.3281 40.0022C99.3393 40.1476 99.3448 40.3992 99.3448 40.7569C99.3448 41.1147 99.3393 41.3663 99.3281 41.5116C99.261 42.708 98.8529 43.636 98.1038 44.2956C97.3547 44.9553 96.2813 45.2851 94.8837 45.2851ZM94.8837 43.2391C95.3757 43.2391 95.7391 43.0937 95.9739 42.803C96.2086 42.5011 96.3428 42.0427 96.3764 41.4278C96.3875 41.316 96.3931 41.0924 96.3931 40.7569C96.3931 40.4215 96.3875 40.1979 96.3764 40.0861C96.3428 39.4823 96.2031 39.0295 95.9571 38.7276C95.7223 38.4258 95.3645 38.2748 94.8837 38.2748C93.9557 38.2748 93.4638 38.8786 93.4079 40.0861L93.3911 40.7569L93.4079 41.4278C93.4302 42.0427 93.5588 42.5011 93.7936 42.803C94.0396 43.0937 94.403 43.2391 94.8837 43.2391ZM105.287 48.8071C104.225 48.8071 103.364 48.6338 102.705 48.2872C102.045 47.9406 101.57 47.5436 101.279 47.0964C101 46.6492 100.86 46.2746 100.86 45.9728C100.86 45.8721 100.904 45.7827 100.994 45.7044C101.083 45.6262 101.184 45.587 101.296 45.587H103.426C103.538 45.587 103.621 45.6094 103.677 45.6541C103.744 45.71 103.806 45.7995 103.862 45.9224C103.974 46.1796 104.125 46.3809 104.315 46.5262C104.505 46.6827 104.801 46.761 105.203 46.761C105.718 46.761 106.098 46.6324 106.344 46.3753C106.59 46.1293 106.713 45.71 106.713 45.1174V43.9938C106.143 44.6199 105.326 44.9329 104.264 44.9329C103.135 44.9329 102.269 44.6031 101.665 43.9435C101.072 43.2726 100.748 42.3055 100.692 41.0421L100.675 40.5892C100.675 39.2364 100.977 38.1742 101.581 37.4027C102.185 36.6201 103.079 36.2288 104.264 36.2288C104.834 36.2288 105.338 36.3406 105.774 36.5642C106.21 36.7766 106.579 37.0673 106.881 37.4363V36.8157C106.881 36.6928 106.92 36.5921 106.998 36.5139C107.087 36.4356 107.188 36.3965 107.3 36.3965H109.229C109.352 36.3965 109.452 36.4412 109.53 36.5306C109.62 36.6089 109.665 36.7039 109.665 36.8157V44.8826C109.665 46.1572 109.284 47.13 108.524 47.8008C107.764 48.4716 106.685 48.8071 105.287 48.8071ZM105.17 42.7527C105.673 42.7527 106.048 42.6018 106.294 42.2999C106.54 41.9868 106.679 41.5955 106.713 41.1259C106.724 41.0476 106.73 40.8743 106.73 40.606C106.73 40.3489 106.724 40.1811 106.713 40.1029C106.69 39.6333 106.551 39.2475 106.294 38.9457C106.048 38.6326 105.673 38.4761 105.17 38.4761C104.644 38.4761 104.264 38.6326 104.029 38.9457C103.795 39.2587 103.666 39.6892 103.644 40.237L103.627 40.606C103.627 41.2657 103.739 41.7912 103.962 42.1825C104.186 42.5626 104.589 42.7527 105.17 42.7527ZM112.059 45.1174C111.947 45.1174 111.847 45.0783 111.757 45C111.679 44.9106 111.64 44.81 111.64 44.6982V33.6292C111.64 33.5062 111.679 33.4056 111.757 33.3274C111.847 33.2491 111.947 33.21 112.059 33.21H114.038C114.161 33.21 114.262 33.2491 114.34 33.3274C114.418 33.4056 114.458 33.5062 114.458 33.6292V44.6982C114.458 44.8211 114.418 44.9218 114.34 45C114.262 45.0783 114.161 45.1174 114.038 45.1174H112.059ZM120.464 45.2851C119.122 45.2851 118.066 44.9218 117.294 44.195C116.523 43.4683 116.12 42.4117 116.087 41.0253V40.4383C116.131 39.119 116.539 38.0903 117.311 37.3524C118.094 36.6033 119.139 36.2288 120.447 36.2288C121.397 36.2288 122.197 36.4244 122.845 36.8157C123.505 37.1959 123.997 37.7214 124.321 38.3922C124.657 39.0631 124.824 39.8345 124.824 40.7066V41.1091C124.824 41.2209 124.785 41.3216 124.707 41.411C124.629 41.4893 124.528 41.5284 124.405 41.5284H119.038V41.6458C119.061 42.1713 119.189 42.5962 119.424 42.9204C119.659 43.2447 120 43.4068 120.447 43.4068C120.727 43.4068 120.956 43.3509 121.135 43.2391C121.314 43.1161 121.476 42.9707 121.621 42.803C121.722 42.68 121.8 42.6074 121.856 42.585C121.923 42.5515 122.024 42.5347 122.158 42.5347H124.237C124.338 42.5347 124.422 42.5682 124.489 42.6353C124.567 42.6912 124.606 42.7695 124.606 42.8701C124.606 43.1608 124.439 43.4962 124.103 43.8764C123.779 44.2565 123.304 44.5863 122.678 44.8659C122.051 45.1454 121.314 45.2851 120.464 45.2851ZM121.873 39.8681V39.8345C121.873 39.2867 121.744 38.8562 121.487 38.5432C121.241 38.2189 120.894 38.0568 120.447 38.0568C120.011 38.0568 119.664 38.2189 119.407 38.5432C119.161 38.8562 119.038 39.2867 119.038 39.8345V39.8681H121.873ZM130.571 45.1174C130.459 45.1174 130.358 45.0783 130.269 45C130.191 44.9106 130.152 44.81 130.152 44.6982V33.7969C130.152 33.674 130.191 33.5733 130.269 33.4951C130.358 33.4168 130.459 33.3777 130.571 33.3777H135.267C136.698 33.3777 137.821 33.7075 138.638 34.3672C139.465 35.0268 139.879 35.9884 139.879 37.2518C139.879 38.504 139.471 39.4488 138.654 40.0861C137.838 40.7122 136.709 41.0253 135.267 41.0253H133.271V44.6982C133.271 44.8211 133.226 44.9218 133.137 45C133.058 45.0783 132.958 45.1174 132.835 45.1174H130.571ZM135.183 38.7109C135.675 38.7109 136.061 38.5879 136.34 38.3419C136.62 38.0848 136.759 37.7102 136.759 37.2182C136.759 36.7598 136.625 36.3965 136.357 36.1281C136.1 35.8486 135.708 35.7088 135.183 35.7088H133.221V38.7109H135.183ZM141.72 45.1174C141.608 45.1174 141.507 45.0783 141.418 45C141.34 44.9106 141.301 44.81 141.301 44.6982V33.6292C141.301 33.5062 141.34 33.4056 141.418 33.3274C141.507 33.2491 141.608 33.21 141.72 33.21H143.699C143.822 33.21 143.922 33.2491 144.001 33.3274C144.079 33.4056 144.118 33.5062 144.118 33.6292V44.6982C144.118 44.8211 144.079 44.9218 144.001 45C143.922 45.0783 143.822 45.1174 143.699 45.1174H141.72ZM148.716 45.2851C148.123 45.2851 147.581 45.1733 147.089 44.9497C146.608 44.7149 146.228 44.4019 145.948 44.0105C145.68 43.608 145.546 43.1664 145.546 42.6856C145.546 41.9142 145.859 41.2936 146.485 40.824C147.122 40.3544 147.994 40.0302 149.101 39.8513L151.198 39.5327V39.2979C151.198 38.873 151.108 38.5599 150.929 38.3587C150.751 38.1574 150.449 38.0568 150.024 38.0568C149.767 38.0568 149.554 38.1015 149.386 38.191C149.219 38.2804 149.045 38.4034 148.867 38.5599C148.71 38.6941 148.593 38.7835 148.514 38.8283C148.481 38.9177 148.419 38.9624 148.33 38.9624H146.502C146.39 38.9624 146.295 38.9289 146.217 38.8618C146.15 38.7835 146.122 38.6941 146.133 38.5935C146.144 38.2916 146.289 37.9562 146.569 37.5872C146.86 37.2182 147.296 36.8996 147.877 36.6313C148.47 36.3629 149.196 36.2288 150.057 36.2288C151.433 36.2288 152.45 36.5362 153.11 37.1512C153.769 37.7549 154.099 38.5711 154.099 39.5997V44.6982C154.099 44.81 154.06 44.9106 153.982 45C153.904 45.0783 153.803 45.1174 153.68 45.1174H151.734C151.623 45.1174 151.522 45.0783 151.433 45C151.354 44.9106 151.315 44.81 151.315 44.6982V44.1112C151.069 44.4578 150.723 44.7429 150.275 44.9665C149.839 45.1789 149.319 45.2851 148.716 45.2851ZM149.504 43.3732C150.018 43.3732 150.432 43.2055 150.745 42.8701C151.069 42.5347 151.231 42.0427 151.231 41.3942V41.1595L149.806 41.411C148.8 41.5899 148.296 41.9421 148.296 42.4676C148.296 42.7471 148.414 42.9707 148.649 43.1384C148.883 43.295 149.168 43.3732 149.504 43.3732ZM157.34 48.3039C157.239 48.3039 157.156 48.2704 157.088 48.2033C157.021 48.1362 156.988 48.0524 156.988 47.9517C156.988 47.8735 157.005 47.8008 157.038 47.7337L158.346 44.5808L155.126 36.9667C155.093 36.8772 155.076 36.8102 155.076 36.7654C155.098 36.6648 155.143 36.5809 155.21 36.5139C155.277 36.4356 155.361 36.3965 155.462 36.3965H157.374C157.608 36.3965 157.771 36.5139 157.86 36.7487L159.772 41.629L161.734 36.7487C161.846 36.5139 162.014 36.3965 162.237 36.3965H164.116C164.216 36.3965 164.3 36.4356 164.367 36.5139C164.445 36.5809 164.485 36.6592 164.485 36.7487C164.485 36.7934 164.468 36.8661 164.434 36.9667L159.688 47.9517C159.599 48.1865 159.431 48.3039 159.185 48.3039H157.34Z" fill="white"/>
<path d="M46.2742 29.1019L35.6301 18.2263L49.1725 26.1485L46.2742 29.1019ZM32.853 17.587C32.2256 17.9212 31.8066 18.5306 31.8066 19.3217V41.0091C31.8066 41.8001 32.2264 42.4095 32.853 42.7437L45.2286 30.1626L32.853 17.587ZM53.3587 28.6741L50.5183 26.9985L47.3499 30.1681L50.5183 33.3378L53.4166 31.6621C54.2847 30.9599 54.2847 29.3771 53.3587 28.6741ZM35.6309 42.1107L49.1733 34.1885L46.275 31.2351L35.6309 42.1107Z" fill="white"/>
</svg>
