<svg width="18" height="14" viewBox="0 0 18 14" fill="none" xmlns="http://www.w3.org/2000/svg">
<path d="M17.2328 1.66303C16.5991 1.9364 15.9095 2.13314 15.1991 2.20977C15.9366 1.77162 16.4889 1.07942 16.7524 0.263026C16.0603 0.674719 15.3021 0.963406 14.5115 1.11628C14.1811 0.763021 13.7814 0.4816 13.3375 0.28955C12.8935 0.0975012 12.4148 -0.00105991 11.9311 8.5955e-06C9.97396 8.5955e-06 8.39999 1.5864 8.39999 3.53314C8.39999 3.80651 8.43313 4.07989 8.48698 4.34291C5.55651 4.18965 2.9429 2.78965 1.20532 0.646162C0.88872 1.18693 0.722809 1.80266 0.724851 2.4293C0.724851 3.65533 1.34822 4.7364 2.29881 5.37219C1.73862 5.35013 1.19154 5.19616 0.702071 4.92279V4.96628C0.702071 6.68314 1.91568 8.10592 3.53313 8.43314C3.22944 8.51202 2.91702 8.55238 2.60325 8.55326C2.37337 8.55326 2.15592 8.53048 1.93639 8.49941C2.38373 9.89941 3.68639 10.9163 5.23757 10.9494C4.02396 11.9 2.50384 12.4592 0.853254 12.4592C0.5571 12.4592 0.283728 12.4488 0 12.4157C1.56568 13.4201 3.42337 14 5.42396 14C11.9186 14 15.4725 8.61953 15.4725 3.94941C15.4725 3.79616 15.4725 3.64291 15.4621 3.48965C16.1497 2.9864 16.7524 2.36302 17.2328 1.66303Z" fill="#00A5F0"/>
</svg>
