<svg width="61" height="61" viewBox="0 0 61 61" fill="none" xmlns="http://www.w3.org/2000/svg">
<rect width="61" height="61" rx="8" fill="#00D7D7"/>
<rect opacity="0.45" width="29.2598" height="21.7359" rx="3" transform="matrix(0.866044 0.499967 -0.866044 0.499967 26.8242 20.5038)" fill="url(#paint0_linear)"/>
<rect width="29.2598" height="21.7359" rx="3" transform="matrix(0.866044 0.499967 -0.866044 0.499967 26.8242 15)" fill="white"/>
<path d="M30.9382 21.4088C30.0611 20.8982 28.8686 20.6094 27.6221 20.6059C26.3756 20.6024 25.1768 20.8844 24.2886 21.39C23.8529 21.6408 23.5083 21.9392 23.2749 22.2677C23.0415 22.5962 22.924 22.9482 22.9292 23.3031C22.9313 23.4535 23.0357 23.5974 23.2198 23.7036C23.4039 23.8099 23.653 23.8702 23.9136 23.8714C24.0419 23.8719 24.1691 23.8577 24.2879 23.8296C24.4067 23.8015 24.5146 23.76 24.6054 23.7076C24.6962 23.6551 24.768 23.5928 24.8168 23.5243C24.8655 23.4557 24.8901 23.3822 24.8891 23.3082C24.8864 23.1011 24.9551 22.8957 25.0913 22.704C25.2274 22.5123 25.4282 22.3381 25.6821 22.1916C25.9359 22.045 26.2377 21.9291 26.5697 21.8505C26.9018 21.7719 27.2576 21.7322 27.6163 21.7338C28.3455 21.7369 29.0429 21.9054 29.5582 22.2028C30.0734 22.5003 30.3652 22.9029 30.3707 23.3239C30.3734 23.531 30.3047 23.7363 30.1685 23.9281C30.0324 24.1198 29.8316 24.294 29.5777 24.4405C29.3239 24.5871 29.0221 24.703 28.69 24.7816C28.358 24.8602 28.0022 24.8998 27.6435 24.8983C27.5152 24.8977 27.388 24.9119 27.2692 24.9401C27.1504 24.9682 27.0425 25.0097 26.9517 25.0621C26.8609 25.1145 26.789 25.1768 26.7403 25.2454C26.6916 25.3139 26.667 25.3874 26.668 25.4615C26.67 25.6119 26.7744 25.7557 26.9585 25.862C27.1426 25.9683 27.3917 26.0285 27.6523 26.0297C28.2674 26.0335 28.8778 25.9662 29.4477 25.8319C30.0175 25.6976 30.5353 25.4989 30.9706 25.2476C31.8465 24.7348 32.3349 24.0427 32.3289 23.3231C32.3228 22.6035 31.8227 21.9151 30.9382 21.4088Z" fill="#00D7D7"/>
<defs>
<linearGradient id="paint0_linear" x1="33.3636" y1="14.5319" x2="17.7895" y2="34.5054" gradientUnits="userSpaceOnUse">
<stop stop-color="white"/>
<stop offset="1" stop-color="white" stop-opacity="0"/>
</linearGradient>
</defs>
</svg>
