<svg width="65" height="65" viewBox="0 0 65 65" fill="none" xmlns="http://www.w3.org/2000/svg">
<rect width="65" height="65" rx="8" fill="url(#paint0_linear)"/>
<path d="M32.4998 19.1178C28.1656 19.1003 24.0009 20.7303 20.9189 23.6505C17.8369 26.5708 16.0891 30.5429 16.0586 34.6961C16.0556 36.7443 16.4794 38.7725 17.3052 40.6616C18.131 42.5508 19.3422 44.263 20.8676 45.6977C21.5139 46.3061 22.3836 46.6471 23.2896 46.6471C24.1956 46.6471 25.0653 46.3061 25.7115 45.6977C26.0295 45.3978 26.2821 45.0403 26.4544 44.646C26.6268 44.2517 26.7156 43.8285 26.7156 43.401C26.7156 42.9735 26.6268 42.5503 26.4544 42.156C26.2821 41.7617 26.0295 41.4042 25.7115 41.1043C24.8222 40.2663 24.116 39.267 23.6338 38.1647C23.1517 37.0624 22.9034 35.8792 22.9034 34.684C22.9034 33.4888 23.1517 32.3056 23.6338 31.2033C24.116 30.101 24.8222 29.1017 25.7115 28.2637C27.5191 26.5597 29.9531 25.6048 32.4886 25.6048C35.0242 25.6048 37.4582 26.5597 39.2657 28.2637C40.155 29.1017 40.8613 30.101 41.3434 31.2033C41.8256 32.3056 42.0739 33.4888 42.0739 34.684C42.0739 35.8792 41.8256 37.0624 41.3434 38.1647C40.8613 39.267 40.155 40.2663 39.2657 41.1043C38.9478 41.4042 38.6952 41.7617 38.5228 42.156C38.3505 42.5503 38.2617 42.9735 38.2617 43.401C38.2617 43.8285 38.3505 44.2517 38.5228 44.646C38.6952 45.0403 38.9478 45.3978 39.2657 45.6977C39.912 46.3061 40.7817 46.6471 41.6877 46.6471C42.5937 46.6471 43.4634 46.3061 44.1096 45.6977C45.6391 44.2648 46.8544 42.5534 47.684 40.6641C48.5137 38.7749 48.941 36.7458 48.9409 34.6961C48.9105 30.5429 47.1626 26.5708 44.0806 23.6505C40.9986 20.7303 36.834 19.1003 32.4998 19.1178Z" fill="white"/>
<defs>
<linearGradient id="paint0_linear" x1="0.654511" y1="19.8171" x2="67.804" y2="32.2909" gradientUnits="userSpaceOnUse">
<stop stop-color="#00A5F0"/>
<stop offset="1" stop-color="#00D7D7"/>
</linearGradient>
</defs>
</svg>
