<svg width="17" height="16" viewBox="0 0 17 16" fill="none" xmlns="http://www.w3.org/2000/svg">
<path d="M8.13135 0C5.95658 0 5.68554 0.0105013 4.83444 0.0465058C3.97983 0.0885111 3.40176 0.221028 2.89169 0.419052C2.35786 0.620588 1.8744 0.936125 1.47502 1.34367C1.06634 1.74212 0.750623 2.22584 0.5504 2.76035C0.352375 3.27041 0.219859 3.84848 0.177853 4.70309C0.139349 5.55469 0.131348 5.82523 0.131348 8C0.131348 10.1748 0.141849 10.4458 0.177853 11.2969C0.219859 12.149 0.352375 12.7296 0.5504 13.2397C0.751935 13.7735 1.06747 14.257 1.47502 14.6563C1.87346 15.065 2.35719 15.3807 2.89169 15.5809C3.40176 15.7765 3.98233 15.9115 4.83444 15.9535C5.68604 15.992 5.95658 16 8.13135 16C10.3061 16 10.5772 15.9895 11.4283 15.9535C12.2804 15.9115 12.8609 15.776 13.371 15.5809C13.9048 15.3794 14.3883 15.0639 14.7877 14.6563C15.1969 14.2583 15.5127 13.7745 15.7123 13.2397C15.9078 12.7296 16.0428 12.149 16.0848 11.2969C16.1233 10.4453 16.1313 10.1748 16.1313 8C16.1313 5.82523 16.1208 5.55419 16.0848 4.70309C16.0428 3.85098 15.9073 3.26741 15.7123 2.76035C15.5108 2.22651 15.1952 1.74305 14.7877 1.34367C14.3897 0.934462 13.9058 0.618667 13.371 0.419052C12.8609 0.221028 12.2804 0.0885111 11.4283 0.0465058C10.5767 0.008001 10.3061 0 8.13135 0ZM8.13135 1.44018C10.2671 1.44018 10.5221 1.45068 11.3663 1.48669C12.1448 1.52319 12.5689 1.65321 12.8504 1.76322C13.1985 1.8917 13.5135 2.09619 13.7726 2.3618C14.0377 2.61974 14.2414 2.93404 14.3686 3.28141C14.4786 3.56295 14.6087 3.987 14.6452 4.7656C14.6812 5.6097 14.6917 5.86523 14.6917 8.0005C14.6917 10.1358 14.6812 10.3913 14.6422 11.2354C14.6002 12.014 14.4701 12.4381 14.3606 12.7196C14.2091 13.0951 14.0401 13.3577 13.7611 13.6417C13.5011 13.9056 13.1863 14.1092 12.8389 14.2378C12.5609 14.3478 12.1308 14.4778 11.3492 14.5143C10.5006 14.5503 10.2506 14.5608 8.10935 14.5608C5.96808 14.5608 5.71855 14.5503 4.86894 14.5113C4.09034 14.4693 3.66079 14.3393 3.37925 14.2298C2.99921 14.0783 2.73867 13.9092 2.45964 13.6302C2.1781 13.3487 1.99908 13.0806 1.86106 12.7081C1.74905 12.4301 1.62103 12 1.57953 11.2184C1.55103 10.3798 1.53752 10.1198 1.53752 7.9885C1.53752 5.85823 1.55103 5.5977 1.57953 4.74859C1.62103 3.967 1.74905 3.53794 1.86106 3.25891C1.99908 2.87836 2.1786 2.61833 2.45964 2.33679C2.73817 2.05826 2.99921 1.87823 3.37925 1.73722C3.66079 1.6277 4.07984 1.49769 4.86144 1.45868C5.71005 1.42818 5.96008 1.41718 8.09834 1.41718L8.13135 1.44018ZM8.13135 3.89399C7.59195 3.89379 7.0578 3.99989 6.55943 4.20621C6.06105 4.41254 5.60822 4.71505 5.22681 5.09646C4.8454 5.47787 4.54289 5.93071 4.33656 6.42908C4.13023 6.92746 4.02414 7.4616 4.02433 8.001C4.02414 8.5404 4.13023 9.07454 4.33656 9.57292C4.54289 10.0713 4.8454 10.5241 5.22681 10.9055C5.60822 11.2869 6.06105 11.5895 6.55943 11.7958C7.0578 12.0021 7.59195 12.1082 8.13135 12.108C8.67074 12.1082 9.20489 12.0021 9.70327 11.7958C10.2016 11.5895 10.6545 11.2869 11.0359 10.9055C11.4173 10.5241 11.7198 10.0713 11.9261 9.57292C12.1325 9.07454 12.2386 8.5404 12.2384 8.001C12.2386 7.4616 12.1325 6.92746 11.9261 6.42908C11.7198 5.93071 11.4173 5.47787 11.0359 5.09646C10.6545 4.71505 10.2016 4.41254 9.70327 4.20621C9.20489 3.99989 8.67074 3.89379 8.13135 3.89399ZM8.13135 10.6678C6.65716 10.6678 5.46451 9.47518 5.46451 8.001C5.46451 6.52682 6.65716 5.33417 8.13135 5.33417C9.60553 5.33417 10.7982 6.52682 10.7982 8.001C10.7982 9.47518 9.60553 10.6678 8.13135 10.6678ZM13.364 3.72997C13.3637 3.98483 13.2623 4.22917 13.082 4.40929C12.9017 4.58941 12.6572 4.69059 12.4024 4.69059C12.2764 4.69059 12.1516 4.66577 12.0352 4.61754C11.9187 4.56931 11.8129 4.49863 11.7238 4.40952C11.6347 4.32041 11.564 4.21462 11.5158 4.0982C11.4676 3.98177 11.4428 3.85699 11.4428 3.73097C11.4428 3.60495 11.4676 3.48016 11.5158 3.36374C11.564 3.24731 11.6347 3.14152 11.7238 3.05241C11.8129 2.9633 11.9187 2.89262 12.0352 2.84439C12.1516 2.79617 12.2764 2.77135 12.4024 2.77135C12.9309 2.77135 13.364 3.2014 13.364 3.72997Z" fill="white"/>
</svg>
