<svg width="132" height="30" viewBox="0 0 132 30" fill="none" xmlns="http://www.w3.org/2000/svg">
<path fill-rule="evenodd" clip-rule="evenodd" d="M61.7884 8.87425C62.1026 8.5513 62.3495 8.16906 62.5145 7.74977C62.6795 7.33049 62.7594 6.88256 62.7496 6.43208C62.7397 5.9816 62.6403 5.53758 62.4572 5.1259C62.274 4.71422 62.0108 4.34311 61.6827 4.0342C59.6078 2.06732 57.0047 0.747725 54.1917 0.236801C51.3787 -0.274123 48.4777 0.0457673 45.8437 1.15735C43.2096 2.26893 40.9565 4.12403 39.36 6.49576C37.7635 8.8675 36.8927 11.6531 36.8542 14.5118C36.8927 17.3706 37.7635 20.1562 39.36 22.5279C40.9565 24.8996 43.2096 26.7547 45.8437 27.8663C48.4777 28.9779 51.3787 29.2978 54.1917 28.7869C57.0047 28.2759 59.6078 26.9564 61.6827 24.9895C62.0108 24.6806 62.274 24.3094 62.4572 23.8978C62.6403 23.4861 62.7397 23.0421 62.7496 22.5916C62.7594 22.1411 62.6795 21.6932 62.5145 21.2739C62.3495 20.8546 62.1026 20.4724 61.7884 20.1494C61.1494 19.494 60.2784 19.1159 59.3632 19.0965C58.448 19.0771 57.5618 19.4179 56.8955 20.0457C55.4175 21.4404 53.4544 22.2046 51.4224 22.1763C49.3904 22.148 47.4494 21.3294 46.0108 19.894C45.3029 19.1878 44.7413 18.3489 44.3581 17.4254C43.9749 16.5018 43.7777 15.5117 43.7777 14.5118C43.7777 13.5119 43.9749 12.5219 44.3581 11.5983C44.7413 10.6747 45.3029 9.83585 46.0108 9.12965C47.4494 7.69429 49.3904 6.87565 51.4224 6.84734C53.4544 6.81902 55.4175 7.58325 56.8955 8.97797C57.5618 9.60583 58.4481 9.94671 59.3634 9.92712C60.2787 9.90754 61.1496 9.52905 61.7884 8.87327V8.87425ZM80.6786 0.000166186C76.8092 -0.0175474 73.0906 1.50031 70.3388 4.22075C67.587 6.94119 66.0266 10.6421 66 14.5115C66 18.4045 67.5464 22.1381 70.2992 24.8909C73.052 27.6437 76.7856 29.1902 80.6786 29.1902C84.5717 29.1902 88.3052 27.6437 91.058 24.8909C93.8108 22.1381 95.3573 18.4045 95.3573 14.5115C95.3307 10.6421 93.7703 6.94119 91.0185 4.22075C88.2667 1.50031 84.5481 -0.0175474 80.6786 0.000166186ZM80.6786 22.1757C79.1664 22.1585 77.693 21.6944 76.444 20.8417C75.1949 19.989 74.226 18.7859 73.6592 17.3838C73.0924 15.9817 72.953 14.4432 73.2586 12.9621C73.5642 11.4809 74.3012 10.1233 75.3767 9.06003C76.4522 7.99676 77.8181 7.2754 79.3026 6.98674C80.7872 6.69808 82.324 6.85501 83.7195 7.4378C85.1151 8.02058 86.307 9.00316 87.1454 10.2619C87.9837 11.5206 88.431 12.9992 88.4309 14.5115C88.4252 15.5238 88.22 16.525 87.8273 17.458C87.4346 18.391 86.862 19.2375 86.1421 19.9492C85.4222 20.6609 84.5693 21.2238 83.6318 21.6059C82.6944 21.9879 81.6909 22.1815 80.6786 22.1757ZM115.033 0.00247138C110.655 -0.0157703 106.448 1.70261 103.336 4.78089C100.223 7.85917 98.4573 12.0462 98.4265 16.424C98.4234 18.5835 98.8515 20.7218 99.6858 22.7136C100.52 24.7054 101.744 26.5106 103.285 28.0231C103.938 28.6645 104.816 29.0239 105.732 29.0239C106.647 29.0239 107.525 28.6645 108.178 28.0231C108.499 27.707 108.754 27.3302 108.928 26.9145C109.103 26.4989 109.192 26.0527 109.192 25.6021C109.192 25.1514 109.103 24.7053 108.928 24.2897C108.754 23.874 108.499 23.4972 108.178 23.1811C107.28 22.2977 106.567 21.2444 106.08 20.0825C105.593 18.9207 105.342 17.6735 105.342 16.4137C105.342 15.154 105.593 13.9068 106.08 12.7449C106.567 11.5831 107.28 10.5297 108.178 9.64636C110.004 7.85023 112.462 6.84361 115.023 6.84361C117.584 6.84361 120.043 7.85023 121.868 9.64636C122.766 10.5297 123.48 11.5831 123.967 12.7449C124.454 13.9068 124.704 15.154 124.704 16.4137C124.704 17.6735 124.454 18.9207 123.967 20.0825C123.48 21.2444 122.766 22.2977 121.868 23.1811C121.547 23.4971 121.292 23.8738 121.118 24.2894C120.944 24.705 120.854 25.151 120.854 25.6016C120.854 26.0522 120.944 26.4982 121.118 26.9138C121.292 27.3293 121.547 27.7061 121.868 28.0221C122.521 28.6635 123.4 29.0229 124.315 29.0229C125.23 29.0229 126.108 28.6635 126.761 28.0221C128.306 26.5115 129.534 24.7073 130.372 22.7156C131.21 20.7239 131.642 18.5848 131.641 16.424C131.611 12.0458 129.845 7.85853 126.732 4.78019C123.618 1.70186 119.411 -0.0162899 115.033 0.00247138ZM4.90948 4.78055C8.02265 1.70224 12.2294 -0.0160214 16.6075 0.00248008C20.9855 -0.0160214 25.1923 1.70224 28.3055 4.78055C31.4186 7.85886 33.1841 12.046 33.2149 16.424C33.215 18.5847 32.7834 20.7236 31.9453 22.7151C31.1073 24.7066 29.8797 26.5106 28.3348 28.0211C27.682 28.6625 26.8035 29.0219 25.8883 29.0219C24.9732 29.0219 24.0946 28.6625 23.4419 28.0211C23.1207 27.7051 22.8656 27.3282 22.6914 26.9126C22.5173 26.4969 22.4276 26.0508 22.4276 25.6001C22.4276 25.1495 22.5173 24.7033 22.6914 24.2877C22.8656 23.8721 23.1207 23.4952 23.4419 23.1791C24.3401 22.2957 25.0536 21.2424 25.5406 20.0804C26.0276 18.9184 26.2784 17.6712 26.2784 16.4113C26.2784 15.1514 26.0276 13.9041 25.5406 12.7422C25.0536 11.5802 24.3401 10.5268 23.4419 9.64344C21.6161 7.84724 19.1574 6.8406 16.5962 6.8406C14.035 6.8406 11.5764 7.84724 9.75057 9.64344C8.85229 10.5268 8.13885 11.5802 7.65186 12.7422C7.16487 13.9041 6.91406 15.1514 6.91406 16.4113C6.91406 17.6712 7.16487 18.9184 7.65186 20.0804C8.13885 21.2424 8.85229 22.2957 9.75057 23.1791C10.0718 23.4952 10.3269 23.8721 10.501 24.2877C10.6751 24.7033 10.7648 25.1495 10.7648 25.6001C10.7648 26.0508 10.6751 26.4969 10.501 26.9126C10.3269 27.3282 10.0718 27.7051 9.75057 28.0211C9.09781 28.6625 8.21927 29.0219 7.30413 29.0219C6.38898 29.0219 5.51044 28.6625 4.85768 28.0211C3.31679 26.5088 2.0934 24.7039 1.25925 22.7125C0.425102 20.721 -0.00301213 18.5831 1.59516e-05 16.424C0.0308049 12.046 1.79632 7.85886 4.90948 4.78055ZM54.9914 14.494C55.0019 16.3834 53.4612 17.9237 51.5502 17.9342C49.6391 17.9448 48.0815 16.4217 48.071 14.5323C48.0606 12.6429 49.6013 11.1027 51.5123 11.0921C53.4233 11.0815 54.981 12.6046 54.9914 14.494Z" fill="white"/>
</svg>
