<svg width="226" height="479" viewBox="0 0 226 479" fill="none" xmlns="http://www.w3.org/2000/svg">
<path fill-rule="evenodd" clip-rule="evenodd" d="M192.389 0.592041H32.7231C14.6506 0.592041 0 15.2427 0 33.3151V439.533C0 457.605 14.6506 472.256 32.7231 472.256H192.389C210.462 472.256 225.112 457.605 225.112 439.533V33.3151C225.112 15.2427 210.462 0.592041 192.389 0.592041ZM6.77029 33.3151C6.77029 18.9818 18.3897 7.36233 32.7231 7.36233H49.1319C51.0762 8.0465 52.4698 9.89927 52.4698 12.0774C52.4698 18.977 58.063 24.5702 64.9626 24.5702H159.586C166.485 24.5702 172.078 18.977 172.078 12.0774C172.078 9.89927 173.472 8.0465 175.416 7.36233H192.389C206.722 7.36233 218.342 18.9818 218.342 33.3151V439.533C218.342 453.866 206.722 465.485 192.389 465.485H32.7231C18.3897 465.485 6.77029 453.866 6.77029 439.533V33.3151Z" fill="url(#paint0_linear)"/>
<g opacity="0.6">
<circle cx="99" cy="14.0781" r="2" fill="#DFDFE6"/>
<rect x="103.667" y="12.0781" width="25.3333" height="4" rx="2" fill="#DFDFE6"/>
</g>
<mask id="mask0" mask-type="alpha" maskUnits="userSpaceOnUse" x="6" y="7" width="213" height="459">
<path fill-rule="evenodd" clip-rule="evenodd" d="M6.80577 31.9504C6.78236 32.4023 6.77051 32.8573 6.77051 33.3151V439.533C6.77051 453.866 18.3899 465.485 32.7233 465.485H192.389C206.723 465.485 218.342 453.866 218.342 439.533V33.3151C218.342 33.2591 218.342 33.2031 218.342 33.1472C218.251 18.8912 206.667 7.36227 192.389 7.36227H175.416C173.472 8.04643 172.078 9.8992 172.078 12.0773C172.078 18.9769 166.485 24.5701 159.586 24.5701H64.9628C58.0632 24.5701 52.47 18.9769 52.47 12.0773C52.47 9.8992 51.0764 8.04643 49.1321 7.36227H32.7233C26.2563 7.36227 20.3417 9.72765 15.7976 13.6405C14.047 15.1478 12.4999 16.8848 11.2028 18.8046C8.64281 22.594 7.05726 27.0957 6.80577 31.9504Z" fill="black"/>
</mask>
<g mask="url(#mask0)">
<path d="M6.76709 7.3623H218.339V465.485H6.76709V7.3623Z" fill="url(#paint1_linear)"/>
<rect x="6.50781" y="7.52649" width="211.364" height="457.674" rx="9.0182" fill="url(#paint2_linear)"/>
<path fill-rule="evenodd" clip-rule="evenodd" d="M59.9944 81.4981C60.1305 81.7834 60.5367 81.7834 60.6728 81.4981L63.4176 75.7429H63.6905L66.4353 81.4981C66.5714 81.7834 66.9775 81.7834 67.1136 81.4981L69.8584 75.7429H70.131L72.8758 81.4981C73.0119 81.7834 73.418 81.7834 73.5541 81.4981L76.2989 75.7429H76.5713L79.3162 81.4981C79.4523 81.7834 79.8584 81.7834 79.9945 81.4981L82.7393 75.7429H83.0121L85.7569 81.4981C85.893 81.7834 86.2991 81.7834 86.4352 81.4981L89.18 75.7429H89.4526L92.1974 81.4981C92.3335 81.7834 92.7396 81.7834 92.8757 81.4981L95.6205 75.7429H95.8931L98.6379 81.4981C98.774 81.7834 99.1801 81.7834 99.3162 81.4981L102.061 75.7429H102.333L105.078 81.4981C105.214 81.7834 105.62 81.7834 105.756 81.4981L108.501 75.7429H108.774L111.519 81.4981C111.655 81.7834 112.061 81.7834 112.197 81.4981L114.942 75.7429H115.215L117.959 81.4981C118.096 81.7834 118.502 81.7834 118.638 81.4981L121.383 75.7429H121.655L124.4 81.4981C124.536 81.7834 124.942 81.7834 125.078 81.4981L127.823 75.7429H128.095L130.84 81.4982C130.976 81.7835 131.383 81.7835 131.519 81.4982L134.264 75.7429H134.536L137.281 81.4982C137.417 81.7835 137.823 81.7835 137.959 81.4982L140.704 75.7429H140.977L143.721 81.4982C143.858 81.7835 144.264 81.7835 144.4 81.4982L147.145 75.7429H147.417L150.162 81.4982C150.298 81.7835 150.704 81.7835 150.84 81.4982L153.585 75.7429H153.857L156.602 81.4982C156.738 81.7835 157.145 81.7835 157.281 81.4982L160.026 75.7429H160.298L163.043 81.4982C163.179 81.7835 163.585 81.7835 163.721 81.4982L166.466 75.7429H166.738L169.483 81.4982C169.619 81.7835 170.025 81.7835 170.162 81.4982L172.906 75.7429H173.179L175.924 81.4982C176.06 81.7835 176.466 81.7835 176.602 81.4982L179.347 75.7429H179.635L182.38 81.4982C182.516 81.7835 182.922 81.7835 183.058 81.4982L185.803 75.7429H186.09L188.835 81.4982C188.971 81.7835 189.378 81.7835 189.514 81.4982L192.258 75.7429H192.546L195.291 81.4982C195.427 81.7835 195.833 81.7835 195.969 81.4982L198.714 75.7429H199.108V377.101H24.5439V75.7429H25.0473L27.7922 81.4982C27.9283 81.7835 28.3344 81.7835 28.4705 81.4982L31.2154 75.7429H31.4876L34.2325 81.4982C34.3685 81.7835 34.7747 81.7835 34.9108 81.4982L37.6557 75.7429H37.9283L40.6732 81.4982C40.8093 81.7835 41.2154 81.7835 41.3515 81.4982L44.0964 75.7429H44.3689L47.1138 81.4982C47.2499 81.7835 47.656 81.7835 47.7921 81.4982L50.537 75.7429H50.8092L53.5541 81.4982C53.6902 81.7835 54.0963 81.7835 54.2324 81.4982L56.9773 75.7429H57.2496L59.9944 81.4981Z" fill="#FBF9BE"/>
<rect opacity="0.6" x="24.5444" y="334.265" width="174.728" height="37.5758" fill="url(#paint3_linear)"/>
<path d="M15.1504 360.568H208.666V380.107C208.666 381.767 207.32 383.113 205.66 383.113H18.1565C16.4963 383.113 15.1504 381.767 15.1504 380.107V360.568Z" fill="#0896D7"/>
<path d="M24.5443 360.568H15.1504L24.5443 355.683V360.568Z" fill="#0888C2"/>
<path d="M199.272 360.568H208.666L199.272 355.683V360.568Z" fill="#0888C2"/>
<path d="M73.3144 54.3382C73.3144 53.5125 73.4988 52.775 73.8675 52.1257C74.2443 51.4684 74.7533 50.9594 75.3946 50.5987C76.0439 50.2299 76.7694 50.0455 77.571 50.0455C78.5089 50.0455 79.3305 50.286 80.036 50.767C80.7414 51.248 81.2344 51.9133 81.515 52.763H79.579C79.3867 52.3622 79.1141 52.0616 78.7614 51.8612C78.4167 51.6608 78.0159 51.5606 77.559 51.5606C77.07 51.5606 76.6331 51.6768 76.2483 51.9093C75.8716 52.1337 75.575 52.4544 75.3585 52.8712C75.1501 53.2881 75.0459 53.7771 75.0459 54.3382C75.0459 54.8913 75.1501 55.3803 75.3585 55.8052C75.575 56.222 75.8716 56.5467 76.2483 56.7791C76.6331 57.0036 77.07 57.1158 77.559 57.1158C78.0159 57.1158 78.4167 57.0156 78.7614 56.8152C79.1141 56.6068 79.3867 56.3022 79.579 55.9014H81.515C81.2344 56.7591 80.7414 57.4284 80.036 57.9094C79.3386 58.3824 78.5169 58.6188 77.571 58.6188C76.7694 58.6188 76.0439 58.4385 75.3946 58.0777C74.7533 57.709 74.2443 57.2 73.8675 56.5507C73.4988 55.9014 73.3144 55.1639 73.3144 54.3382ZM85.9108 58.6549C85.2695 58.6549 84.6923 58.5146 84.1793 58.2341C83.6662 57.9455 83.2614 57.5407 82.9648 57.0196C82.6762 56.4986 82.5319 55.8973 82.5319 55.216C82.5319 54.5346 82.6802 53.9334 82.9768 53.4123C83.2815 52.8913 83.6943 52.4905 84.2153 52.2099C84.7364 51.9213 85.3176 51.777 85.9589 51.777C86.6002 51.777 87.1813 51.9213 87.7024 52.2099C88.2234 52.4905 88.6323 52.8913 88.9289 53.4123C89.2335 53.9334 89.3858 54.5346 89.3858 55.216C89.3858 55.8973 89.2295 56.4986 88.9168 57.0196C88.6122 57.5407 88.1954 57.9455 87.6663 58.2341C87.1453 58.5146 86.5601 58.6549 85.9108 58.6549ZM85.9108 57.1879C86.2154 57.1879 86.5 57.1158 86.7645 56.9715C87.037 56.8192 87.2535 56.5948 87.4138 56.2982C87.5741 56.0016 87.6543 55.6408 87.6543 55.216C87.6543 54.5827 87.4859 54.0977 87.1493 53.761C86.8206 53.4163 86.4158 53.244 85.9348 53.244C85.4538 53.244 85.049 53.4163 84.7204 53.761C84.3997 54.0977 84.2394 54.5827 84.2394 55.216C84.2394 55.8492 84.3957 56.3382 84.7083 56.6829C85.029 57.0196 85.4298 57.1879 85.9108 57.1879ZM98.8933 51.7891C99.711 51.7891 100.368 52.0416 100.865 52.5466C101.37 53.0436 101.623 53.741 101.623 54.6388V58.5467H99.9394V54.8673C99.9394 54.3462 99.8071 53.9494 99.5426 53.6769C99.2781 53.3963 98.9174 53.256 98.4604 53.256C98.0035 53.256 97.6388 53.3963 97.3662 53.6769C97.1017 53.9494 96.9694 54.3462 96.9694 54.8673V58.5467H95.286V54.8673C95.286 54.3462 95.1538 53.9494 94.8892 53.6769C94.6247 53.3963 94.264 53.256 93.807 53.256C93.3421 53.256 92.9734 53.3963 92.7008 53.6769C92.4363 53.9494 92.304 54.3462 92.304 54.8673V58.5467H90.6206V51.8852H92.304V52.6909C92.5204 52.4103 92.797 52.1899 93.1337 52.0295C93.4784 51.8692 93.8551 51.7891 94.264 51.7891C94.785 51.7891 95.25 51.9013 95.6588 52.1257C96.0676 52.3422 96.3842 52.6548 96.6087 53.0636C96.8251 52.6788 97.1378 52.3702 97.5466 52.1378C97.9634 51.9053 98.4123 51.7891 98.8933 51.7891ZM104.904 52.8472C105.12 52.5426 105.417 52.2901 105.793 52.0897C106.178 51.8812 106.615 51.777 107.104 51.777C107.673 51.777 108.186 51.9173 108.643 52.1979C109.108 52.4784 109.473 52.8793 109.737 53.4003C110.01 53.9133 110.146 54.5105 110.146 55.1919C110.146 55.8733 110.01 56.4785 109.737 57.0076C109.473 57.5286 109.108 57.9335 108.643 58.222C108.186 58.5106 107.673 58.6549 107.104 58.6549C106.615 58.6549 106.182 58.5547 105.805 58.3543C105.437 58.1539 105.136 57.9014 104.904 57.5968V61.7211H103.22V51.8852H104.904V52.8472ZM108.427 55.1919C108.427 54.7911 108.343 54.4464 108.174 54.1578C108.014 53.8612 107.797 53.6368 107.525 53.4845C107.26 53.3322 106.972 53.256 106.659 53.256C106.355 53.256 106.066 53.3362 105.793 53.4965C105.529 53.6488 105.312 53.8733 105.144 54.1699C104.984 54.4665 104.904 54.8152 104.904 55.216C104.904 55.6168 104.984 55.9655 105.144 56.2621C105.312 56.5587 105.529 56.7871 105.793 56.9475C106.066 57.0998 106.355 57.1759 106.659 57.1759C106.972 57.1759 107.26 57.0958 107.525 56.9354C107.797 56.7751 108.014 56.5467 108.174 56.2501C108.343 55.9535 108.427 55.6007 108.427 55.1919ZM113.053 52.9193C113.269 52.5666 113.55 52.2901 113.895 52.0897C114.247 51.8893 114.648 51.7891 115.097 51.7891V53.5566H114.652C114.123 53.5566 113.722 53.6809 113.45 53.9294C113.185 54.1779 113.053 54.6107 113.053 55.228V58.5467H111.37V51.8852H113.053V52.9193ZM119.189 58.6549C118.548 58.6549 117.97 58.5146 117.457 58.2341C116.944 57.9455 116.54 57.5407 116.243 57.0196C115.954 56.4986 115.81 55.8973 115.81 55.216C115.81 54.5346 115.958 53.9334 116.255 53.4123C116.56 52.8913 116.972 52.4905 117.493 52.2099C118.014 51.9213 118.596 51.777 119.237 51.777C119.878 51.777 120.459 51.9213 120.98 52.2099C121.502 52.4905 121.91 52.8913 122.207 53.4123C122.512 53.9334 122.664 54.5346 122.664 55.216C122.664 55.8973 122.508 56.4986 122.195 57.0196C121.89 57.5407 121.473 57.9455 120.944 58.2341C120.423 58.5146 119.838 58.6549 119.189 58.6549ZM119.189 57.1879C119.493 57.1879 119.778 57.1158 120.043 56.9715C120.315 56.8192 120.532 56.5948 120.692 56.2982C120.852 56.0016 120.932 55.6408 120.932 55.216C120.932 54.5827 120.764 54.0977 120.427 53.761C120.099 53.4163 119.694 53.244 119.213 53.244C118.732 53.244 118.327 53.4163 117.998 53.761C117.678 54.0977 117.517 54.5827 117.517 55.216C117.517 55.8492 117.674 56.3382 117.986 56.6829C118.307 57.0196 118.708 57.1879 119.189 57.1879ZM126.676 56.9956L128.36 51.8852H130.151L127.686 58.5467H125.642L123.189 51.8852H124.993L126.676 56.9956ZM130.664 55.1919C130.664 54.5186 130.796 53.9214 131.061 53.4003C131.333 52.8793 131.698 52.4784 132.155 52.1979C132.62 51.9173 133.137 51.777 133.706 51.777C134.203 51.777 134.636 51.8772 135.005 52.0776C135.381 52.278 135.682 52.5306 135.907 52.8352V51.8852H137.602V58.5467H135.907V57.5727C135.69 57.8854 135.389 58.1459 135.005 58.3543C134.628 58.5547 134.191 58.6549 133.694 58.6549C133.133 58.6549 132.62 58.5106 132.155 58.222C131.698 57.9335 131.333 57.5286 131.061 57.0076C130.796 56.4785 130.664 55.8733 130.664 55.1919ZM135.907 55.216C135.907 54.8071 135.826 54.4584 135.666 54.1699C135.506 53.8733 135.289 53.6488 135.017 53.4965C134.744 53.3362 134.452 53.256 134.139 53.256C133.826 53.256 133.538 53.3322 133.273 53.4845C133.009 53.6368 132.792 53.8612 132.624 54.1578C132.464 54.4464 132.383 54.7911 132.383 55.1919C132.383 55.5927 132.464 55.9454 132.624 56.2501C132.792 56.5467 133.009 56.7751 133.273 56.9354C133.546 57.0958 133.834 57.1759 134.139 57.1759C134.452 57.1759 134.744 57.0998 135.017 56.9475C135.289 56.7871 135.506 56.5627 135.666 56.2741C135.826 55.9775 135.907 55.6248 135.907 55.216ZM142.938 51.7891C143.731 51.7891 144.372 52.0416 144.861 52.5466C145.35 53.0436 145.595 53.741 145.595 54.6388V58.5467H143.912V54.8673C143.912 54.3382 143.779 53.9334 143.515 53.6528C143.25 53.3642 142.889 53.2199 142.433 53.2199C141.968 53.2199 141.599 53.3642 141.326 53.6528C141.062 53.9334 140.929 54.3382 140.929 54.8673V58.5467H139.246V51.8852H140.929V52.7149C141.154 52.4263 141.439 52.2019 141.783 52.0416C142.136 51.8732 142.521 51.7891 142.938 51.7891ZM149.156 53.268V56.4905C149.156 56.715 149.208 56.8793 149.312 56.9835C149.424 57.0797 149.609 57.1278 149.865 57.1278H150.647V58.5467H149.589C148.17 58.5467 147.46 57.8573 147.46 56.4785V53.268H146.667V51.8852H147.46V50.2379H149.156V51.8852H150.647V53.268H149.156ZM158.05 55.0717C158.05 55.3122 158.034 55.5286 158.002 55.721H153.132C153.172 56.202 153.34 56.5787 153.637 56.8513C153.934 57.1238 154.298 57.2601 154.731 57.2601C155.357 57.2601 155.801 56.9916 156.066 56.4545H157.882C157.689 57.0958 157.321 57.6248 156.775 58.0417C156.23 58.4505 155.561 58.6549 154.767 58.6549C154.126 58.6549 153.549 58.5146 153.036 58.2341C152.531 57.9455 152.134 57.5407 151.845 57.0196C151.565 56.4986 151.425 55.8973 151.425 55.216C151.425 54.5266 151.565 53.9214 151.845 53.4003C152.126 52.8793 152.519 52.4784 153.024 52.1979C153.529 51.9173 154.11 51.777 154.767 51.777C155.401 51.777 155.966 51.9133 156.463 52.1859C156.968 52.4584 157.357 52.8472 157.629 53.3522C157.91 53.8492 158.05 54.4224 158.05 55.0717ZM156.306 54.5907C156.298 54.1578 156.142 53.8131 155.838 53.5566C155.533 53.2921 155.16 53.1598 154.719 53.1598C154.302 53.1598 153.95 53.2881 153.661 53.5446C153.381 53.7931 153.208 54.1418 153.144 54.5907H156.306Z" fill="white"/>
<path fill-rule="evenodd" clip-rule="evenodd" d="M29.5179 50.4283L24.9378 55.0084L25.7349 55.8055L30.315 51.2254L34.8951 55.8056L35.6922 55.0085L31.1121 50.4283L35.6925 45.848L34.8954 45.0508L30.315 49.6312L25.7346 45.0509L24.9375 45.848L29.5179 50.4283Z" fill="white"/>
<path fill-rule="evenodd" clip-rule="evenodd" d="M110.116 107.58C110.245 107.447 110.347 107.29 110.415 107.117C110.483 106.944 110.516 106.76 110.512 106.574C110.508 106.389 110.467 106.206 110.391 106.036C110.316 105.867 110.207 105.714 110.072 105.586C109.218 104.776 108.145 104.233 106.987 104.022C105.828 103.812 104.633 103.944 103.548 104.402C102.463 104.859 101.535 105.623 100.878 106.6C100.22 107.577 99.8614 108.725 99.8455 109.902C99.8614 111.08 100.22 112.227 100.878 113.204C101.535 114.181 102.463 114.945 103.548 115.403C104.633 115.861 105.828 115.992 106.987 115.782C108.145 115.572 109.218 115.028 110.072 114.218C110.207 114.091 110.316 113.938 110.391 113.768C110.467 113.599 110.508 113.416 110.512 113.23C110.516 113.045 110.483 112.86 110.415 112.687C110.347 112.515 110.245 112.357 110.116 112.224C109.853 111.954 109.494 111.799 109.117 111.791C108.74 111.783 108.375 111.923 108.1 112.182C107.492 112.756 106.683 113.071 105.846 113.059C105.009 113.047 104.21 112.71 103.617 112.119C103.326 111.828 103.094 111.483 102.936 111.102C102.779 110.722 102.697 110.314 102.697 109.902C102.697 109.49 102.779 109.082 102.936 108.702C103.094 108.322 103.326 107.976 103.617 107.685C104.21 107.094 105.009 106.757 105.846 106.745C106.683 106.734 107.492 107.048 108.1 107.623C108.375 107.881 108.74 108.022 109.117 108.014C109.494 108.006 109.853 107.85 110.116 107.58V107.58ZM117.722 103.926C116.128 103.919 114.596 104.544 113.463 105.664C112.329 106.785 111.687 108.309 111.676 109.903C111.676 111.507 112.313 113.044 113.447 114.178C114.58 115.312 116.118 115.949 117.722 115.949C119.325 115.949 120.863 115.312 121.997 114.178C123.131 113.044 123.768 111.507 123.768 109.903C123.757 108.309 123.114 106.785 121.981 105.664C120.847 104.544 119.316 103.919 117.722 103.926ZM117.722 113.06C117.099 113.053 116.492 112.862 115.978 112.51C115.463 112.159 115.064 111.664 114.831 111.086C114.597 110.509 114.54 109.875 114.666 109.265C114.791 108.655 115.095 108.096 115.538 107.658C115.981 107.22 116.544 106.922 117.155 106.804C117.767 106.685 118.399 106.749 118.974 106.989C119.549 107.229 120.04 107.634 120.385 108.153C120.731 108.671 120.915 109.28 120.915 109.903C120.913 110.32 120.828 110.732 120.666 111.117C120.505 111.501 120.269 111.85 119.972 112.143C119.676 112.436 119.324 112.668 118.938 112.825C118.552 112.982 118.139 113.062 117.722 113.06ZM132.047 103.926C130.244 103.918 128.511 104.626 127.229 105.894C125.947 107.162 125.22 108.887 125.207 110.69C125.206 111.579 125.382 112.46 125.726 113.28C126.069 114.101 126.573 114.844 127.208 115.467C127.477 115.732 127.839 115.88 128.216 115.88C128.593 115.88 128.955 115.732 129.223 115.467C129.356 115.337 129.461 115.182 129.533 115.011C129.604 114.84 129.641 114.656 129.641 114.47C129.641 114.285 129.604 114.101 129.533 113.93C129.461 113.758 129.356 113.603 129.223 113.473C128.854 113.109 128.56 112.675 128.359 112.197C128.159 111.718 128.055 111.204 128.055 110.686C128.055 110.167 128.159 109.653 128.359 109.174C128.56 108.696 128.854 108.262 129.223 107.898C129.975 107.158 130.988 106.744 132.043 106.744C133.098 106.744 134.11 107.158 134.862 107.898C135.232 108.262 135.526 108.696 135.727 109.174C135.927 109.653 136.031 110.167 136.031 110.686C136.031 111.204 135.927 111.718 135.727 112.197C135.526 112.675 135.232 113.109 134.862 113.473C134.73 113.603 134.625 113.758 134.553 113.93C134.482 114.101 134.445 114.284 134.445 114.47C134.445 114.656 134.482 114.839 134.553 115.01C134.625 115.182 134.73 115.337 134.862 115.467C135.131 115.731 135.493 115.879 135.87 115.879C136.247 115.879 136.609 115.731 136.878 115.467C137.514 114.845 138.02 114.102 138.365 113.281C138.71 112.461 138.888 111.58 138.888 110.69C138.875 108.886 138.148 107.162 136.866 105.894C135.583 104.626 133.85 103.918 132.047 103.926ZM86.6877 105.895C87.97 104.627 89.7028 103.919 91.5061 103.927C93.3094 103.919 95.0421 104.627 96.3244 105.895C97.6067 107.163 98.3339 108.887 98.3466 110.691C98.3466 111.581 98.1688 112.462 97.8237 113.282C97.4785 114.102 96.9728 114.845 96.3365 115.467C96.0676 115.732 95.7057 115.88 95.3288 115.88C94.9519 115.88 94.59 115.732 94.3211 115.467C94.1888 115.337 94.0837 115.182 94.012 115.011C93.9403 114.84 93.9034 114.656 93.9034 114.47C93.9034 114.285 93.9403 114.101 94.012 113.93C94.0837 113.758 94.1888 113.603 94.3211 113.473C94.6911 113.109 94.985 112.675 95.1856 112.197C95.3862 111.718 95.4895 111.204 95.4895 110.685C95.4895 110.166 95.3862 109.653 95.1856 109.174C94.985 108.695 94.6911 108.262 94.3211 107.898C93.5691 107.158 92.5564 106.743 91.5014 106.743C90.4465 106.743 89.4338 107.158 88.6817 107.898C88.3117 108.262 88.0179 108.695 87.8173 109.174C87.6167 109.653 87.5134 110.166 87.5134 110.685C87.5134 111.204 87.6167 111.718 87.8173 112.197C88.0179 112.675 88.3117 113.109 88.6817 113.473C88.814 113.603 88.9191 113.758 88.9908 113.93C89.0626 114.101 89.0995 114.285 89.0995 114.47C89.0995 114.656 89.0626 114.84 88.9908 115.011C88.9191 115.182 88.814 115.337 88.6817 115.467C88.4129 115.732 88.051 115.88 87.6741 115.88C87.2971 115.88 86.9353 115.732 86.6664 115.467C86.0317 114.844 85.5278 114.101 85.1842 113.281C84.8406 112.461 84.6643 111.58 84.6655 110.691C84.6782 108.887 85.4054 107.163 86.6877 105.895ZM107.316 109.895C107.32 110.673 106.686 111.307 105.899 111.312C105.112 111.316 104.47 110.689 104.466 109.911C104.461 109.132 105.096 108.498 105.883 108.494C106.67 108.489 107.312 109.117 107.316 109.895Z" fill="#0073CE"/>
<rect x="44.8354" y="412.97" width="133.723" height="27.4304" rx="13.7152" fill="white"/>
<path d="M80.0385 426.913C80.0385 426.285 80.1787 425.724 80.4591 425.23C80.7456 424.731 81.1326 424.344 81.6203 424.069C82.114 423.789 82.6657 423.649 83.2752 423.649C83.9884 423.649 84.6132 423.832 85.1497 424.197C85.6861 424.563 86.061 425.069 86.2743 425.715H84.8022C84.6559 425.41 84.4487 425.182 84.1804 425.029C83.9183 424.877 83.6136 424.801 83.2661 424.801C82.8943 424.801 82.5621 424.889 82.2695 425.066C81.983 425.237 81.7574 425.48 81.5929 425.797C81.4344 426.114 81.3551 426.486 81.3551 426.913C81.3551 427.333 81.4344 427.705 81.5929 428.028C81.7574 428.345 81.983 428.592 82.2695 428.769C82.5621 428.94 82.8943 429.025 83.2661 429.025C83.6136 429.025 83.9183 428.949 84.1804 428.796C84.4487 428.638 84.6559 428.406 84.8022 428.102H86.2743C86.061 428.754 85.6861 429.263 85.1497 429.628C84.6193 429.988 83.9945 430.168 83.2752 430.168C82.6657 430.168 82.114 430.031 81.6203 429.757C81.1326 429.476 80.7456 429.089 80.4591 428.595C80.1787 428.102 80.0385 427.541 80.0385 426.913ZM89.6169 430.195C89.1293 430.195 88.6904 430.089 88.3003 429.875C87.9102 429.656 87.6023 429.348 87.3768 428.952C87.1574 428.556 87.0476 428.098 87.0476 427.58C87.0476 427.062 87.1604 426.605 87.3859 426.209C87.6176 425.813 87.9315 425.508 88.3277 425.294C88.7239 425.075 89.1659 424.965 89.6535 424.965C90.1412 424.965 90.5831 425.075 90.9793 425.294C91.3755 425.508 91.6864 425.813 91.912 426.209C92.1436 426.605 92.2594 427.062 92.2594 427.58C92.2594 428.098 92.1405 428.556 91.9028 428.952C91.6712 429.348 91.3542 429.656 90.9519 429.875C90.5557 430.089 90.1107 430.195 89.6169 430.195ZM89.6169 429.08C89.8486 429.08 90.065 429.025 90.2661 428.915C90.4734 428.799 90.638 428.629 90.7599 428.403C90.8818 428.178 90.9427 427.903 90.9427 427.58C90.9427 427.099 90.8147 426.73 90.5587 426.474C90.3088 426.212 90.001 426.081 89.6352 426.081C89.2695 426.081 88.9617 426.212 88.7117 426.474C88.4679 426.73 88.346 427.099 88.346 427.58C88.346 428.062 88.4649 428.434 88.7026 428.696C88.9464 428.952 89.2512 429.08 89.6169 429.08ZM99.4891 424.974C100.111 424.974 100.611 425.166 100.989 425.551C101.373 425.928 101.565 426.459 101.565 427.141V430.113H100.285V427.315C100.285 426.919 100.184 426.617 99.9828 426.41C99.7817 426.197 99.5074 426.09 99.1599 426.09C98.8125 426.09 98.5351 426.197 98.3279 426.41C98.1267 426.617 98.0261 426.919 98.0261 427.315V430.113H96.7461V427.315C96.7461 426.919 96.6455 426.617 96.4443 426.41C96.2432 426.197 95.9689 426.09 95.6214 426.09C95.2679 426.09 94.9875 426.197 94.7802 426.41C94.5791 426.617 94.4785 426.919 94.4785 427.315V430.113H93.1984V425.048H94.4785V425.66C94.6431 425.447 94.8534 425.279 95.1094 425.157C95.3715 425.035 95.658 424.974 95.9689 424.974C96.3651 424.974 96.7186 425.06 97.0295 425.23C97.3404 425.395 97.5812 425.633 97.7518 425.944C97.9164 425.651 98.1541 425.416 98.465 425.24C98.782 425.063 99.1233 424.974 99.4891 424.974ZM104.059 425.779C104.224 425.547 104.45 425.355 104.736 425.203C105.029 425.045 105.361 424.965 105.733 424.965C106.165 424.965 106.556 425.072 106.903 425.285C107.257 425.499 107.534 425.803 107.735 426.2C107.942 426.59 108.046 427.044 108.046 427.562C108.046 428.08 107.942 428.54 107.735 428.943C107.534 429.339 107.257 429.647 106.903 429.866C106.556 430.086 106.165 430.195 105.733 430.195C105.361 430.195 105.032 430.119 104.745 429.967C104.465 429.814 104.236 429.622 104.059 429.391V432.527H102.779V425.048H104.059V425.779ZM106.738 427.562C106.738 427.257 106.674 426.995 106.546 426.776C106.425 426.55 106.26 426.38 106.053 426.264C105.852 426.148 105.632 426.09 105.394 426.09C105.163 426.09 104.943 426.151 104.736 426.273C104.535 426.389 104.37 426.559 104.242 426.785C104.12 427.01 104.059 427.276 104.059 427.58C104.059 427.885 104.12 428.15 104.242 428.376C104.37 428.601 104.535 428.775 104.736 428.897C104.943 429.013 105.163 429.071 105.394 429.071C105.632 429.071 105.852 429.01 106.053 428.888C106.26 428.766 106.425 428.592 106.546 428.367C106.674 428.141 106.738 427.873 106.738 427.562ZM108.647 427.562C108.647 427.05 108.748 426.596 108.949 426.2C109.156 425.803 109.433 425.499 109.781 425.285C110.134 425.072 110.528 424.965 110.96 424.965C111.338 424.965 111.667 425.042 111.948 425.194C112.234 425.346 112.463 425.538 112.634 425.77V425.048H113.923V430.113H112.634V429.372C112.469 429.61 112.24 429.808 111.948 429.967C111.661 430.119 111.329 430.195 110.951 430.195C110.524 430.195 110.134 430.086 109.781 429.866C109.433 429.647 109.156 429.339 108.949 428.943C108.748 428.54 108.647 428.08 108.647 427.562ZM112.634 427.58C112.634 427.269 112.573 427.004 112.451 426.785C112.329 426.559 112.164 426.389 111.957 426.273C111.75 426.151 111.527 426.09 111.289 426.09C111.052 426.09 110.832 426.148 110.631 426.264C110.43 426.38 110.265 426.55 110.137 426.776C110.016 426.995 109.955 427.257 109.955 427.562C109.955 427.867 110.016 428.135 110.137 428.367C110.265 428.592 110.43 428.766 110.631 428.888C110.838 429.01 111.058 429.071 111.289 429.071C111.527 429.071 111.75 429.013 111.957 428.897C112.164 428.775 112.329 428.604 112.451 428.385C112.573 428.159 112.634 427.891 112.634 427.58ZM116.453 425.834C116.618 425.566 116.831 425.355 117.093 425.203C117.361 425.051 117.666 424.974 118.008 424.974V426.319H117.669C117.267 426.319 116.962 426.413 116.755 426.602C116.554 426.791 116.453 427.12 116.453 427.59V430.113H115.173V425.048H116.453V425.834ZM120.36 426.099V428.55C120.36 428.72 120.4 428.845 120.479 428.924C120.564 428.998 120.704 429.034 120.9 429.034H121.494V430.113H120.689C119.61 430.113 119.071 429.589 119.071 428.54V426.099H118.467V425.048H119.071V423.795H120.36V425.048H121.494V426.099H120.36ZM123.064 424.444C122.838 424.444 122.649 424.374 122.497 424.234C122.351 424.088 122.277 423.908 122.277 423.694C122.277 423.481 122.351 423.304 122.497 423.164C122.649 423.018 122.838 422.945 123.064 422.945C123.289 422.945 123.475 423.018 123.622 423.164C123.774 423.304 123.85 423.481 123.85 423.694C123.85 423.908 123.774 424.088 123.622 424.234C123.475 424.374 123.289 424.444 123.064 424.444ZM123.695 425.048V430.113H122.415V425.048H123.695ZM126.239 423.347V430.113H124.959V423.347H126.239ZM130.357 424.974C130.741 424.974 131.082 425.06 131.381 425.23C131.68 425.395 131.911 425.642 132.076 425.971C132.247 426.294 132.332 426.684 132.332 427.141V430.113H131.052V427.315C131.052 426.913 130.951 426.605 130.75 426.392C130.549 426.172 130.275 426.063 129.927 426.063C129.574 426.063 129.293 426.172 129.086 426.392C128.885 426.605 128.784 426.913 128.784 427.315V430.113H127.504V423.347H128.784V425.679C128.949 425.459 129.168 425.288 129.443 425.166C129.717 425.038 130.022 424.974 130.357 424.974ZM133.22 427.562C133.22 427.05 133.321 426.596 133.522 426.2C133.729 425.803 134.006 425.499 134.354 425.285C134.707 425.072 135.101 424.965 135.533 424.965C135.911 424.965 136.24 425.042 136.521 425.194C136.807 425.346 137.036 425.538 137.207 425.77V425.048H138.496V430.113H137.207V429.372C137.042 429.61 136.813 429.808 136.521 429.967C136.234 430.119 135.902 430.195 135.524 430.195C135.098 430.195 134.707 430.086 134.354 429.866C134.006 429.647 133.729 429.339 133.522 428.943C133.321 428.54 133.22 428.08 133.22 427.562ZM137.207 427.58C137.207 427.269 137.146 427.004 137.024 426.785C136.902 426.559 136.737 426.389 136.53 426.273C136.323 426.151 136.1 426.09 135.863 426.09C135.625 426.09 135.405 426.148 135.204 426.264C135.003 426.38 134.838 426.55 134.71 426.776C134.589 426.995 134.528 427.257 134.528 427.562C134.528 427.867 134.589 428.135 134.71 428.367C134.838 428.592 135.003 428.766 135.204 428.888C135.411 429.01 135.631 429.071 135.863 429.071C136.1 429.071 136.323 429.013 136.53 428.897C136.737 428.775 136.902 428.604 137.024 428.385C137.146 428.159 137.207 427.891 137.207 427.58ZM141.026 425.834C141.191 425.566 141.404 425.355 141.666 425.203C141.934 425.051 142.239 424.974 142.581 424.974V426.319H142.242C141.84 426.319 141.535 426.413 141.328 426.602C141.127 426.791 141.026 427.12 141.026 427.59V430.113H139.746V425.048H141.026V425.834Z" fill="#01A5F0"/>
<path d="M62.8337 135.439C63.7896 135.439 64.6193 135.033 65.1694 134.384L64.5742 133.879C64.1593 134.366 63.5281 134.682 62.8337 134.682C61.526 134.682 60.4979 133.581 60.4979 132.256C60.4979 130.921 61.526 129.83 62.8337 129.83C63.5281 129.83 64.1593 130.146 64.5742 130.632L65.1694 130.127C64.6193 129.478 63.7896 129.072 62.8337 129.072C61.0751 129.072 59.6773 130.497 59.6773 132.256C59.6773 134.014 61.0751 135.439 62.8337 135.439ZM68.024 135.439C69.2235 135.439 70.2335 134.564 70.2335 133.23C70.2335 131.895 69.2235 131.047 68.024 131.047C66.8246 131.047 65.8236 131.895 65.8236 133.23C65.8236 134.564 66.8246 135.439 68.024 135.439ZM68.024 134.7C67.2575 134.7 66.6172 134.105 66.6172 133.23C66.6172 132.364 67.2575 131.787 68.024 131.787C68.7996 131.787 69.4489 132.364 69.4489 133.23C69.4489 134.105 68.7996 134.7 68.024 134.7ZM76.3219 131.047C75.8981 131.047 75.2307 131.174 74.852 131.922C74.6085 131.363 74.0764 131.047 73.4631 131.047C72.8679 131.047 72.3269 131.327 72.1104 131.778V131.138H71.3258V135.349H72.1104V133.067C72.1104 132.175 72.7056 131.805 73.3008 131.805C73.8599 131.805 74.2477 132.247 74.2477 132.959V135.349H75.0323V133.203L75.0413 133.239C74.9692 132.427 75.4201 131.796 76.1686 131.805C76.7818 131.805 77.1696 132.256 77.1696 132.959V135.349H77.9542V132.914C77.9542 131.733 77.377 131.047 76.3219 131.047ZM81.5424 131.047C80.9382 131.047 80.3249 131.318 80.0454 131.805V131.138H79.2608V137.396H80.0454V134.691C80.3249 135.187 80.9201 135.439 81.5514 135.439C82.7057 135.439 83.6527 134.582 83.6527 133.248C83.6527 131.922 82.6967 131.047 81.5424 131.047ZM81.4703 134.7C80.7849 134.7 80.0454 134.168 80.0454 133.257C80.0454 132.355 80.7217 131.787 81.4703 131.787C82.2458 131.787 82.8591 132.418 82.8591 133.257C82.8591 134.105 82.2458 134.7 81.4703 134.7ZM86.7224 131.047C86.1633 131.047 85.7575 131.354 85.5411 132.093V131.138H84.7475V135.349H85.5411V133.807C85.5411 132.698 85.8747 131.805 86.7134 131.805C86.8757 131.805 87.1012 131.841 87.3267 131.949L87.4529 131.21C87.3267 131.128 87.02 131.047 86.7224 131.047ZM90.0235 135.439C91.2229 135.439 92.233 134.564 92.233 133.23C92.233 131.895 91.2229 131.047 90.0235 131.047C88.8241 131.047 87.8231 131.895 87.8231 133.23C87.8231 134.564 88.8241 135.439 90.0235 135.439ZM90.0235 134.7C89.257 134.7 88.6167 134.105 88.6167 133.23C88.6167 132.364 89.257 131.787 90.0235 131.787C90.7991 131.787 91.4484 132.364 91.4484 133.23C91.4484 134.105 90.7991 134.7 90.0235 134.7ZM96.0964 131.138L94.8068 134.348L93.5082 131.138H92.6695L94.419 135.349H95.1856L96.9441 131.138H96.0964ZM100.986 131.138V131.796C100.706 131.3 100.111 131.047 99.4799 131.047C98.3256 131.047 97.3787 131.904 97.3787 133.239C97.3787 134.564 98.3346 135.439 99.489 135.439C100.093 135.439 100.706 135.169 100.986 134.682V135.349H101.771V131.138H100.986ZM99.5521 134.7C98.7855 134.7 98.1723 134.068 98.1723 133.23C98.1723 132.382 98.7855 131.787 99.5521 131.787C100.246 131.787 100.986 132.319 100.986 133.23C100.986 134.132 100.31 134.7 99.5521 134.7ZM105.327 131.047C104.867 131.047 104.182 131.264 103.93 131.778V131.138H103.145V135.349H103.93V133.067C103.93 132.157 104.633 131.823 105.219 131.823C105.805 131.823 106.238 132.256 106.238 132.959V135.349H107.023V132.914C107.032 131.733 106.373 131.047 105.327 131.047ZM110.299 131.138H109.389V129.541H108.604V131.138H107.846V131.814H108.604V135.349H109.389V131.814H110.299V131.138ZM115.057 133.23C115.057 131.895 114.164 131.047 112.964 131.047C111.765 131.047 110.8 131.895 110.8 133.23C110.8 134.564 111.765 135.439 112.964 135.439C113.776 135.439 114.534 135.06 114.903 134.33L114.218 134.059C113.984 134.483 113.506 134.7 112.992 134.7C112.27 134.7 111.729 134.33 111.612 133.581H115.039C115.048 133.464 115.057 133.347 115.057 133.23ZM111.621 132.905C111.747 132.148 112.252 131.787 112.964 131.787C113.659 131.787 114.173 132.184 114.272 132.905H111.621ZM118.317 133.627H121.447V132.869H118.317V133.627ZM126.512 134.24L127.901 132.644C128.28 132.22 128.55 131.715 128.55 131.147C128.55 130.073 127.784 129.361 126.602 129.361C125.421 129.361 124.735 130.082 124.591 131.138L125.664 131.318C125.737 130.804 126.034 130.461 126.557 130.461C127.017 130.461 127.342 130.741 127.342 131.138C127.342 131.336 127.179 131.643 126.936 131.94L124.627 134.709V135.349H128.604V134.24H126.512ZM131.743 135.43C133.457 135.43 133.926 134.086 133.926 132.409C133.926 130.705 133.457 129.361 131.743 129.361C130.021 129.361 129.543 130.705 129.543 132.409C129.543 134.086 130.021 135.43 131.743 135.43ZM131.743 134.33C130.977 134.33 130.742 133.482 130.742 132.409C130.742 131.318 130.977 130.461 131.743 130.461C132.501 130.461 132.726 131.318 132.726 132.409C132.726 133.482 132.501 134.33 131.743 134.33ZM136.693 134.24L138.082 132.644C138.46 132.22 138.731 131.715 138.731 131.147C138.731 130.073 137.964 129.361 136.783 129.361C135.602 129.361 134.916 130.082 134.772 131.138L135.845 131.318C135.917 130.804 136.215 130.461 136.738 130.461C137.198 130.461 137.522 130.741 137.522 131.138C137.522 131.336 137.36 131.643 137.117 131.94L134.808 134.709V135.349H138.785V134.24H136.693ZM141.87 129.361C140.553 129.361 139.687 130.218 139.687 131.345C139.687 132.373 140.481 133.248 141.68 133.248C142.249 133.248 142.672 133.04 142.961 132.752C142.916 133.672 142.393 134.33 141.653 134.33C141.266 134.33 140.905 134.132 140.715 133.735L139.76 134.258C140.12 135.06 140.887 135.43 141.662 135.43C143.322 135.43 144.16 133.942 144.16 132.193C144.16 130.515 143.25 129.361 141.87 129.361ZM141.843 132.247C141.284 132.238 140.887 131.868 140.887 131.354C140.887 130.831 141.293 130.461 141.879 130.461C142.456 130.47 142.862 130.849 142.862 131.372C142.853 131.886 142.429 132.247 141.843 132.247ZM149.641 133.167H148.74V129.442H148.036L144.69 133.87V134.222H147.54V135.349H148.74V134.222H149.641V133.167ZM146.377 133.167L147.54 131.606V133.167H146.377ZM152.605 129.361C151.289 129.361 150.423 130.218 150.423 131.345C150.423 132.373 151.217 133.248 152.416 133.248C152.984 133.248 153.408 133.04 153.697 132.752C153.651 133.672 153.128 134.33 152.389 134.33C152.001 134.33 151.64 134.132 151.451 133.735L150.495 134.258C150.856 135.06 151.622 135.43 152.398 135.43C154.057 135.43 154.896 133.942 154.896 132.193C154.896 130.515 153.985 129.361 152.605 129.361ZM152.578 132.247C152.019 132.238 151.622 131.868 151.622 131.354C151.622 130.831 152.028 130.461 152.614 130.461C153.191 130.47 153.597 130.849 153.597 131.372C153.588 131.886 153.164 132.247 152.578 132.247ZM158.023 129.361L155.57 130.38V131.489L156.932 130.966V135.349H158.122V129.361H158.023ZM161.546 135.43C163.259 135.43 163.728 134.086 163.728 132.409C163.728 130.705 163.259 129.361 161.546 129.361C159.823 129.361 159.345 130.705 159.345 132.409C159.345 134.086 159.823 135.43 161.546 135.43ZM161.546 134.33C160.779 134.33 160.544 133.482 160.544 132.409C160.544 131.318 160.779 130.461 161.546 130.461C162.303 130.461 162.529 131.318 162.529 132.409C162.529 133.482 162.303 134.33 161.546 134.33Z" fill="#0073CE"/>
<path opacity="0.3" d="M37.6958 149.392H185.369" stroke="#855B35" stroke-width="0.751517"/>
<path opacity="0.3" d="M37.6958 251.598H185.369" stroke="#855B35" stroke-width="0.751517"/>
<path d="M79.1493 176.307H81.1258C82.6965 176.307 83.7862 175.315 83.7862 173.804C83.7862 172.294 82.6965 171.294 81.1258 171.294H79.1493V176.307ZM80.2165 175.367V172.234H81.1258C82.1554 172.234 82.6965 172.917 82.6965 173.804C82.6965 174.653 82.1178 175.367 81.1258 175.367H80.2165ZM84.5435 176.307H88.0907V175.382H85.6107V174.218H88.0381V173.301H85.6107V172.211H88.0907V171.294H84.5435V176.307ZM90.6072 173.804C90.6072 175.382 91.8097 176.404 93.2751 176.404C94.1845 176.404 94.8984 176.029 95.4094 175.458V173.541H93.0196V174.458H94.3573V175.067C94.1394 175.262 93.7336 175.45 93.2751 175.45C92.3658 175.45 91.7045 174.751 91.7045 173.804C91.7045 172.857 92.3658 172.158 93.2751 172.158C93.8012 172.158 94.2296 172.436 94.4625 172.79L95.3493 172.309C94.966 171.715 94.3122 171.211 93.2751 171.211C91.8097 171.211 90.6072 172.218 90.6072 173.804ZM96.2566 176.307H97.3238V171.294H96.2566V176.307ZM98.3189 176.307H101.505V175.367H99.386V171.294H98.3189V176.307ZM102.253 176.307H104.973C105.928 176.307 106.431 175.706 106.431 174.954C106.431 174.323 106.003 173.804 105.469 173.722C105.943 173.624 106.333 173.203 106.333 172.572C106.333 171.903 105.845 171.294 104.89 171.294H102.253V176.307ZM103.32 173.308V172.203H104.657C105.018 172.203 105.244 172.444 105.244 172.752C105.244 173.075 105.018 173.308 104.657 173.308H103.32ZM103.32 175.397V174.218H104.695C105.116 174.218 105.341 174.488 105.341 174.804C105.341 175.164 105.101 175.397 104.695 175.397H103.32ZM107.236 176.307H110.783V175.382H108.303V174.218H110.73V173.301H108.303V172.211H110.783V171.294H107.236V176.307ZM114.45 176.307H115.675L114.548 174.398C115.089 174.27 115.645 173.797 115.645 172.91C115.645 171.978 115.007 171.294 113.962 171.294H111.617V176.307H112.684V174.511H113.466L114.45 176.307ZM114.556 172.902C114.556 173.323 114.232 173.594 113.804 173.594H112.684V172.211H113.804C114.232 172.211 114.556 172.482 114.556 172.902ZM117.53 176.307H118.605V172.234H120.063V171.294H116.065V172.234H117.53V176.307ZM120.323 173.804C120.323 175.315 121.428 176.397 122.938 176.397C124.456 176.397 125.561 175.315 125.561 173.804C125.561 172.294 124.456 171.211 122.938 171.211C121.428 171.211 120.323 172.294 120.323 173.804ZM124.464 173.804C124.464 174.736 123.863 175.45 122.938 175.45C122.014 175.45 121.42 174.736 121.42 173.804C121.42 172.865 122.014 172.158 122.938 172.158C123.863 172.158 124.464 172.865 124.464 173.804ZM128.233 176.307H129.3V174.511H130.577C131.66 174.511 132.261 173.782 132.261 172.91C132.261 172.031 131.667 171.294 130.577 171.294H128.233V176.307ZM131.171 172.902C131.171 173.323 130.856 173.594 130.435 173.594H129.3V172.211H130.435C130.856 172.211 131.171 172.489 131.171 172.902ZM135.756 176.307H136.981L135.853 174.398C136.394 174.27 136.951 173.797 136.951 172.91C136.951 171.978 136.312 171.294 135.267 171.294H132.922V176.307H133.99V174.511H134.771L135.756 176.307ZM135.861 172.902C135.861 173.323 135.538 173.594 135.109 173.594H133.99V172.211H135.109C135.538 172.211 135.861 172.482 135.861 172.902ZM141.261 176.307H142.426L140.495 171.294H139.157L137.218 176.307H138.39L138.706 175.442H140.945L141.261 176.307ZM139.826 172.218L140.652 174.518H138.991L139.826 172.218ZM142.889 176.307H144.865C146.436 176.307 147.526 175.315 147.526 173.804C147.526 172.294 146.436 171.294 144.865 171.294H142.889V176.307ZM143.956 175.367V172.234H144.865C145.895 172.234 146.436 172.917 146.436 173.804C146.436 174.653 145.857 175.367 144.865 175.367H143.956ZM148.042 173.804C148.042 175.315 149.147 176.397 150.658 176.397C152.176 176.397 153.281 175.315 153.281 173.804C153.281 172.294 152.176 171.211 150.658 171.211C149.147 171.211 148.042 172.294 148.042 173.804ZM152.183 173.804C152.183 174.736 151.582 175.45 150.658 175.45C149.733 175.45 149.14 174.736 149.14 173.804C149.14 172.865 149.733 172.158 150.658 172.158C151.582 172.158 152.183 172.865 152.183 173.804Z" fill="#855B35"/>
<path d="M79.1493 278.513H80.2165V276.717H81.4941C82.5762 276.717 83.1775 275.988 83.1775 275.116C83.1775 274.237 82.5838 273.5 81.4941 273.5H79.1493V278.513ZM82.0878 275.109C82.0878 275.53 81.7721 275.8 81.3513 275.8H80.2165V274.417H81.3513C81.7721 274.417 82.0878 274.695 82.0878 275.109ZM86.7908 278.513H87.9556L86.0242 273.5H84.6865L82.7476 278.513H83.92L84.2356 277.649H86.4751L86.7908 278.513ZM85.3554 274.425L86.182 276.724H84.5212L85.3554 274.425ZM91.2517 278.513H92.4767L91.3494 276.604C91.8905 276.476 92.4466 276.003 92.4466 275.116C92.4466 274.184 91.8079 273.5 90.7632 273.5H88.4185V278.513H89.4857V276.717H90.2672L91.2517 278.513ZM91.3569 275.109C91.3569 275.53 91.0338 275.8 90.6054 275.8H89.4857V274.417H90.6054C91.0338 274.417 91.3569 274.688 91.3569 275.109ZM96.7572 278.513H97.922L95.9906 273.5H94.6529L92.714 278.513H93.8864L94.202 277.649H96.4415L96.7572 278.513ZM95.3218 274.425L96.1485 276.724H94.4876L95.3218 274.425ZM102.698 278.603C103.84 278.603 104.471 277.994 104.832 277.371L103.915 276.927C103.705 277.341 103.254 277.656 102.698 277.656C101.826 277.656 101.164 276.957 101.164 276.01C101.164 275.064 101.826 274.365 102.698 274.365C103.254 274.365 103.705 274.688 103.915 275.094L104.832 274.643C104.479 274.019 103.84 273.418 102.698 273.418C101.232 273.418 100.067 274.47 100.067 276.01C100.067 277.551 101.232 278.603 102.698 278.603ZM108.925 278.513H110.09L108.159 273.5H106.821L104.882 278.513H106.054L106.37 277.649H108.61L108.925 278.513ZM107.49 274.425L108.317 276.724H106.656L107.49 274.425ZM113.386 278.513H114.611L113.484 276.604C114.025 276.476 114.581 276.003 114.581 275.116C114.581 274.184 113.942 273.5 112.898 273.5H110.553V278.513H111.62V276.717H112.402L113.386 278.513ZM113.491 275.109C113.491 275.53 113.168 275.8 112.74 275.8H111.62V274.417H112.74C113.168 274.417 113.491 274.688 113.491 275.109ZM115.142 276.01C115.142 277.521 116.246 278.603 117.757 278.603C119.275 278.603 120.38 277.521 120.38 276.01C120.38 274.5 119.275 273.418 117.757 273.418C116.246 273.418 115.142 274.5 115.142 276.01ZM119.282 276.01C119.282 276.942 118.681 277.656 117.757 277.656C116.833 277.656 116.239 276.942 116.239 276.01C116.239 275.071 116.833 274.365 117.757 274.365C118.681 274.365 119.282 275.071 119.282 276.01ZM121.129 278.513H124.315V277.574H122.196V273.5H121.129V278.513ZM130.495 278.513H131.66L129.728 273.5H128.39L126.452 278.513H127.624L127.94 277.649H130.179L130.495 278.513ZM129.059 274.425L129.886 276.724H128.225L129.059 274.425ZM134.956 278.513H136.181L135.053 276.604C135.594 276.476 136.151 276.003 136.151 275.116C136.151 274.184 135.512 273.5 134.467 273.5H132.122V278.513H133.19V276.717H133.971L134.956 278.513ZM135.061 275.109C135.061 275.53 134.738 275.8 134.309 275.8H133.19V274.417H134.309C134.738 274.417 135.061 274.688 135.061 275.109ZM140.461 278.513H141.626L139.695 273.5H138.357L136.418 278.513H137.59L137.906 277.649H140.145L140.461 278.513ZM139.026 274.425L139.852 276.724H138.192L139.026 274.425ZM144.394 273.08L145.612 271.997H144.733L143.726 273.08H144.394ZM141.839 276.514C141.839 277.746 142.553 278.603 144.086 278.603C145.604 278.603 146.318 277.754 146.318 276.506V273.5H145.236V276.476C145.236 277.175 144.853 277.656 144.086 277.656C143.305 277.656 142.921 277.175 142.921 276.476V273.5H141.839V276.514ZM146.658 278.115C147.019 278.468 147.5 278.603 148.003 278.603C149.033 278.603 149.769 278.055 149.769 276.867V273.5H148.702V276.852C148.702 277.341 148.394 277.656 147.92 277.656C147.575 277.656 147.319 277.483 147.124 277.296L146.658 278.115ZM150.523 276.01C150.523 277.521 151.628 278.603 153.138 278.603C154.656 278.603 155.761 277.521 155.761 276.01C155.761 274.5 154.656 273.418 153.138 273.418C151.628 273.418 150.523 274.5 150.523 276.01ZM154.664 276.01C154.664 276.942 154.063 277.656 153.138 277.656C152.214 277.656 151.62 276.942 151.62 276.01C151.62 275.071 152.214 274.365 153.138 274.365C154.063 274.365 154.664 275.071 154.664 276.01Z" fill="#855B35"/>
<path d="M39.7775 203.113H40.5516L42.5731 198.1H41.8592L40.1683 202.429L38.4774 198.1H37.7634L39.7775 203.113ZM44.9985 203.113H45.5621V200.618C45.5621 199.739 44.9233 199.393 44.1568 199.393C43.5631 199.393 43.0972 199.588 42.7064 199.994L42.9694 200.385C43.2925 200.039 43.6458 199.881 44.0816 199.881C44.6077 199.881 44.9985 200.159 44.9985 200.648V201.302C44.7054 200.963 44.2921 200.806 43.7961 200.806C43.1798 200.806 42.526 201.189 42.526 202.001C42.526 202.79 43.1798 203.203 43.7961 203.203C44.2845 203.203 44.6979 203.03 44.9985 202.699V203.113ZM44.9985 202.346C44.7805 202.647 44.3973 202.797 43.999 202.797C43.4729 202.797 43.1047 202.467 43.1047 202.008C43.1047 201.542 43.4729 201.211 43.999 201.211C44.3973 201.211 44.7805 201.362 44.9985 201.662V202.346ZM46.692 203.113H47.2556V198.1H46.692V203.113ZM49.9657 203.203C51.0704 203.203 51.7618 202.346 51.7618 201.294C51.7618 200.242 51.0704 199.393 49.9657 199.393C48.8609 199.393 48.1695 200.242 48.1695 201.294C48.1695 202.346 48.8609 203.203 49.9657 203.203ZM49.9657 202.699C49.1916 202.699 48.7557 202.038 48.7557 201.294C48.7557 200.558 49.1916 199.896 49.9657 199.896C50.7397 199.896 51.1681 200.558 51.1681 201.294C51.1681 202.038 50.7397 202.699 49.9657 202.699ZM52.6806 203.113H53.2443V200.543C53.4096 200.25 53.8831 199.964 54.2288 199.964C54.3189 199.964 54.3866 199.971 54.4542 199.987V199.408C53.9582 199.408 53.5374 199.686 53.2443 200.069V199.483H52.6806V203.113ZM38.282 219.113H40.5666C41.4834 219.113 42.017 218.564 42.017 217.76C42.017 217.159 41.5736 216.61 41.04 216.528C41.4985 216.43 41.9193 216.009 41.9193 215.378C41.9193 214.626 41.3857 214.1 40.514 214.1H38.282V219.113ZM38.9057 216.272V214.656H40.4088C40.9724 214.656 41.273 215.017 41.273 215.468C41.273 215.926 40.9724 216.272 40.4088 216.272H38.9057ZM38.9057 218.557V216.828H40.4388C41.0551 216.828 41.3707 217.234 41.3707 217.692C41.3707 218.226 41.025 218.557 40.4388 218.557H38.9057ZM45.2554 219.113H45.819V216.618C45.819 215.739 45.1802 215.393 44.4137 215.393C43.82 215.393 43.354 215.588 42.9632 215.994L43.2263 216.385C43.5494 216.039 43.9026 215.881 44.3385 215.881C44.8646 215.881 45.2554 216.159 45.2554 216.648V217.302C44.9623 216.963 44.5489 216.806 44.0529 216.806C43.4367 216.806 42.7829 217.189 42.7829 218.001C42.7829 218.79 43.4367 219.203 44.0529 219.203C44.5414 219.203 44.9547 219.03 45.2554 218.699V219.113ZM45.2554 218.346C45.0374 218.647 44.6541 218.797 44.2558 218.797C43.7298 218.797 43.3615 218.467 43.3615 218.008C43.3615 217.542 43.7298 217.211 44.2558 217.211C44.6541 217.211 45.0374 217.362 45.2554 217.662V218.346ZM49.3988 219.113H49.9624V216.565C49.9624 215.776 49.5641 215.393 48.8051 215.393C48.264 215.393 47.768 215.708 47.5125 216.009V215.483H46.9488V219.113H47.5125V216.46C47.7229 216.167 48.1438 215.896 48.5872 215.896C49.0756 215.896 49.3988 216.099 49.3988 216.738V219.113ZM50.8776 217.294C50.8776 218.376 51.6066 219.203 52.6888 219.203C53.3501 219.203 53.7409 218.932 54.019 218.572L53.6432 218.226C53.4027 218.549 53.0946 218.699 52.7189 218.699C51.9448 218.699 51.4638 218.098 51.4638 217.294C51.4638 216.49 51.9448 215.896 52.7189 215.896C53.0946 215.896 53.4027 216.039 53.6432 216.37L54.019 216.024C53.7409 215.663 53.3501 215.393 52.6888 215.393C51.6066 215.393 50.8776 216.219 50.8776 217.294ZM56.3946 219.203C57.4994 219.203 58.1908 218.346 58.1908 217.294C58.1908 216.242 57.4994 215.393 56.3946 215.393C55.2899 215.393 54.5985 216.242 54.5985 217.294C54.5985 218.346 55.2899 219.203 56.3946 219.203ZM56.3946 218.699C55.6206 218.699 55.1847 218.038 55.1847 217.294C55.1847 216.558 55.6206 215.896 56.3946 215.896C57.1687 215.896 57.5971 216.558 57.5971 217.294C57.5971 218.038 57.1687 218.699 56.3946 218.699ZM58.9969 215.844C58.9969 216.069 59.1848 216.257 59.4102 216.257C59.6357 216.257 59.8236 216.069 59.8236 215.844C59.8236 215.618 59.6357 215.43 59.4102 215.43C59.1848 215.43 58.9969 215.618 58.9969 215.844ZM58.9969 218.775C58.9969 219 59.1848 219.188 59.4102 219.188C59.6357 219.188 59.8236 219 59.8236 218.775C59.8236 218.549 59.6357 218.361 59.4102 218.361C59.1848 218.361 58.9969 218.549 58.9969 218.775ZM41.8817 235.113H42.5731L40.5516 230.1H39.7775L37.7634 235.113H38.4548L38.8982 234.001H41.4384L41.8817 235.113ZM40.1683 230.656L41.2505 233.444H39.0786L40.1683 230.656ZM43.1984 236.045C43.6268 236.466 44.0476 236.586 44.6639 236.586C45.5507 236.586 46.3924 236.21 46.3924 235.008V231.483H45.8287V232.032C45.5356 231.633 45.0998 231.393 44.6113 231.393C43.6569 231.393 42.9955 232.114 42.9955 233.279C42.9955 234.451 43.6644 235.158 44.6113 235.158C45.1223 235.158 45.5657 234.88 45.8287 234.512V235.03C45.8287 235.827 45.2651 236.12 44.6639 236.12C44.1453 236.12 43.7846 235.985 43.484 235.624L43.1984 236.045ZM45.8287 234.068C45.6333 234.384 45.1975 234.662 44.7466 234.662C44.0176 234.662 43.5817 234.076 43.5817 233.279C43.5817 232.475 44.0176 231.896 44.7466 231.896C45.1975 231.896 45.6333 232.167 45.8287 232.483V234.068ZM49.7157 230.934H50.099L49.3625 229.852H48.8214L48.1075 230.934H48.4908L49.092 230.138L49.7157 230.934ZM47.3109 233.294C47.3109 234.429 48.0849 235.203 49.1596 235.203C49.7533 235.203 50.2418 235.008 50.6025 234.647L50.332 234.279C50.0464 234.572 49.6255 234.737 49.2122 234.737C48.4306 234.737 47.9497 234.166 47.9046 233.482H50.843V233.339C50.843 232.25 50.1967 231.393 49.0995 231.393C48.0624 231.393 47.3109 232.242 47.3109 233.294ZM49.092 231.859C49.9186 231.859 50.2794 232.528 50.2869 233.069H47.9046C47.9346 232.513 48.3179 231.859 49.092 231.859ZM54.2059 235.113H54.7695V232.565C54.7695 231.776 54.3712 231.393 53.6122 231.393C53.0711 231.393 52.5751 231.708 52.3196 232.009V231.483H51.7559V235.113H52.3196V232.46C52.53 232.167 52.9508 231.896 53.3942 231.896C53.8827 231.896 54.2059 232.099 54.2059 232.738V235.113ZM55.6847 233.294C55.6847 234.376 56.4137 235.203 57.4959 235.203C58.1572 235.203 58.548 234.932 58.826 234.572L58.4503 234.226C58.2098 234.549 57.9017 234.699 57.5259 234.699C56.7519 234.699 56.2709 234.098 56.2709 233.294C56.2709 232.49 56.7519 231.896 57.5259 231.896C57.9017 231.896 58.2098 232.039 58.4503 232.37L58.826 232.024C58.548 231.663 58.1572 231.393 57.4959 231.393C56.4137 231.393 55.6847 232.219 55.6847 233.294ZM59.8941 230.874C60.1045 230.874 60.2773 230.701 60.2773 230.491C60.2773 230.281 60.1045 230.115 59.8941 230.115C59.6912 230.115 59.5183 230.281 59.5183 230.491C59.5183 230.701 59.6912 230.874 59.8941 230.874ZM59.616 235.113H60.1797V231.483H59.616V235.113ZM63.5736 235.113H64.1372V232.618C64.1372 231.739 63.4984 231.393 62.7319 231.393C62.1382 231.393 61.6722 231.588 61.2814 231.994L61.5445 232.385C61.8676 232.039 62.2208 231.881 62.6567 231.881C63.1828 231.881 63.5736 232.159 63.5736 232.648V233.302C63.2805 232.963 62.8671 232.806 62.3711 232.806C61.7549 232.806 61.1011 233.189 61.1011 234.001C61.1011 234.79 61.7549 235.203 62.3711 235.203C62.8596 235.203 63.273 235.03 63.5736 234.699V235.113ZM63.5736 234.346C63.3556 234.647 62.9724 234.797 62.5741 234.797C62.048 234.797 61.6798 234.467 61.6798 234.008C61.6798 233.542 62.048 233.211 62.5741 233.211C62.9724 233.211 63.3556 233.362 63.5736 233.662V234.346ZM65.1543 231.844C65.1543 232.069 65.3422 232.257 65.5677 232.257C65.7931 232.257 65.981 232.069 65.981 231.844C65.981 231.618 65.7931 231.43 65.5677 231.43C65.3422 231.43 65.1543 231.618 65.1543 231.844ZM65.1543 234.775C65.1543 235 65.3422 235.188 65.5677 235.188C65.7931 235.188 65.981 235 65.981 234.775C65.981 234.549 65.7931 234.361 65.5677 234.361C65.3422 234.361 65.1543 234.549 65.1543 234.775Z" fill="#855B35"/>
<path d="M41.0097 304.282C41.9191 304.282 42.5203 303.861 42.9411 303.29L42.4075 302.997C42.122 303.425 41.6034 303.726 41.0097 303.726C39.9351 303.726 39.1009 302.877 39.1009 301.689C39.1009 300.494 39.9351 299.653 41.0097 299.653C41.6034 299.653 42.122 299.961 42.4075 300.382L42.9336 300.088C42.5353 299.525 41.9191 299.096 41.0097 299.096C39.5894 299.096 38.4546 300.149 38.4546 301.689C38.4546 303.23 39.5894 304.282 41.0097 304.282ZM43.7361 304.192H44.3598V302.2H45.7501C46.7421 302.2 47.3208 301.509 47.3208 300.69C47.3208 299.871 46.7572 299.179 45.7501 299.179H43.7361V304.192ZM46.6745 300.69C46.6745 301.253 46.2687 301.644 45.675 301.644H44.3598V299.735H45.675C46.2687 299.735 46.6745 300.126 46.6745 300.69ZM48.1468 304.192H48.7706V301.907H51.3784V301.351H48.7706V299.735H51.431V299.179H48.1468V304.192ZM52.1434 300.923C52.1434 301.148 52.3313 301.336 52.5568 301.336C52.7822 301.336 52.9701 301.148 52.9701 300.923C52.9701 300.697 52.7822 300.509 52.5568 300.509C52.3313 300.509 52.1434 300.697 52.1434 300.923ZM52.1434 303.854C52.1434 304.079 52.3313 304.267 52.5568 304.267C52.7822 304.267 52.9701 304.079 52.9701 303.854C52.9701 303.628 52.7822 303.44 52.5568 303.44C52.3313 303.44 52.1434 303.628 52.1434 303.854ZM38.6575 320.192H40.9421C41.8589 320.192 42.3925 319.643 42.3925 318.839C42.3925 318.238 41.9491 317.689 41.4155 317.607C41.874 317.509 42.2948 317.088 42.2948 316.457C42.2948 315.705 41.7612 315.179 40.8895 315.179H38.6575V320.192ZM39.2812 317.351V315.735H40.7843C41.3479 315.735 41.6485 316.096 41.6485 316.547C41.6485 317.005 41.3479 317.351 40.7843 317.351H39.2812ZM39.2812 319.636V317.907H40.8143C41.4306 317.907 41.7462 318.313 41.7462 318.771C41.7462 319.305 41.4005 319.636 40.8143 319.636H39.2812ZM45.6308 320.192H46.1945V317.697C46.1945 316.817 45.5557 316.472 44.7891 316.472C44.1954 316.472 43.7295 316.667 43.3387 317.073L43.6017 317.464C43.9249 317.118 44.2781 316.96 44.714 316.96C45.2401 316.96 45.6308 317.238 45.6308 317.727V318.381C45.3378 318.042 44.9244 317.885 44.4284 317.885C43.8122 317.885 43.1584 318.268 43.1584 319.079C43.1584 319.869 43.8122 320.282 44.4284 320.282C44.9169 320.282 45.3302 320.109 45.6308 319.778V320.192ZM45.6308 319.425C45.4129 319.726 45.0296 319.876 44.6313 319.876C44.1053 319.876 43.737 319.545 43.737 319.087C43.737 318.621 44.1053 318.29 44.6313 318.29C45.0296 318.29 45.4129 318.441 45.6308 318.741V319.425ZM49.7743 320.192H50.3379V317.644C50.3379 316.855 49.9396 316.472 49.1806 316.472C48.6395 316.472 48.1435 316.787 47.888 317.088V316.562H47.3243V320.192H47.888V317.539C48.0984 317.246 48.5192 316.975 48.9626 316.975C49.4511 316.975 49.7743 317.178 49.7743 317.817V320.192ZM51.2531 318.373C51.2531 319.455 51.9821 320.282 53.0643 320.282C53.7256 320.282 54.1164 320.011 54.3945 319.651L54.0187 319.305C53.7782 319.628 53.4701 319.778 53.0943 319.778C52.3203 319.778 51.8393 319.177 51.8393 318.373C51.8393 317.569 52.3203 316.975 53.0943 316.975C53.4701 316.975 53.7782 317.118 54.0187 317.449L54.3945 317.103C54.1164 316.742 53.7256 316.472 53.0643 316.472C51.9821 316.472 51.2531 317.298 51.2531 318.373ZM56.7701 320.282C57.8749 320.282 58.5663 319.425 58.5663 318.373C58.5663 317.321 57.8749 316.472 56.7701 316.472C55.6654 316.472 54.974 317.321 54.974 318.373C54.974 319.425 55.6654 320.282 56.7701 320.282ZM56.7701 319.778C55.9961 319.778 55.5602 319.117 55.5602 318.373C55.5602 317.637 55.9961 316.975 56.7701 316.975C57.5442 316.975 57.9726 317.637 57.9726 318.373C57.9726 319.117 57.5442 319.778 56.7701 319.778ZM59.3724 316.923C59.3724 317.148 59.5603 317.336 59.7857 317.336C60.0112 317.336 60.199 317.148 60.199 316.923C60.199 316.697 60.0112 316.509 59.7857 316.509C59.5603 316.509 59.3724 316.697 59.3724 316.923ZM59.3724 319.854C59.3724 320.079 59.5603 320.267 59.7857 320.267C60.0112 320.267 60.199 320.079 60.199 319.854C60.199 319.628 60.0112 319.44 59.7857 319.44C59.5603 319.44 59.3724 319.628 59.3724 319.854ZM42.2572 336.192H42.9486L40.9271 331.179H40.153L38.1389 336.192H38.8303L39.2737 335.079H41.8138L42.2572 336.192ZM40.5438 331.735L41.626 334.523H39.4541L40.5438 331.735ZM43.5739 337.124C44.0023 337.544 44.4231 337.665 45.0394 337.665C45.9262 337.665 46.7679 337.289 46.7679 336.087V332.562H46.2042V333.111C45.9111 332.712 45.4753 332.472 44.9868 332.472C44.0323 332.472 43.371 333.193 43.371 334.358C43.371 335.53 44.0399 336.237 44.9868 336.237C45.4978 336.237 45.9412 335.959 46.2042 335.591V336.109C46.2042 336.906 45.6406 337.199 45.0394 337.199C44.5208 337.199 44.1601 337.064 43.8595 336.703L43.5739 337.124ZM46.2042 335.147C46.0088 335.463 45.573 335.741 45.122 335.741C44.3931 335.741 43.9572 335.155 43.9572 334.358C43.9572 333.554 44.3931 332.975 45.122 332.975C45.573 332.975 46.0088 333.246 46.2042 333.561V335.147ZM50.0912 332.013H50.4745L49.738 330.931H49.1969L48.483 332.013H48.8662L49.4675 331.217L50.0912 332.013ZM47.6864 334.373C47.6864 335.508 48.4604 336.282 49.5351 336.282C50.1288 336.282 50.6173 336.087 50.978 335.726L50.7075 335.358C50.4219 335.651 50.001 335.816 49.5877 335.816C48.8061 335.816 48.3251 335.245 48.2801 334.561H51.2185V334.418C51.2185 333.328 50.5722 332.472 49.475 332.472C48.4379 332.472 47.6864 333.321 47.6864 334.373ZM49.4675 332.938C50.2941 332.938 50.6548 333.607 50.6624 334.148H48.2801C48.3101 333.591 48.6934 332.938 49.4675 332.938ZM54.5813 336.192H55.145V333.644C55.145 332.855 54.7467 332.472 53.9876 332.472C53.4466 332.472 52.9506 332.787 52.695 333.088V332.562H52.1314V336.192H52.695V333.539C52.9055 333.246 53.3263 332.975 53.7697 332.975C54.2582 332.975 54.5813 333.178 54.5813 333.817V336.192ZM56.0602 334.373C56.0602 335.455 56.7892 336.282 57.8713 336.282C58.5327 336.282 58.9235 336.011 59.2015 335.651L58.8258 335.305C58.5853 335.628 58.2772 335.778 57.9014 335.778C57.1273 335.778 56.6464 335.177 56.6464 334.373C56.6464 333.569 57.1273 332.975 57.9014 332.975C58.2772 332.975 58.5853 333.118 58.8258 333.449L59.2015 333.103C58.9235 332.742 58.5327 332.472 57.8713 332.472C56.7892 332.472 56.0602 333.298 56.0602 334.373ZM60.2696 331.953C60.48 331.953 60.6528 331.78 60.6528 331.57C60.6528 331.359 60.48 331.194 60.2696 331.194C60.0667 331.194 59.8938 331.359 59.8938 331.57C59.8938 331.78 60.0667 331.953 60.2696 331.953ZM59.9915 336.192H60.5551V332.562H59.9915V336.192ZM63.9491 336.192H64.5127V333.697C64.5127 332.817 63.8739 332.472 63.1074 332.472C62.5137 332.472 62.0477 332.667 61.6569 333.073L61.92 333.464C62.2431 333.118 62.5963 332.96 63.0322 332.96C63.5583 332.96 63.9491 333.238 63.9491 333.727V334.381C63.656 334.042 63.2426 333.885 62.7466 333.885C62.1304 333.885 61.4766 334.268 61.4766 335.079C61.4766 335.869 62.1304 336.282 62.7466 336.282C63.2351 336.282 63.6485 336.109 63.9491 335.778V336.192ZM63.9491 335.425C63.7311 335.726 63.3478 335.876 62.9495 335.876C62.4235 335.876 62.0552 335.545 62.0552 335.087C62.0552 334.621 62.4235 334.29 62.9495 334.29C63.3478 334.29 63.7311 334.441 63.9491 334.741V335.425ZM65.5298 332.923C65.5298 333.148 65.7177 333.336 65.9432 333.336C66.1686 333.336 66.3565 333.148 66.3565 332.923C66.3565 332.697 66.1686 332.509 65.9432 332.509C65.7177 332.509 65.5298 332.697 65.5298 332.923ZM65.5298 335.854C65.5298 336.079 65.7177 336.267 65.9432 336.267C66.1686 336.267 66.3565 336.079 66.3565 335.854C66.3565 335.628 66.1686 335.44 65.9432 335.44C65.7177 335.44 65.5298 335.628 65.5298 335.854Z" fill="#855B35"/>
<path d="M82.0953 203.113H82.967L81.6819 201.106C82.3207 201.024 82.9294 200.543 82.9294 199.641C82.9294 198.716 82.2756 198.1 81.3212 198.1H79.2094V203.113H79.961V201.181H80.9004L82.0953 203.113ZM82.1554 199.641C82.1554 200.167 81.7646 200.52 81.2235 200.52H79.961V198.762H81.2235C81.7646 198.762 82.1554 199.115 82.1554 199.641ZM87.4623 201.692C87.4623 200.693 86.6357 200.407 85.8541 200.197V198.731C86.2524 198.799 86.6206 198.979 86.9062 199.28L87.3496 198.724C86.9738 198.341 86.4778 198.1 85.8541 198.04V197.341H85.3205V198.033C84.3886 198.1 83.7498 198.679 83.7498 199.453C83.7498 200.4 84.554 200.678 85.3205 200.873V202.512C84.7569 202.444 84.3135 202.151 84.0204 201.828L83.592 202.406C83.9753 202.835 84.5464 203.143 85.3205 203.195V203.864H85.8541V203.188C86.9964 203.098 87.4623 202.414 87.4623 201.692ZM84.5239 199.4C84.5239 199.01 84.8395 198.739 85.3205 198.701V200.054C84.8696 199.926 84.5239 199.761 84.5239 199.4ZM85.8541 202.512V201.016C86.3275 201.159 86.6958 201.332 86.6958 201.76C86.6958 202.076 86.4703 202.444 85.8541 202.512ZM89.9306 202.384C90.2538 202.835 90.9001 203.203 91.7719 203.203C92.9067 203.203 93.6056 202.594 93.6056 201.753C93.6056 200.963 92.9142 200.573 92.4407 200.528C92.9367 200.437 93.5304 200.069 93.5304 199.37C93.5304 198.529 92.7939 198.025 91.7719 198.025C90.9677 198.025 90.374 198.363 89.9983 198.807L90.3966 199.273C90.7648 198.897 91.1782 198.694 91.7042 198.694C92.2979 198.694 92.7789 198.964 92.7789 199.475C92.7789 199.994 92.2829 200.219 91.6742 200.219C91.4788 200.219 91.2157 200.219 91.1331 200.212V200.896C91.2082 200.888 91.4713 200.888 91.6742 200.888C92.4031 200.888 92.854 201.121 92.854 201.677C92.854 202.203 92.4407 202.534 91.7493 202.534C91.1857 202.534 90.6671 202.279 90.3515 201.895L89.9306 202.384ZM94.4054 202.722C94.4054 202.978 94.6158 203.195 94.8713 203.195C95.1269 203.195 95.3448 202.978 95.3448 202.722C95.3448 202.467 95.1269 202.256 94.8713 202.256C94.6158 202.256 94.4054 202.467 94.4054 202.722ZM96.1661 203.113H99.6982V202.451H97.361C98.7363 201.392 99.6756 200.513 99.6756 199.536C99.6756 198.536 98.8264 198.025 97.9246 198.025C97.2257 198.025 96.5418 198.303 96.1285 198.822L96.5719 199.31C96.88 198.942 97.3384 198.694 97.9321 198.694C98.4206 198.694 98.9091 198.949 98.9091 199.536C98.9091 200.325 98.0449 201.076 96.1661 202.519V203.113ZM100.561 200.61C100.561 201.85 101.132 203.203 102.523 203.203C103.913 203.203 104.484 201.85 104.484 200.61C104.484 199.37 103.913 198.025 102.523 198.025C101.132 198.025 100.561 199.37 100.561 200.61ZM103.717 200.61C103.717 201.587 103.409 202.534 102.523 202.534C101.636 202.534 101.328 201.587 101.328 200.61C101.328 199.633 101.636 198.694 102.523 198.694C103.409 198.694 103.717 199.633 103.717 200.61ZM105.177 200.61C105.177 201.85 105.748 203.203 107.139 203.203C108.529 203.203 109.1 201.85 109.1 200.61C109.1 199.37 108.529 198.025 107.139 198.025C105.748 198.025 105.177 199.37 105.177 200.61ZM108.334 200.61C108.334 201.587 108.026 202.534 107.139 202.534C106.252 202.534 105.944 201.587 105.944 200.61C105.944 199.633 106.252 198.694 107.139 198.694C108.026 198.694 108.334 199.633 108.334 200.61ZM109.979 204.09C110.362 203.819 110.64 203.368 110.64 202.88C110.64 202.482 110.392 202.256 110.114 202.256C109.859 202.256 109.656 202.459 109.656 202.715C109.656 202.963 109.829 203.143 110.062 203.143C110.099 203.143 110.159 203.128 110.174 203.128C110.137 203.376 109.904 203.676 109.663 203.827L109.979 204.09ZM111.371 200.61C111.371 201.85 111.943 203.203 113.333 203.203C114.723 203.203 115.294 201.85 115.294 200.61C115.294 199.37 114.723 198.025 113.333 198.025C111.943 198.025 111.371 199.37 111.371 200.61ZM114.528 200.61C114.528 201.587 114.22 202.534 113.333 202.534C112.446 202.534 112.138 201.587 112.138 200.61C112.138 199.633 112.446 198.694 113.333 198.694C114.22 198.694 114.528 199.633 114.528 200.61ZM115.988 200.61C115.988 201.85 116.559 203.203 117.949 203.203C119.339 203.203 119.911 201.85 119.911 200.61C119.911 199.37 119.339 198.025 117.949 198.025C116.559 198.025 115.988 199.37 115.988 200.61ZM119.144 200.61C119.144 201.587 118.836 202.534 117.949 202.534C117.062 202.534 116.754 201.587 116.754 200.61C116.754 199.633 117.062 198.694 117.949 198.694C118.836 198.694 119.144 199.633 119.144 200.61ZM78.999 216.618C78.999 217.993 79.5627 219.203 80.9981 219.203C82.1028 219.203 82.8017 218.444 82.8017 217.542C82.8017 216.475 82.0427 215.934 81.1408 215.934C80.5246 215.934 79.9835 216.332 79.7656 216.67C79.758 216.618 79.758 216.565 79.758 216.505C79.758 215.573 80.2165 214.694 81.1258 214.694C81.6218 214.694 81.9149 214.882 82.1704 215.175L82.5387 214.604C82.2155 214.258 81.7571 214.025 81.1258 214.025C79.6904 214.025 78.999 215.212 78.999 216.618ZM82.0427 217.565C82.0427 218.008 81.6819 218.534 80.9605 218.534C80.1413 218.534 79.8332 217.835 79.7731 217.249C80.0361 216.851 80.487 216.58 80.953 216.58C81.5467 216.58 82.0427 216.896 82.0427 217.565ZM83.5886 218.414C83.9793 218.902 84.5505 219.203 85.4072 219.203C86.4669 219.203 87.2484 218.557 87.2484 217.527C87.2484 216.498 86.4894 215.919 85.6477 215.919C85.1592 215.919 84.7384 216.122 84.4979 216.362V214.762H86.9178V214.1H83.7464V216.851L84.2875 217.024C84.6181 216.708 84.9789 216.573 85.4147 216.573C86.061 216.573 86.4894 216.956 86.4894 217.557C86.4894 218.106 86.0535 218.534 85.3997 218.534C84.8135 218.534 84.3626 218.309 84.0319 217.903L83.5886 218.414ZM88.058 218.414C88.4488 218.902 89.02 219.203 89.8767 219.203C90.9363 219.203 91.7179 218.557 91.7179 217.527C91.7179 216.498 90.9589 215.919 90.1172 215.919C89.6287 215.919 89.2078 216.122 88.9674 216.362V214.762H91.3872V214.1H88.2158V216.851L88.7569 217.024C89.0876 216.708 89.4483 216.573 89.8842 216.573C90.5305 216.573 90.9589 216.956 90.9589 217.557C90.9589 218.106 90.523 218.534 89.8692 218.534C89.283 218.534 88.8321 218.309 88.5014 217.903L88.058 218.414ZM96.1695 217.587H97.9732V217.001H96.1695V217.587ZM100.691 219.113H103.103C104.028 219.113 104.554 218.549 104.554 217.76C104.554 217.151 104.118 216.61 103.584 216.528C104.043 216.43 104.456 216.009 104.456 215.378C104.456 214.649 103.937 214.1 103.043 214.1H100.691V219.113ZM101.442 216.227V214.762H102.9C103.404 214.762 103.682 215.085 103.682 215.498C103.682 215.911 103.404 216.227 102.9 216.227H101.442ZM101.442 218.451V216.888H102.938C103.494 216.888 103.78 217.249 103.78 217.662C103.78 218.151 103.464 218.451 102.938 218.451H101.442ZM107.708 219.113H108.384V216.663C108.384 215.739 107.715 215.393 106.926 215.393C106.34 215.393 105.844 215.588 105.438 215.987L105.731 216.452C106.054 216.129 106.408 215.971 106.821 215.971C107.339 215.971 107.708 216.242 107.708 216.693V217.294C107.43 216.971 107.009 216.813 106.52 216.813C105.912 216.813 105.258 217.174 105.258 218.001C105.258 218.797 105.919 219.203 106.52 219.203C107.009 219.203 107.422 219.03 107.708 218.715V219.113ZM107.708 218.316C107.505 218.587 107.152 218.73 106.776 218.73C106.287 218.73 105.942 218.436 105.942 218.008C105.942 217.58 106.287 217.287 106.776 217.287C107.152 217.287 107.505 217.429 107.708 217.7V218.316ZM111.918 219.113H112.594V216.565C112.594 215.799 112.196 215.393 111.429 215.393C110.866 215.393 110.385 215.701 110.144 215.994V215.483H109.468V219.113H110.144V216.52C110.34 216.25 110.723 215.994 111.144 215.994C111.61 215.994 111.918 216.189 111.918 216.791V219.113ZM113.44 217.294C113.44 218.384 114.192 219.203 115.289 219.203C115.973 219.203 116.386 218.917 116.649 218.564L116.198 218.151C115.981 218.451 115.687 218.602 115.319 218.602C114.605 218.602 114.147 218.046 114.147 217.294C114.147 216.543 114.605 215.994 115.319 215.994C115.687 215.994 115.981 216.137 116.198 216.445L116.649 216.032C116.386 215.678 115.973 215.393 115.289 215.393C114.192 215.393 113.44 216.204 113.44 217.294ZM119.002 219.203C120.137 219.203 120.836 218.346 120.836 217.294C120.836 216.25 120.137 215.393 119.002 215.393C117.875 215.393 117.169 216.25 117.169 217.294C117.169 218.346 117.875 219.203 119.002 219.203ZM119.002 218.602C118.281 218.602 117.875 217.986 117.875 217.294C117.875 216.61 118.281 215.994 119.002 215.994C119.731 215.994 120.13 216.61 120.13 217.294C120.13 217.986 119.731 218.602 119.002 218.602ZM125.12 219.113H126.06L128.051 214.1H127.194L125.586 218.294L123.985 214.1H123.129L125.12 219.113ZM129.798 219.203C130.933 219.203 131.632 218.346 131.632 217.294C131.632 216.25 130.933 215.393 129.798 215.393C128.671 215.393 127.964 216.25 127.964 217.294C127.964 218.346 128.671 219.203 129.798 219.203ZM129.798 218.602C129.077 218.602 128.671 217.986 128.671 217.294C128.671 216.61 129.077 215.994 129.798 215.994C130.527 215.994 130.925 216.61 130.925 217.294C130.925 217.986 130.527 218.602 129.798 218.602ZM133.49 219.203C133.843 219.203 134.054 219.105 134.196 218.97L134.024 218.459C133.956 218.534 133.813 218.602 133.655 218.602C133.422 218.602 133.302 218.414 133.302 218.158V216.077H134.039V215.483H133.302V214.491H132.626V215.483H132.025V216.077H132.626V218.309C132.626 218.88 132.919 219.203 133.49 219.203ZM136.396 219.203C137.531 219.203 138.23 218.346 138.23 217.294C138.23 216.25 137.531 215.393 136.396 215.393C135.269 215.393 134.562 216.25 134.562 217.294C134.562 218.346 135.269 219.203 136.396 219.203ZM136.396 218.602C135.674 218.602 135.269 217.986 135.269 217.294C135.269 216.61 135.674 215.994 136.396 215.994C137.125 215.994 137.523 216.61 137.523 217.294C137.523 217.986 137.125 218.602 136.396 218.602ZM139.088 219.113H139.765V216.588C139.922 216.317 140.381 216.062 140.719 216.062C140.809 216.062 140.884 216.069 140.952 216.084V215.4C140.471 215.4 140.043 215.678 139.765 216.039V215.483H139.088V219.113ZM143.867 219.113H144.543V216.663C144.543 215.739 143.875 215.393 143.085 215.393C142.499 215.393 142.003 215.588 141.597 215.987L141.891 216.452C142.214 216.129 142.567 215.971 142.98 215.971C143.499 215.971 143.867 216.242 143.867 216.693V217.294C143.589 216.971 143.168 216.813 142.68 216.813C142.071 216.813 141.417 217.174 141.417 218.001C141.417 218.797 142.078 219.203 142.68 219.203C143.168 219.203 143.581 219.03 143.867 218.715V219.113ZM143.867 218.316C143.664 218.587 143.311 218.73 142.935 218.73C142.447 218.73 142.101 218.436 142.101 218.008C142.101 217.58 142.447 217.287 142.935 217.287C143.311 217.287 143.664 217.429 143.867 217.7V218.316ZM148.077 219.113H148.754V216.565C148.754 215.799 148.355 215.393 147.589 215.393C147.025 215.393 146.544 215.701 146.304 215.994V215.483H145.627V219.113H146.304V216.52C146.499 216.25 146.882 215.994 147.303 215.994C147.769 215.994 148.077 216.189 148.077 216.791V219.113ZM150.825 219.203C151.178 219.203 151.388 219.105 151.531 218.97L151.358 218.459C151.291 218.534 151.148 218.602 150.99 218.602C150.757 218.602 150.637 218.414 150.637 218.158V216.077H151.373V215.483H150.637V214.491H149.961V215.483H149.359V216.077H149.961V218.309C149.961 218.88 150.254 219.203 150.825 219.203ZM152.453 214.874C152.694 214.874 152.889 214.686 152.889 214.446C152.889 214.205 152.694 214.01 152.453 214.01C152.22 214.01 152.017 214.205 152.017 214.446C152.017 214.686 152.22 214.874 152.453 214.874ZM152.122 219.113H152.799V215.483H152.122V219.113ZM158.288 219.113H158.964V216.49C158.964 215.761 158.603 215.393 157.935 215.393C157.401 215.393 156.92 215.731 156.71 216.069C156.597 215.678 156.274 215.393 155.725 215.393C155.184 215.393 154.703 215.769 154.553 215.994V215.483H153.876V219.113H154.553V216.52C154.733 216.257 155.086 215.994 155.44 215.994C155.898 215.994 156.078 216.272 156.078 216.693V219.113H156.755V216.513C156.928 216.25 157.288 215.994 157.657 215.994C158.1 215.994 158.288 216.272 158.288 216.693V219.113ZM81.5692 235.203C82.5537 235.203 83.1624 234.73 83.5607 234.143L82.9219 233.805C82.6589 234.226 82.1629 234.534 81.5692 234.534C80.5547 234.534 79.7731 233.73 79.7731 232.61C79.7731 231.483 80.5547 230.686 81.5692 230.686C82.1629 230.686 82.6589 230.995 82.9219 231.415L83.5607 231.077C83.1699 230.491 82.5537 230.018 81.5692 230.018C80.1413 230.018 78.999 231.07 78.999 232.61C78.999 234.151 80.1413 235.203 81.5692 235.203ZM85.9033 235.203C87.0381 235.203 87.737 234.346 87.737 233.294C87.737 232.25 87.0381 231.393 85.9033 231.393C84.776 231.393 84.0696 232.25 84.0696 233.294C84.0696 234.346 84.776 235.203 85.9033 235.203ZM85.9033 234.602C85.1818 234.602 84.776 233.986 84.776 233.294C84.776 232.61 85.1818 231.994 85.9033 231.994C86.6323 231.994 87.0306 232.61 87.0306 233.294C87.0306 233.986 86.6323 234.602 85.9033 234.602ZM91.0457 235.113H91.722V232.565C91.722 231.799 91.3237 231.393 90.5572 231.393C89.9935 231.393 89.5126 231.701 89.2721 231.994V231.483H88.5957V235.113H89.2721V232.52C89.4675 232.25 89.8507 231.994 90.2716 231.994C90.7375 231.994 91.0457 232.189 91.0457 232.791V235.113ZM93.7932 235.203C94.1464 235.203 94.3568 235.105 94.4996 234.97L94.3267 234.459C94.2591 234.534 94.1163 234.602 93.9585 234.602C93.7255 234.602 93.6053 234.414 93.6053 234.158V232.077H94.3418V231.483H93.6053V230.491H92.9289V231.483H92.3277V232.077H92.9289V234.309C92.9289 234.88 93.222 235.203 93.7932 235.203ZM97.3303 235.113H98.0066V232.663C98.0066 231.739 97.3378 231.393 96.5487 231.393C95.9625 231.393 95.4665 231.588 95.0607 231.987L95.3538 232.452C95.6769 232.129 96.0301 231.971 96.4435 231.971C96.962 231.971 97.3303 232.242 97.3303 232.693V233.294C97.0522 232.971 96.6314 232.813 96.1429 232.813C95.5341 232.813 94.8803 233.174 94.8803 234.001C94.8803 234.797 95.5417 235.203 96.1429 235.203C96.6314 235.203 97.0447 235.03 97.3303 234.715V235.113ZM97.3303 234.316C97.1274 234.587 96.7741 234.73 96.3984 234.73C95.9099 234.73 95.5642 234.436 95.5642 234.008C95.5642 233.58 95.9099 233.287 96.3984 233.287C96.7741 233.287 97.1274 233.429 97.3303 233.7V234.316ZM98.9703 231.904C98.9703 232.152 99.1807 232.37 99.4362 232.37C99.6917 232.37 99.9097 232.152 99.9097 231.904C99.9097 231.648 99.6917 231.43 99.4362 231.43C99.1807 231.43 98.9703 231.648 98.9703 231.904ZM98.9703 234.722C98.9703 234.978 99.1807 235.195 99.4362 235.195C99.6917 235.195 99.9097 234.978 99.9097 234.722C99.9097 234.467 99.6917 234.256 99.4362 234.256C99.1807 234.256 98.9703 234.467 98.9703 234.722ZM102.623 232.61C102.623 233.85 103.195 235.203 104.585 235.203C105.975 235.203 106.546 233.85 106.546 232.61C106.546 231.37 105.975 230.025 104.585 230.025C103.195 230.025 102.623 231.37 102.623 232.61ZM105.78 232.61C105.78 233.587 105.472 234.534 104.585 234.534C103.698 234.534 103.39 233.587 103.39 232.61C103.39 231.633 103.698 230.694 104.585 230.694C105.472 230.694 105.78 231.633 105.78 232.61ZM107.24 232.61C107.24 233.85 107.811 235.203 109.201 235.203C110.591 235.203 111.163 233.85 111.163 232.61C111.163 231.37 110.591 230.025 109.201 230.025C107.811 230.025 107.24 231.37 107.24 232.61ZM110.396 232.61C110.396 233.587 110.088 234.534 109.201 234.534C108.314 234.534 108.006 233.587 108.006 232.61C108.006 231.633 108.314 230.694 109.201 230.694C110.088 230.694 110.396 231.633 110.396 232.61ZM111.856 232.61C111.856 233.85 112.427 235.203 113.817 235.203C115.208 235.203 115.779 233.85 115.779 232.61C115.779 231.37 115.208 230.025 113.817 230.025C112.427 230.025 111.856 231.37 111.856 232.61ZM115.012 232.61C115.012 233.587 114.704 234.534 113.817 234.534C112.931 234.534 112.622 233.587 112.622 232.61C112.622 231.633 112.931 230.694 113.817 230.694C114.704 230.694 115.012 231.633 115.012 232.61ZM116.472 232.61C116.472 233.85 117.043 235.203 118.434 235.203C119.824 235.203 120.395 233.85 120.395 232.61C120.395 231.37 119.824 230.025 118.434 230.025C117.043 230.025 116.472 231.37 116.472 232.61ZM119.628 232.61C119.628 233.587 119.32 234.534 118.434 234.534C117.547 234.534 117.239 233.587 117.239 232.61C117.239 231.633 117.547 230.694 118.434 230.694C119.32 230.694 119.628 231.633 119.628 232.61ZM121.088 232.61C121.088 233.85 121.66 235.203 123.05 235.203C124.44 235.203 125.011 233.85 125.011 232.61C125.011 231.37 124.44 230.025 123.05 230.025C121.66 230.025 121.088 231.37 121.088 232.61ZM124.245 232.61C124.245 233.587 123.937 234.534 123.05 234.534C122.163 234.534 121.855 233.587 121.855 232.61C121.855 231.633 122.163 230.694 123.05 230.694C123.937 230.694 124.245 231.633 124.245 232.61ZM125.584 233.587H127.388V233.001H125.584V233.587ZM127.958 232.61C127.958 233.85 128.529 235.203 129.919 235.203C131.309 235.203 131.881 233.85 131.881 232.61C131.881 231.37 131.309 230.025 129.919 230.025C128.529 230.025 127.958 231.37 127.958 232.61ZM131.114 232.61C131.114 233.587 130.806 234.534 129.919 234.534C129.032 234.534 128.724 233.587 128.724 232.61C128.724 231.633 129.032 230.694 129.919 230.694C130.806 230.694 131.114 231.633 131.114 232.61Z" fill="#855B35"/>
<path d="M78.999 303.192C78.999 304.432 79.5702 305.785 80.9605 305.785C82.3508 305.785 82.9219 304.432 82.9219 303.192C82.9219 301.952 82.3508 300.607 80.9605 300.607C79.5702 300.607 78.999 301.952 78.999 303.192ZM82.1554 303.192C82.1554 304.169 81.8473 305.116 80.9605 305.116C80.0737 305.116 79.7656 304.169 79.7656 303.192C79.7656 302.215 80.0737 301.276 80.9605 301.276C81.8473 301.276 82.1554 302.215 82.1554 303.192ZM83.6153 303.192C83.6153 304.432 84.1864 305.785 85.5767 305.785C86.967 305.785 87.5382 304.432 87.5382 303.192C87.5382 301.952 86.967 300.607 85.5767 300.607C84.1864 300.607 83.6153 301.952 83.6153 303.192ZM86.7716 303.192C86.7716 304.169 86.4635 305.116 85.5767 305.116C84.6899 305.116 84.3818 304.169 84.3818 303.192C84.3818 302.215 84.6899 301.276 85.5767 301.276C86.4635 301.276 86.7716 302.215 86.7716 303.192ZM88.0938 305.304C88.0938 305.56 88.3043 305.777 88.5598 305.777C88.8153 305.777 89.0332 305.56 89.0332 305.304C89.0332 305.049 88.8153 304.838 88.5598 304.838C88.3043 304.838 88.0938 305.049 88.0938 305.304ZM89.8094 303.192C89.8094 304.432 90.3806 305.785 91.7709 305.785C93.1612 305.785 93.7323 304.432 93.7323 303.192C93.7323 301.952 93.1612 300.607 91.7709 300.607C90.3806 300.607 89.8094 301.952 89.8094 303.192ZM92.9658 303.192C92.9658 304.169 92.6577 305.116 91.7709 305.116C90.8841 305.116 90.576 304.169 90.576 303.192C90.576 302.215 90.8841 301.276 91.7709 301.276C92.6577 301.276 92.9658 302.215 92.9658 303.192ZM94.4257 303.192C94.4257 304.432 94.9968 305.785 96.3871 305.785C97.7774 305.785 98.3486 304.432 98.3486 303.192C98.3486 301.952 97.7774 300.607 96.3871 300.607C94.9968 300.607 94.4257 301.952 94.4257 303.192ZM97.582 303.192C97.582 304.169 97.2739 305.116 96.3871 305.116C95.5003 305.116 95.1922 304.169 95.1922 303.192C95.1922 302.215 95.5003 301.276 96.3871 301.276C97.2739 301.276 97.582 302.215 97.582 303.192ZM99.0419 303.192C99.0419 304.432 99.6131 305.785 101.003 305.785C102.394 305.785 102.965 304.432 102.965 303.192C102.965 301.952 102.394 300.607 101.003 300.607C99.6131 300.607 99.0419 301.952 99.0419 303.192ZM102.198 303.192C102.198 304.169 101.89 305.116 101.003 305.116C100.117 305.116 99.8085 304.169 99.8085 303.192C99.8085 302.215 100.117 301.276 101.003 301.276C101.89 301.276 102.198 302.215 102.198 303.192ZM103.52 305.304C103.52 305.56 103.731 305.777 103.986 305.777C104.242 305.777 104.46 305.56 104.46 305.304C104.46 305.049 104.242 304.838 103.986 304.838C103.731 304.838 103.52 305.049 103.52 305.304ZM105.236 303.192C105.236 304.432 105.807 305.785 107.198 305.785C108.588 305.785 109.159 304.432 109.159 303.192C109.159 301.952 108.588 300.607 107.198 300.607C105.807 300.607 105.236 301.952 105.236 303.192ZM108.392 303.192C108.392 304.169 108.084 305.116 107.198 305.116C106.311 305.116 106.003 304.169 106.003 303.192C106.003 302.215 106.311 301.276 107.198 301.276C108.084 301.276 108.392 302.215 108.392 303.192ZM109.852 303.192C109.852 304.432 110.423 305.785 111.814 305.785C113.204 305.785 113.775 304.432 113.775 303.192C113.775 301.952 113.204 300.607 111.814 300.607C110.423 300.607 109.852 301.952 109.852 303.192ZM113.009 303.192C113.009 304.169 112.701 305.116 111.814 305.116C110.927 305.116 110.619 304.169 110.619 303.192C110.619 302.215 110.927 301.276 111.814 301.276C112.701 301.276 113.009 302.215 113.009 303.192ZM114.469 303.192C114.469 304.432 115.04 305.785 116.43 305.785C117.82 305.785 118.391 304.432 118.391 303.192C118.391 301.952 117.82 300.607 116.43 300.607C115.04 300.607 114.469 301.952 114.469 303.192ZM117.625 303.192C117.625 304.169 117.317 305.116 116.43 305.116C115.543 305.116 115.235 304.169 115.235 303.192C115.235 302.215 115.543 301.276 116.43 301.276C117.317 301.276 117.625 302.215 117.625 303.192ZM118.739 305.845H119.258L121.039 300.532H120.52L118.739 305.845ZM121.382 303.192C121.382 304.432 121.953 305.785 123.343 305.785C124.734 305.785 125.305 304.432 125.305 303.192C125.305 301.952 124.734 300.607 123.343 300.607C121.953 300.607 121.382 301.952 121.382 303.192ZM124.538 303.192C124.538 304.169 124.23 305.116 123.343 305.116C122.457 305.116 122.148 304.169 122.148 303.192C122.148 302.215 122.457 301.276 123.343 301.276C124.23 301.276 124.538 302.215 124.538 303.192ZM125.998 303.192C125.998 304.432 126.569 305.785 127.96 305.785C129.35 305.785 129.921 304.432 129.921 303.192C129.921 301.952 129.35 300.607 127.96 300.607C126.569 300.607 125.998 301.952 125.998 303.192ZM129.155 303.192C129.155 304.169 128.846 305.116 127.96 305.116C127.073 305.116 126.765 304.169 126.765 303.192C126.765 302.215 127.073 301.276 127.96 301.276C128.846 301.276 129.155 302.215 129.155 303.192ZM130.614 303.192C130.614 304.432 131.186 305.785 132.576 305.785C133.966 305.785 134.537 304.432 134.537 303.192C134.537 301.952 133.966 300.607 132.576 300.607C131.186 300.607 130.614 301.952 130.614 303.192ZM133.771 303.192C133.771 304.169 133.463 305.116 132.576 305.116C131.689 305.116 131.381 304.169 131.381 303.192C131.381 302.215 131.689 301.276 132.576 301.276C133.463 301.276 133.771 302.215 133.771 303.192ZM136.275 305.695H137.027V300.682H136.365L135.02 302.057L135.464 302.516L136.275 301.667V305.695ZM137.811 304.169H139.615V303.583H137.811V304.169ZM140.185 303.192C140.185 304.432 140.756 305.785 142.146 305.785C143.536 305.785 144.107 304.432 144.107 303.192C144.107 301.952 143.536 300.607 142.146 300.607C140.756 300.607 140.185 301.952 140.185 303.192ZM143.341 303.192C143.341 304.169 143.033 305.116 142.146 305.116C141.259 305.116 140.951 304.169 140.951 303.192C140.951 302.215 141.259 301.276 142.146 301.276C143.033 301.276 143.341 302.215 143.341 303.192ZM144.801 303.192C144.801 304.432 145.372 305.785 146.762 305.785C148.153 305.785 148.724 304.432 148.724 303.192C148.724 301.952 148.153 300.607 146.762 300.607C145.372 300.607 144.801 301.952 144.801 303.192ZM147.957 303.192C147.957 304.169 147.649 305.116 146.762 305.116C145.875 305.116 145.567 304.169 145.567 303.192C145.567 302.215 145.875 301.276 146.762 301.276C147.649 301.276 147.957 302.215 147.957 303.192ZM78.999 319.2C78.999 320.575 79.5627 321.785 80.9981 321.785C82.1028 321.785 82.8017 321.026 82.8017 320.124C82.8017 319.057 82.0427 318.516 81.1408 318.516C80.5246 318.516 79.9835 318.914 79.7656 319.252C79.758 319.2 79.758 319.147 79.758 319.087C79.758 318.155 80.2165 317.276 81.1258 317.276C81.6218 317.276 81.9149 317.464 82.1704 317.757L82.5387 317.186C82.2155 316.84 81.7571 316.607 81.1258 316.607C79.6904 316.607 78.999 317.794 78.999 319.2ZM82.0427 320.147C82.0427 320.59 81.6819 321.116 80.9605 321.116C80.1413 321.116 79.8332 320.417 79.7731 319.831C80.0361 319.433 80.487 319.162 80.953 319.162C81.5467 319.162 82.0427 319.478 82.0427 320.147ZM83.5886 320.996C83.9793 321.484 84.5505 321.785 85.4072 321.785C86.4669 321.785 87.2484 321.139 87.2484 320.109C87.2484 319.08 86.4894 318.501 85.6477 318.501C85.1592 318.501 84.7384 318.704 84.4979 318.944V317.344H86.9178V316.682H83.7464V319.433L84.2875 319.606C84.6181 319.29 84.9789 319.155 85.4147 319.155C86.061 319.155 86.4894 319.538 86.4894 320.139C86.4894 320.688 86.0535 321.116 85.3997 321.116C84.8135 321.116 84.3626 320.891 84.0319 320.485L83.5886 320.996ZM88.058 320.996C88.4488 321.484 89.02 321.785 89.8767 321.785C90.9363 321.785 91.7179 321.139 91.7179 320.109C91.7179 319.08 90.9589 318.501 90.1172 318.501C89.6287 318.501 89.2078 318.704 88.9674 318.944V317.344H91.3872V316.682H88.2158V319.433L88.7569 319.606C89.0876 319.29 89.4483 319.155 89.8842 319.155C90.5305 319.155 90.9589 319.538 90.9589 320.139C90.9589 320.688 90.523 321.116 89.8692 321.116C89.283 321.116 88.8321 320.891 88.5014 320.485L88.058 320.996ZM96.1695 320.169H97.9732V319.583H96.1695V320.169ZM100.691 321.695H103.103C104.028 321.695 104.554 321.131 104.554 320.342C104.554 319.733 104.118 319.192 103.584 319.11C104.043 319.012 104.456 318.591 104.456 317.96C104.456 317.231 103.937 316.682 103.043 316.682H100.691V321.695ZM101.442 318.809V317.344H102.9C103.404 317.344 103.682 317.667 103.682 318.08C103.682 318.493 103.404 318.809 102.9 318.809H101.442ZM101.442 321.033V319.47H102.938C103.494 319.47 103.78 319.831 103.78 320.244C103.78 320.733 103.464 321.033 102.938 321.033H101.442ZM107.708 321.695H108.384V319.245C108.384 318.321 107.715 317.975 106.926 317.975C106.34 317.975 105.844 318.17 105.438 318.569L105.731 319.034C106.054 318.711 106.408 318.553 106.821 318.553C107.339 318.553 107.708 318.824 107.708 319.275V319.876C107.43 319.553 107.009 319.395 106.52 319.395C105.912 319.395 105.258 319.756 105.258 320.583C105.258 321.379 105.919 321.785 106.52 321.785C107.009 321.785 107.422 321.612 107.708 321.297V321.695ZM107.708 320.898C107.505 321.169 107.152 321.312 106.776 321.312C106.287 321.312 105.942 321.018 105.942 320.59C105.942 320.162 106.287 319.869 106.776 319.869C107.152 319.869 107.505 320.011 107.708 320.282V320.898ZM111.918 321.695H112.594V319.147C112.594 318.381 112.196 317.975 111.429 317.975C110.866 317.975 110.385 318.283 110.144 318.576V318.065H109.468V321.695H110.144V319.102C110.34 318.832 110.723 318.576 111.144 318.576C111.61 318.576 111.918 318.771 111.918 319.373V321.695ZM113.44 319.876C113.44 320.966 114.192 321.785 115.289 321.785C115.973 321.785 116.386 321.499 116.649 321.146L116.198 320.733C115.981 321.033 115.687 321.184 115.319 321.184C114.605 321.184 114.147 320.628 114.147 319.876C114.147 319.125 114.605 318.576 115.319 318.576C115.687 318.576 115.981 318.719 116.198 319.027L116.649 318.614C116.386 318.26 115.973 317.975 115.289 317.975C114.192 317.975 113.44 318.786 113.44 319.876ZM119.002 321.785C120.137 321.785 120.836 320.928 120.836 319.876C120.836 318.832 120.137 317.975 119.002 317.975C117.875 317.975 117.169 318.832 117.169 319.876C117.169 320.928 117.875 321.785 119.002 321.785ZM119.002 321.184C118.281 321.184 117.875 320.568 117.875 319.876C117.875 319.192 118.281 318.576 119.002 318.576C119.731 318.576 120.13 319.192 120.13 319.876C120.13 320.568 119.731 321.184 119.002 321.184ZM125.12 321.695H126.06L128.051 316.682H127.194L125.586 320.876L123.985 316.682H123.129L125.12 321.695ZM129.798 321.785C130.933 321.785 131.632 320.928 131.632 319.876C131.632 318.832 130.933 317.975 129.798 317.975C128.671 317.975 127.964 318.832 127.964 319.876C127.964 320.928 128.671 321.785 129.798 321.785ZM129.798 321.184C129.077 321.184 128.671 320.568 128.671 319.876C128.671 319.192 129.077 318.576 129.798 318.576C130.527 318.576 130.925 319.192 130.925 319.876C130.925 320.568 130.527 321.184 129.798 321.184ZM133.49 321.785C133.843 321.785 134.054 321.687 134.196 321.552L134.024 321.041C133.956 321.116 133.813 321.184 133.655 321.184C133.422 321.184 133.302 320.996 133.302 320.74V318.659H134.039V318.065H133.302V317.073H132.626V318.065H132.025V318.659H132.626V320.891C132.626 321.462 132.919 321.785 133.49 321.785ZM136.396 321.785C137.531 321.785 138.23 320.928 138.23 319.876C138.23 318.832 137.531 317.975 136.396 317.975C135.269 317.975 134.562 318.832 134.562 319.876C134.562 320.928 135.269 321.785 136.396 321.785ZM136.396 321.184C135.674 321.184 135.269 320.568 135.269 319.876C135.269 319.192 135.674 318.576 136.396 318.576C137.125 318.576 137.523 319.192 137.523 319.876C137.523 320.568 137.125 321.184 136.396 321.184ZM139.088 321.695H139.765V319.17C139.922 318.899 140.381 318.644 140.719 318.644C140.809 318.644 140.884 318.651 140.952 318.666V317.982C140.471 317.982 140.043 318.26 139.765 318.621V318.065H139.088V321.695ZM143.867 321.695H144.543V319.245C144.543 318.321 143.875 317.975 143.085 317.975C142.499 317.975 142.003 318.17 141.597 318.569L141.891 319.034C142.214 318.711 142.567 318.553 142.98 318.553C143.499 318.553 143.867 318.824 143.867 319.275V319.876C143.589 319.553 143.168 319.395 142.68 319.395C142.071 319.395 141.417 319.756 141.417 320.583C141.417 321.379 142.078 321.785 142.68 321.785C143.168 321.785 143.581 321.612 143.867 321.297V321.695ZM143.867 320.898C143.664 321.169 143.311 321.312 142.935 321.312C142.447 321.312 142.101 321.018 142.101 320.59C142.101 320.162 142.447 319.869 142.935 319.869C143.311 319.869 143.664 320.011 143.867 320.282V320.898ZM148.077 321.695H148.754V319.147C148.754 318.381 148.355 317.975 147.589 317.975C147.025 317.975 146.544 318.283 146.304 318.576V318.065H145.627V321.695H146.304V319.102C146.499 318.832 146.882 318.576 147.303 318.576C147.769 318.576 148.077 318.771 148.077 319.373V321.695ZM150.825 321.785C151.178 321.785 151.388 321.687 151.531 321.552L151.358 321.041C151.291 321.116 151.148 321.184 150.99 321.184C150.757 321.184 150.637 320.996 150.637 320.74V318.659H151.373V318.065H150.637V317.073H149.961V318.065H149.359V318.659H149.961V320.891C149.961 321.462 150.254 321.785 150.825 321.785ZM152.453 317.456C152.694 317.456 152.889 317.268 152.889 317.028C152.889 316.787 152.694 316.592 152.453 316.592C152.22 316.592 152.017 316.787 152.017 317.028C152.017 317.268 152.22 317.456 152.453 317.456ZM152.122 321.695H152.799V318.065H152.122V321.695ZM158.288 321.695H158.964V319.072C158.964 318.343 158.603 317.975 157.935 317.975C157.401 317.975 156.92 318.313 156.71 318.651C156.597 318.26 156.274 317.975 155.725 317.975C155.184 317.975 154.703 318.351 154.553 318.576V318.065H153.876V321.695H154.553V319.102C154.733 318.839 155.086 318.576 155.44 318.576C155.898 318.576 156.078 318.854 156.078 319.275V321.695H156.755V319.095C156.928 318.832 157.288 318.576 157.657 318.576C158.1 318.576 158.288 318.854 158.288 319.275V321.695ZM81.5692 337.785C82.5537 337.785 83.1624 337.312 83.5607 336.725L82.9219 336.387C82.6589 336.808 82.1629 337.116 81.5692 337.116C80.5547 337.116 79.7731 336.312 79.7731 335.192C79.7731 334.065 80.5547 333.268 81.5692 333.268C82.1629 333.268 82.6589 333.577 82.9219 333.997L83.5607 333.659C83.1699 333.073 82.5537 332.6 81.5692 332.6C80.1413 332.6 78.999 333.652 78.999 335.192C78.999 336.733 80.1413 337.785 81.5692 337.785ZM85.9033 337.785C87.0381 337.785 87.737 336.928 87.737 335.876C87.737 334.832 87.0381 333.975 85.9033 333.975C84.776 333.975 84.0696 334.832 84.0696 335.876C84.0696 336.928 84.776 337.785 85.9033 337.785ZM85.9033 337.184C85.1818 337.184 84.776 336.568 84.776 335.876C84.776 335.192 85.1818 334.576 85.9033 334.576C86.6323 334.576 87.0306 335.192 87.0306 335.876C87.0306 336.568 86.6323 337.184 85.9033 337.184ZM91.0457 337.695H91.722V335.147C91.722 334.381 91.3237 333.975 90.5572 333.975C89.9935 333.975 89.5126 334.283 89.2721 334.576V334.065H88.5957V337.695H89.2721V335.102C89.4675 334.832 89.8507 334.576 90.2716 334.576C90.7375 334.576 91.0457 334.771 91.0457 335.373V337.695ZM93.7932 337.785C94.1464 337.785 94.3568 337.687 94.4996 337.552L94.3267 337.041C94.2591 337.116 94.1163 337.184 93.9585 337.184C93.7255 337.184 93.6053 336.996 93.6053 336.74V334.659H94.3418V334.065H93.6053V333.073H92.9289V334.065H92.3277V334.659H92.9289V336.891C92.9289 337.462 93.222 337.785 93.7932 337.785ZM97.3303 337.695H98.0066V335.245C98.0066 334.321 97.3378 333.975 96.5487 333.975C95.9625 333.975 95.4665 334.17 95.0607 334.569L95.3538 335.034C95.6769 334.711 96.0301 334.553 96.4435 334.553C96.962 334.553 97.3303 334.824 97.3303 335.275V335.876C97.0522 335.553 96.6314 335.395 96.1429 335.395C95.5341 335.395 94.8803 335.756 94.8803 336.583C94.8803 337.379 95.5417 337.785 96.1429 337.785C96.6314 337.785 97.0447 337.612 97.3303 337.297V337.695ZM97.3303 336.898C97.1274 337.169 96.7741 337.312 96.3984 337.312C95.9099 337.312 95.5642 337.018 95.5642 336.59C95.5642 336.162 95.9099 335.869 96.3984 335.869C96.7741 335.869 97.1274 336.011 97.3303 336.282V336.898ZM98.9703 334.486C98.9703 334.734 99.1807 334.952 99.4362 334.952C99.6917 334.952 99.9097 334.734 99.9097 334.486C99.9097 334.23 99.6917 334.012 99.4362 334.012C99.1807 334.012 98.9703 334.23 98.9703 334.486ZM98.9703 337.304C98.9703 337.56 99.1807 337.777 99.4362 337.777C99.6917 337.777 99.9097 337.56 99.9097 337.304C99.9097 337.049 99.6917 336.838 99.4362 336.838C99.1807 336.838 98.9703 337.049 98.9703 337.304ZM102.623 335.192C102.623 336.432 103.195 337.785 104.585 337.785C105.975 337.785 106.546 336.432 106.546 335.192C106.546 333.952 105.975 332.607 104.585 332.607C103.195 332.607 102.623 333.952 102.623 335.192ZM105.78 335.192C105.78 336.169 105.472 337.116 104.585 337.116C103.698 337.116 103.39 336.169 103.39 335.192C103.39 334.215 103.698 333.276 104.585 333.276C105.472 333.276 105.78 334.215 105.78 335.192ZM107.24 335.192C107.24 336.432 107.811 337.785 109.201 337.785C110.591 337.785 111.163 336.432 111.163 335.192C111.163 333.952 110.591 332.607 109.201 332.607C107.811 332.607 107.24 333.952 107.24 335.192ZM110.396 335.192C110.396 336.169 110.088 337.116 109.201 337.116C108.314 337.116 108.006 336.169 108.006 335.192C108.006 334.215 108.314 333.276 109.201 333.276C110.088 333.276 110.396 334.215 110.396 335.192ZM111.856 335.192C111.856 336.432 112.427 337.785 113.817 337.785C115.208 337.785 115.779 336.432 115.779 335.192C115.779 333.952 115.208 332.607 113.817 332.607C112.427 332.607 111.856 333.952 111.856 335.192ZM115.012 335.192C115.012 336.169 114.704 337.116 113.817 337.116C112.931 337.116 112.622 336.169 112.622 335.192C112.622 334.215 112.931 333.276 113.817 333.276C114.704 333.276 115.012 334.215 115.012 335.192ZM116.472 335.192C116.472 336.432 117.043 337.785 118.434 337.785C119.824 337.785 120.395 336.432 120.395 335.192C120.395 333.952 119.824 332.607 118.434 332.607C117.043 332.607 116.472 333.952 116.472 335.192ZM119.628 335.192C119.628 336.169 119.32 337.116 118.434 337.116C117.547 337.116 117.239 336.169 117.239 335.192C117.239 334.215 117.547 333.276 118.434 333.276C119.32 333.276 119.628 334.215 119.628 335.192ZM121.088 335.192C121.088 336.432 121.66 337.785 123.05 337.785C124.44 337.785 125.011 336.432 125.011 335.192C125.011 333.952 124.44 332.607 123.05 332.607C121.66 332.607 121.088 333.952 121.088 335.192ZM124.245 335.192C124.245 336.169 123.937 337.116 123.05 337.116C122.163 337.116 121.855 336.169 121.855 335.192C121.855 334.215 122.163 333.276 123.05 333.276C123.937 333.276 124.245 334.215 124.245 335.192ZM125.584 336.169H127.388V335.583H125.584V336.169ZM127.958 335.192C127.958 336.432 128.529 337.785 129.919 337.785C131.309 337.785 131.881 336.432 131.881 335.192C131.881 333.952 131.309 332.607 129.919 332.607C128.529 332.607 127.958 333.952 127.958 335.192ZM131.114 335.192C131.114 336.169 130.806 337.116 129.919 337.116C129.032 337.116 128.724 336.169 128.724 335.192C128.724 334.215 129.032 333.276 129.919 333.276C130.806 333.276 131.114 334.215 131.114 335.192Z" fill="#855B35"/>
<circle cx="48.217" cy="173.064" r="10.5212" fill="#01BDE4"/>
<path d="M44.4594 173.064L45.2516 173.856L47.6568 171.451L47.6568 176.822L48.7773 176.822L48.7773 171.451L51.1824 173.856L51.9746 173.064L48.217 169.307L44.4594 173.064Z" fill="#FBF9BE"/>
<circle cx="48.217" cy="275.271" r="10.5212" fill="#01BDE4"/>
<path d="M51.9746 275.271L51.1824 274.478L48.7773 276.884V271.513H47.6568V276.884L45.2517 274.478L44.4595 275.271L48.2171 279.028L51.9746 275.271Z" fill="#FBF9BE"/>
</g>
<defs>
<linearGradient id="paint0_linear" x1="204.831" y1="-11.5848" x2="43.6912" y2="466.964" gradientUnits="userSpaceOnUse">
<stop stop-color="#F7F7FB"/>
<stop offset="1" stop-color="#E7E7E7"/>
</linearGradient>
<linearGradient id="paint1_linear" x1="208.49" y1="7.53706" x2="-61.0353" y2="556.471" gradientUnits="userSpaceOnUse">
<stop stop-color="white"/>
<stop offset="1" stop-color="#FFF5D5"/>
</linearGradient>
<linearGradient id="paint2_linear" x1="-13.7832" y1="424.43" x2="-66.7641" y2="57.0571" gradientUnits="userSpaceOnUse">
<stop stop-color="#00A5F0"/>
<stop offset="1" stop-color="#00D7D7"/>
</linearGradient>
<linearGradient id="paint3_linear" x1="111.908" y1="334.265" x2="112.095" y2="389.313" gradientUnits="userSpaceOnUse">
<stop stop-color="#CCB579" stop-opacity="0"/>
<stop offset="1" stop-color="#CCB579"/>
</linearGradient>
</defs>
</svg>
