<svg width="5" height="83" viewBox="0 0 5 83" fill="none" xmlns="http://www.w3.org/2000/svg">
<path opacity="0.6" fill-rule="evenodd" clip-rule="evenodd" d="M5 2.5C5 3.88071 3.88071 5 2.5 5C1.11929 5 0 3.88071 0 2.5C0 1.11929 1.11929 0 2.5 0C3.88071 0 5 1.11929 5 2.5ZM5 15.5C5 16.8807 3.88071 18 2.5 18C1.11929 18 0 16.8807 0 15.5C0 14.1193 1.11929 13 2.5 13C3.88071 13 5 14.1193 5 15.5ZM2.5 31C3.88071 31 5 29.8807 5 28.5C5 27.1193 3.88071 26 2.5 26C1.11929 26 0 27.1193 0 28.5C0 29.8807 1.11929 31 2.5 31ZM5 41.5C5 42.8807 3.88071 44 2.5 44C1.11929 44 0 42.8807 0 41.5C0 40.1193 1.11929 39 2.5 39C3.88071 39 5 40.1193 5 41.5ZM2.5 57C3.88071 57 5 55.8807 5 54.5C5 53.1193 3.88071 52 2.5 52C1.11929 52 0 53.1193 0 54.5C0 55.8807 1.11929 57 2.5 57ZM5 67.5C5 68.8807 3.88071 70 2.5 70C1.11929 70 0 68.8807 0 67.5C0 66.1193 1.11929 65 2.5 65C3.88071 65 5 66.1193 5 67.5ZM2.5 83C3.88071 83 5 81.8807 5 80.5C5 79.1193 3.88071 78 2.5 78C1.11929 78 0 79.1193 0 80.5C0 81.8807 1.11929 83 2.5 83Z" fill="url(#paint0_linear)"/>
<defs>
<linearGradient id="paint0_linear" x1="2.5" y1="0" x2="2.5" y2="83" gradientUnits="userSpaceOnUse">
<stop stop-color="#01CCDD" stop-opacity="0"/>
<stop offset="1" stop-color="#01CCDD"/>
</linearGradient>
</defs>
</svg>
