<svg width="20" height="16" viewBox="0 0 20 16" fill="none" xmlns="http://www.w3.org/2000/svg">
<path d="M19.826 1.9006C19.1017 2.21303 18.3136 2.43788 17.5018 2.52545C18.3446 2.02471 18.9758 1.23362 19.2769 0.300601C18.486 0.771108 17.6195 1.10104 16.716 1.27575C16.3383 0.872024 15.8816 0.5504 15.3742 0.330915C14.8668 0.11143 14.3197 -0.00121132 13.7668 9.82343e-06C11.5302 9.82343e-06 9.73134 1.81303 9.73134 4.03788C9.73134 4.3503 9.76921 4.66273 9.83075 4.96332C6.48164 4.78817 3.49466 3.18817 1.50886 0.738471C1.14703 1.3565 0.957415 2.06019 0.959749 2.77634C0.959749 4.17752 1.67217 5.41302 2.75856 6.13965C2.11834 6.11444 1.4931 5.93846 0.933714 5.62604V5.67575C0.933714 7.63787 2.3207 9.26391 4.16922 9.63787C3.82214 9.72803 3.46509 9.77415 3.10649 9.77515C2.84377 9.77515 2.59525 9.74912 2.34436 9.71361C2.85561 11.3136 4.34436 12.4757 6.11714 12.5136C4.73016 13.6 2.99288 14.2391 1.1065 14.2391C0.768034 14.2391 0.455608 14.2272 0.131348 14.1894C1.9207 15.3373 4.04377 16 6.33016 16C13.7526 16 17.8142 9.85089 17.8142 4.51362C17.8142 4.33847 17.8142 4.16332 17.8023 3.98817C18.5881 3.41303 19.2769 2.7006 19.826 1.9006Z" fill="white"/>
</svg>
