<svg width="23" height="16" viewBox="0 0 23 16" fill="none" xmlns="http://www.w3.org/2000/svg">
<path d="M22.0622 7.93106C22.0622 7.87688 22.0622 7.81533 22.0597 7.74392C22.0572 7.54447 22.0523 7.32041 22.0474 7.08156C22.0277 6.39458 21.9932 5.71006 21.9391 5.06494C21.8652 4.17605 21.7568 3.4349 21.6091 2.87842C21.4532 2.29769 21.1476 1.76805 20.7229 1.34244C20.2981 0.916822 19.7691 0.610147 19.1887 0.453062C18.4918 0.265928 17.1277 0.1502 15.2071 0.0787934C14.2936 0.0443213 13.3161 0.0221605 12.3386 0.00984903C11.9963 0.00492444 11.6787 0.0024623 11.393 0H10.6691C10.3835 0.0024623 10.0659 0.00492444 9.72361 0.00984903C8.74608 0.0221605 7.76854 0.0443213 6.85503 0.0787934C4.93444 0.152662 3.56787 0.26839 2.8735 0.453062C2.29289 0.609762 1.76367 0.916307 1.33886 1.34198C0.914051 1.76765 0.608581 2.2975 0.453063 2.87842C0.302862 3.4349 0.196984 4.17605 0.123115 5.06494C0.0689443 5.71006 0.0344721 6.39458 0.0147737 7.08156C0.00738685 7.32041 0.00492455 7.54447 0.00246226 7.74392C0.00246226 7.81533 0 7.87688 0 7.93106V8.06894C0 8.12311 -3.76083e-08 8.18467 0.00246226 8.25608C0.00492455 8.45552 0.00984915 8.67959 0.0147737 8.91844C0.0344721 9.60542 0.0689443 10.2899 0.123115 10.9351C0.196984 11.8239 0.305325 12.5651 0.453063 13.1216C0.768236 14.301 1.69406 15.2318 2.8735 15.5469C3.56787 15.7341 4.93444 15.8498 6.85503 15.9212C7.76854 15.9557 8.74608 15.9778 9.72361 15.9901C10.0659 15.9951 10.3835 15.9975 10.6691 16H11.393C11.6787 15.9975 11.9963 15.9951 12.3386 15.9901C13.3161 15.9778 14.2936 15.9557 15.2071 15.9212C17.1277 15.8473 18.4943 15.7316 19.1887 15.5469C20.3681 15.2318 21.2939 14.3035 21.6091 13.1216C21.7593 12.5651 21.8652 11.8239 21.9391 10.9351C21.9932 10.2899 22.0277 9.60542 22.0474 8.91844C22.0548 8.67959 22.0572 8.45552 22.0597 8.25608C22.0597 8.18467 22.0622 8.12311 22.0622 8.06894V7.93106ZM20.2893 8.05909C20.2893 8.1108 20.2893 8.16743 20.2869 8.23392C20.2844 8.42598 20.2795 8.63773 20.2745 8.86673C20.2573 9.5217 20.2228 10.1767 20.1711 10.7849C20.1046 11.5777 20.0111 12.2278 19.8954 12.6636C19.7427 13.2324 19.2945 13.683 18.7282 13.8332C18.2111 13.9711 16.9086 14.0819 15.1382 14.1484C14.2419 14.1828 13.2767 14.205 12.3139 14.2173C11.9766 14.2222 11.6639 14.2247 11.3832 14.2247H10.679L9.74823 14.2173C8.78547 14.205 7.82271 14.1828 6.92398 14.1484C5.15359 14.0794 3.84857 13.9711 3.33395 13.8332C2.76762 13.6805 2.31948 13.2324 2.16682 12.6636C2.05109 12.2278 1.95753 11.5777 1.89104 10.7849C1.83934 10.1767 1.80733 9.5217 1.78763 8.86673C1.78024 8.63773 1.77778 8.42351 1.77532 8.23392C1.77532 8.16743 1.77285 8.10834 1.77285 8.05909V7.9409C1.77285 7.8892 1.77285 7.83256 1.77532 7.76608C1.77778 7.57402 1.7827 7.36226 1.78763 7.13327C1.80486 6.4783 1.83934 5.82333 1.89104 5.21514C1.95753 4.42228 2.05109 3.77224 2.16682 3.33641C2.31948 2.76762 2.76762 2.31702 3.33395 2.16682C3.85103 2.02893 5.15359 1.91813 6.92398 1.85165C7.82025 1.81717 8.78547 1.79501 9.74823 1.7827C10.0856 1.77778 10.3983 1.77532 10.679 1.77532H11.3832L12.3139 1.7827C13.2767 1.79501 14.2395 1.81717 15.1382 1.85165C16.9086 1.92059 18.2136 2.02893 18.7282 2.16682C19.2945 2.31948 19.7427 2.76762 19.8954 3.33641C20.0111 3.77224 20.1046 4.42228 20.1711 5.21514C20.2228 5.82333 20.2548 6.4783 20.2745 7.13327C20.2819 7.36226 20.2844 7.57648 20.2869 7.76608C20.2869 7.83256 20.2893 7.89166 20.2893 7.9409V8.05909ZM8.83964 11.2995L14.5522 7.97538L8.83964 4.70052V11.2995Z" fill="white"/>
</svg>
